<svg width="44" height="44" viewBox="0 0 44 44" fill="none" xmlns="http://www.w3.org/2000/svg">
<path d="M22.5167 34.7H16.0833V37.9667H22.5167C31.0667 37.9667 38 31.0333 38 22.4833C38 13.9333 31.0667 7 22.5167 7H6V10.2667H22.5167C29.2667 10.2667 34.75 15.7333 34.75 22.5C34.75 29.2667 29.2667 34.7 22.5167 34.7Z" fill="#2EABE3"/>
<path d="M22.518 13.4666H12.1346V16.6999H22.518C25.7013 16.6999 28.2846 19.2832 28.2846 22.4666C28.2846 25.6499 25.7013 28.2332 22.518 28.2332H19.2846V19.7332H16.0513V31.4832H19.2846H22.518C27.4847 31.4832 31.518 27.4499 31.518 22.4832C31.518 17.5166 27.4847 13.4666 22.518 13.4666Z" fill="#2EABE3"/>
</svg>
