<svg width="20" height="21" viewBox="0 0 20 21" fill="none" xmlns="http://www.w3.org/2000/svg">
<path d="M18.125 10.5C18.125 7.60938 16.5625 4.95312 14.0625 3.46875C11.5234 2.02344 8.4375 2.02344 5.9375 3.46875C3.39844 4.95312 1.875 7.60938 1.875 10.5C1.875 13.4297 3.39844 16.0859 5.9375 17.5703C8.4375 19.0156 11.5234 19.0156 14.0625 17.5703C16.5625 16.0859 18.125 13.4297 18.125 10.5ZM0 10.5C0 6.94531 1.875 3.66406 5 1.86719C8.08594 0.0703125 11.875 0.0703125 15 1.86719C18.0859 3.66406 20 6.94531 20 10.5C20 14.0938 18.0859 17.375 15 19.1719C11.875 20.9688 8.08594 20.9688 5 19.1719C1.875 17.375 0 14.0938 0 10.5ZM6.28906 7.14062L6.75781 7.33594C7.77344 7.80469 8.86719 8 10 8C11.0938 8 12.1875 7.80469 13.2031 7.33594L13.6719 7.14062C14.1406 6.94531 14.7266 7.17969 14.9219 7.64844C15.1172 8.11719 14.8828 8.66406 14.4141 8.85938L13.9453 9.09375C13.2812 9.36719 12.5781 9.5625 11.875 9.71875V11.6719C11.875 11.8281 11.875 12.0234 11.9531 12.1797L13.0469 15.5391C13.2422 16.0078 12.9688 16.5547 12.4609 16.7109C11.9922 16.8672 11.4453 16.5938 11.2891 16.125L10.3125 13.2734C10.2734 13.1172 10.1562 13 10 13C9.84375 13 9.6875 13.1172 9.64844 13.2734L8.67188 16.125C8.51562 16.5938 8.00781 16.8672 7.5 16.7109C6.99219 16.5547 6.75781 16.0078 6.91406 15.5391L8.04688 12.1797C8.08594 11.9844 8.125 11.8281 8.125 11.6719V9.71875C7.38281 9.5625 6.67969 9.36719 6.01562 9.09375L5.54688 8.89844C5.07812 8.66406 4.84375 8.11719 5.07812 7.64844C5.27344 7.17969 5.82031 6.94531 6.28906 7.14062ZM10 3.625C10.5469 3.625 11.0547 3.9375 11.3281 4.40625C11.6016 4.91406 11.6016 5.5 11.3281 5.96875C11.0547 6.47656 10.5469 6.75 10 6.75C9.41406 6.75 8.90625 6.47656 8.63281 5.96875C8.35938 5.5 8.35938 4.91406 8.63281 4.40625C8.90625 3.9375 9.41406 3.625 10 3.625Z" fill="black"/>
</svg>
