<svg width="18" height="18" viewBox="0 0 18 18" fill="none" xmlns="http://www.w3.org/2000/svg">
<path d="M12.9772 11.4716H12.1872L11.9072 11.2016C13.1072 9.80157 13.7272 7.89157 13.3872 5.86157C12.9172 3.08157 10.5972 0.861573 7.79719 0.521573C3.56719 0.00157288 0.00718811 3.56157 0.527188 7.79157C0.867188 10.5916 3.08719 12.9116 5.86719 13.3816C7.89719 13.7216 9.80719 13.1016 11.2072 11.9016L11.4772 12.1816V12.9716L15.7272 17.2216C16.1372 17.6316 16.8072 17.6316 17.2172 17.2216C17.6272 16.8116 17.6272 16.1416 17.2172 15.7316L12.9772 11.4716ZM6.97719 11.4716C4.48719 11.4716 2.47719 9.46157 2.47719 6.97157C2.47719 4.48157 4.48719 2.47157 6.97719 2.47157C9.46719 2.47157 11.4772 4.48157 11.4772 6.97157C11.4772 9.46157 9.46719 11.4716 6.97719 11.4716Z" fill="#3F4948"/>
</svg>
