<svg width="20" height="21" viewBox="0 0 20 21" fill="none" xmlns="http://www.w3.org/2000/svg">
<path d="M10 20.2031C4.58008 20.2031 0.136719 15.75 0.136719 10.3398C0.136719 4.91992 4.58008 0.476562 10 0.476562C15.4199 0.476562 19.8633 4.91992 19.8633 10.3398C19.8633 15.75 15.4199 20.2031 10 20.2031ZM10 13.6309C12.2363 13.6309 13.9844 14.4023 15.0586 15.418C16.3574 14.1191 17.1582 12.3223 17.1582 10.3398C17.1582 6.375 13.9648 3.17188 10 3.17188C6.03516 3.17188 2.8418 6.375 2.8418 10.3398C2.8418 12.3223 3.65234 14.1191 4.95117 15.418C6.01562 14.4023 7.76367 13.6309 10 13.6309ZM10 12.2441C8.18359 12.2344 6.79688 10.6914 6.78711 8.72852C6.77734 6.87305 8.20312 5.28125 10 5.28125C11.7969 5.28125 13.2129 6.87305 13.2129 8.72852C13.2129 10.6914 11.8164 12.2539 10 12.2441Z" fill="#3F4948"/>
</svg>
