<svg width="20" height="21" viewBox="0 0 20 21" fill="none" xmlns="http://www.w3.org/2000/svg">
<path opacity="0.64" fill-rule="evenodd" clip-rule="evenodd" d="M6.5 19.4434H16.5C17.327 19.4434 18 18.7704 18 17.9434V7.44336C18.5523 7.44336 19 6.99564 19 6.44336V3.44336C19 2.89107 18.5523 2.44336 18 2.44336H17.914C17.708 1.86136 17.152 1.44336 16.5 1.44336H6.5C5.673 1.44336 5 2.11636 5 2.94336V17.9434C5 18.7704 5.673 19.4434 6.5 19.4434ZM6 2.94336C6 2.66722 6.22386 2.44336 6.5 2.44336H16.5C16.7761 2.44336 17 2.66722 17 2.94336V3.44336H18V6.44336H17V17.9434C17 18.2195 16.7761 18.4434 16.5 18.4434H6.5C6.22386 18.4434 6 18.2195 6 17.9434V2.94336Z" fill="#3F4948"/>
<path d="M18 3.44336H17V2.94336C17 2.66722 16.7761 2.44336 16.5 2.44336H6.5C6.22386 2.44336 6 2.66722 6 2.94336V17.9434C6 18.2195 6.22386 18.4434 6.5 18.4434H16.5C16.7761 18.4434 17 18.2195 17 17.9434V6.44336H18V3.44336Z" fill="white"/>
<path d="M2 16.4434H10C10.5523 16.4434 11 15.9956 11 15.4434V7.44336C11 6.89107 10.5523 6.44336 10 6.44336H2C1.44772 6.44336 1 6.89107 1 7.44336V15.4434C1 15.9956 1.44772 16.4434 2 16.4434Z" fill="#904EDB"/>
<path d="M9 14.4434H7.604C7.604 14.4434 3.995 9.76036 4 9.75536V14.4434H3V8.44336H4.27C4.27 8.44336 7.898 13.1054 8 13.2714V8.44336H9V14.4434Z" fill="white"/>
</svg>
