<?xml version="1.0" encoding="iso-8859-1"?>
<!-- Uploaded to: SVG Repo, www.svgrepo.com, Generator: SVG Repo Mixer Tools -->
<!DOCTYPE svg PUBLIC "-//W3C//DTD SVG 1.1//EN" "http://www.w3.org/Graphics/SVG/1.1/DTD/svg11.dtd">
<svg fill="#000000" height="800px" width="800px" version="1.1" id="Capa_1" xmlns="http://www.w3.org/2000/svg" xmlns:xlink="http://www.w3.org/1999/xlink" 
	 viewBox="0 0 489.2 489.2" xml:space="preserve">
<path d="M302.258,37.32h-82.789c0-16.233-10.48-29.944-24.996-35.066C190.596,0.891,186.499,0,182.149,0
	c-20.582,0-37.32,16.745-37.32,37.32v127.091c0,20.575,16.738,37.321,37.32,37.321c4.35,0,8.447-0.892,12.324-2.253
	c14.516-5.123,24.996-18.834,24.996-35.068V112.97c0-8.156-6.131-14.617-13.996-15.705c-0.725-0.103-1.385-0.434-2.143-0.434
	c-8.92,0-16.139,7.227-16.139,16.139v51.441c0,2.782-2.27,5.044-5.043,5.044c-2.773,0-5.043-2.262-5.043-5.044V66.705l114.137-0.078
	v63.002c0,18.416,14.955,33.364,33.348,33.364l61.748-0.173l0.678,278.287c0,10.275-8.32,18.621-18.611,18.621H120.78
	c-10.279,0-18.631-8.346-18.631-18.621V85.413c0-10.205,8.275-18.495,18.473-18.582V37.336
	c-26.447,0.087-47.928,21.623-47.928,48.077v355.694c0,26.509,21.561,48.093,48.086,48.093h247.625
	c26.508,0,48.102-21.584,48.102-48.093V151.15L302.258,37.32z M177.106,37.32c0-2.782,2.27-5.043,5.043-5.043
	c2.773,0,5.043,2.261,5.043,5.043H177.106z"/>
</svg>