<svg xmlns="http://www.w3.org/2000/svg" viewBox="0 0 680.83 274.17"><defs><style>.cls-1{fill:#fff;}</style></defs><g id="Layer_2" data-name="Layer 2"><g id="Layer_1-2" data-name="Layer 1"><polygon class="cls-1" points="17.35 147.95 22.95 151.94 26.66 146.39 20.76 142.34 18.16 146.27 12.44 142.34 8.79 147.77 14.69 151.94 17.35 147.95"/><polygon class="cls-1" points="127.35 139.27 133.54 143.6 137.36 137.82 131.23 133.6 127.35 139.27"/><path class="cls-1" d="M124.52,128.79a27.2,27.2,0,0,0,6.56-.61,8.33,8.33,0,0,0,3.73-2,10.84,10.84,0,0,0,2.29-3.53,11.35,11.35,0,0,0,.78-4.22A22.69,22.69,0,0,0,137,113a35.93,35.93,0,0,0-2.32-6.39h-.57l-5.82,4.63q1.56,3.18,2.46,5.44a10.86,10.86,0,0,1,.9,3.82,2.34,2.34,0,0,1-.06.64,8.44,8.44,0,0,1-2.19.34c-1.06.08-2.21.12-3.41.12H44.73a28.5,28.5,0,0,1-6-.61c-1.9-.41-4.29-1-7.14-1.94l-3.07-.93-2.14,6.83q3.12.81,4.83,1.44a9.25,9.25,0,0,1,2.43,1.22,1.69,1.69,0,0,1,.72,1.33,8,8,0,0,1-3.26,1.77,30.09,30.09,0,0,1-5.58,1.22,49.58,49.58,0,0,1-6.61.44,20.33,20.33,0,0,1-7-1,6.82,6.82,0,0,1-3.63-2.8,8.78,8.78,0,0,1-1.06-4.49,16.76,16.76,0,0,1,.17-2.2c.12-.81.28-1.74.47-2.77l-.64-.34-6.2,2a26.2,26.2,0,0,0-1,6.59A10.55,10.55,0,0,0,2,133.64,12.76,12.76,0,0,0,7.83,138a26.2,26.2,0,0,0,9.71,1.59A47.66,47.66,0,0,0,29,138.3a21.14,21.14,0,0,0,8.1-3.7,8.82,8.82,0,0,0,3.49-5.78h83.91Z"/><path class="cls-1" d="M157.72,128.18a10.52,10.52,0,0,0,5-3.38,8.6,8.6,0,0,0,1.77-5.44,16.61,16.61,0,0,0-2.69-8.3,53.75,53.75,0,0,0-7.2-9.34H154l-4.45,6.42a51.59,51.59,0,0,1,5.87,6.6,18.83,18.83,0,0,1,3.33,6,9.49,9.49,0,0,1-3.44.87,41.28,41.28,0,0,1-4.75.29c-1.11,0-2.34,0-3.72-.11a17.12,17.12,0,0,1-3-.35l-.4.23-1,7c.78.15,1.94.3,3.5.44s3,.2,4.25.2a22.6,22.6,0,0,0,7.51-1.13"/><polygon class="cls-1" points="191.12 93.2 196.78 97.19 200.49 91.64 194.53 87.6 191.93 91.47 186.32 87.6 182.62 93.03 188.57 97.19 191.12 93.2"/><path class="cls-1" d="M287,122.37a8,8,0,0,1-2.9-.64,19.2,19.2,0,0,1-3.36-1.73,32.66,32.66,0,0,1,2.27-3.67,2.44,2.44,0,0,1,1.87-1.19,2.71,2.71,0,0,1,1.95,1.13,9.83,9.83,0,0,1,1.64,2.75,10.49,10.49,0,0,1,.78,2.83,4.7,4.7,0,0,1-2.25.52m-91.36-4.8v1.1a15.72,15.72,0,0,1-2.89.23,8.71,8.71,0,0,1-3.28-.64,3.25,3.25,0,0,1-2-1.74,5.57,5.57,0,0,1,2.78-2.52,22.89,22.89,0,0,1,5.38-1.94Zm98.08,9.66a9.62,9.62,0,0,0,1.77-6,14.38,14.38,0,0,0-5.43-11.1,8.31,8.31,0,0,0-5.09-1.85,7,7,0,0,0-4.25,1.42,14.41,14.41,0,0,0-3.27,3.3,50.62,50.62,0,0,0-2.77,4.43,22.84,22.84,0,0,1-1.62,2.69,3.66,3.66,0,0,1-1.36,1.15,4.74,4.74,0,0,1-1.88.32H208.38a11.89,11.89,0,0,1-3.39-.37,2.77,2.77,0,0,1-1.65-1.22,5,5,0,0,1-.46-2.4V100.24l-.52-.17-6.71,2.6v2.66a29,29,0,0,0-7.54,3.61,16.83,16.83,0,0,0-4.75,4.63,9,9,0,0,0-1.59,4.89,6.5,6.5,0,0,0,1.24,3.9A8,8,0,0,0,186.6,125a14.73,14.73,0,0,0,5.46.92,16.85,16.85,0,0,0,5.38-.92,8,8,0,0,0,3.73,2.89,15.09,15.09,0,0,0,5.58.93l.12,0v0h61.44a18,18,0,0,0,5.32-.67,8.35,8.35,0,0,0,3.82-2.58,21.83,21.83,0,0,0,5.9,3,18,18,0,0,0,5.44,1,5.9,5.9,0,0,0,4.92-2.32"/><path class="cls-1" d="M310.22,121.56a12.12,12.12,0,0,1-4.39-.57,1.9,1.9,0,0,1-1.33-1.8,4.13,4.13,0,0,1,.48-1.91,4.55,4.55,0,0,1,1.33-1.53,2.94,2.94,0,0,1,1.76-.61A2.84,2.84,0,0,1,310,116a7,7,0,0,1,1.59,2.34,9.11,9.11,0,0,1,.76,3.21Zm30.37,2.49a15.55,15.55,0,0,0,4.16,3.44,9.83,9.83,0,0,0,4.91,1.3,32.2,32.2,0,0,0,6.88-.76,86.15,86.15,0,0,0,9.55-2.77q4.46-1.5,8.41-2.48a53,53,0,0,1,7-1.33l1.85-6.94a16.91,16.91,0,0,1-4.59-1,70.34,70.34,0,0,1-7.14-3.21c-3-1.51-5.23-2.53-6.68-3.07a11.07,11.07,0,0,0-6.88-.47,10.7,10.7,0,0,0-2.46.92L353.09,114l.29.3q1.8-.52,3.33-.81a17.35,17.35,0,0,1,3.33-.29,13.42,13.42,0,0,1,4.07.69,34.45,34.45,0,0,1,5.46,2.49c1.32.66,2.24,1.1,2.78,1.33l-2.26.55c-1.2.29-2.44.63-3.76,1a73.37,73.37,0,0,1-8.36,1.82,48.49,48.49,0,0,1-6.74.44h-.06a6.34,6.34,0,0,1-3.15-.89,14.3,14.3,0,0,1-2.83-2.09c-.83-.79-2-2-3.55-3.61s-2.87-2.92-4.43-4.34-3.44-3-5.64-4.8l12.31-6.13L346.25,91l-.52-.35-20,10.35-1.68,8.1.29.41a81.18,81.18,0,0,1,7.18,5.49,28.91,28.91,0,0,1,4.85,4.91,4.7,4.7,0,0,1-2.57,1.24,26.51,26.51,0,0,1-5.58.44h-6v0l-.11,0h-4a20.73,20.73,0,0,0-1.5-6.73,12.08,12.08,0,0,0-3.42-4.8,7.4,7.4,0,0,0-9.66,0,12.73,12.73,0,0,0-3.46,4.63,13.39,13.39,0,0,0-1.27,5.58,7.4,7.4,0,0,0,2.85,6.24q2.85,2.21,8.6,2.26a11.39,11.39,0,0,1-5.46,3.07,36.72,36.72,0,0,1-8.88,1.1l-.41.64,3.47,5.49a23.64,23.64,0,0,0,8.36-1.36,17.23,17.23,0,0,0,6-3.67A15.45,15.45,0,0,0,317,128.8h3.58l.12,0v0h5.21a48.3,48.3,0,0,0,7.08-.43,14.58,14.58,0,0,0,4.77-1.47,7.38,7.38,0,0,0,2.88-2.85"/><path class="cls-1" d="M9.83,176.61H14.6v4.67a9.61,9.61,0,0,1-3.31.55,5.67,5.67,0,0,1-4.74-1.89c-1-1.25-1.51-3.17-1.51-5.73a8.57,8.57,0,0,1,1.6-5.58,5.86,5.86,0,0,1,4.82-2,10.48,10.48,0,0,1,5.38,1.56l2-3.5a13.09,13.09,0,0,0-3.56-1.57,15.05,15.05,0,0,0-4-.54,13.08,13.08,0,0,0-5.74,1.21,9.09,9.09,0,0,0-4,3.86A13.55,13.55,0,0,0,0,174.42a12.76,12.76,0,0,0,2.63,8.46Q5.26,186,10.9,186a17.29,17.29,0,0,0,4.13-.5,20.5,20.5,0,0,0,4.34-1.67V172.63h-9Z"/><path class="cls-1" d="M39.22,178.46a5.51,5.51,0,0,1-2.15,2.63,6.33,6.33,0,0,1-3.48.92A5.36,5.36,0,0,1,29,180a9.33,9.33,0,0,1-1.56-5.73,8.59,8.59,0,0,1,1.63-5.55,5.73,5.73,0,0,1,4.74-2,5.32,5.32,0,0,1,4.53,2.06,9.29,9.29,0,0,1,1.56,5.73,10.52,10.52,0,0,1-.71,4M40,164.12a11.8,11.8,0,0,0-6.11-1.49,12.91,12.91,0,0,0-5.73,1.26A9.64,9.64,0,0,0,24,167.77a12.45,12.45,0,0,0-1.55,6.49,14,14,0,0,0,1.28,6.14,9.46,9.46,0,0,0,3.79,4.13A11.78,11.78,0,0,0,33.6,186a12.88,12.88,0,0,0,5.73-1.26,9.65,9.65,0,0,0,4.11-3.88A12.55,12.55,0,0,0,45,174.39a14,14,0,0,0-1.27-6.14A9.34,9.34,0,0,0,40,164.12"/><polygon class="cls-1" points="56.88 180.59 51.04 163.11 45.84 163.11 45.84 163.39 54.08 185.53 59.51 185.53 67.71 163.39 67.71 163.11 62.7 163.11 56.88 180.59"/><polygon class="cls-1" points="75.36 176.09 83.62 176.09 84.18 172.14 75.36 172.14 75.36 167.09 85.56 167.09 85.56 163.12 70.58 163.12 70.58 185.53 85.73 185.53 85.73 181.52 75.36 181.52 75.36 176.09"/><path class="cls-1" d="M99.92,172.87a5.7,5.7,0,0,1-3.27.8H94.49v-6.61h2.69a4.5,4.5,0,0,1,2.86.8,2.85,2.85,0,0,1,1,2.39,2.92,2.92,0,0,1-1.14,2.62m5,1.3a7,7,0,0,0,1.18-4.07,6.76,6.76,0,0,0-1-3.58,6.57,6.57,0,0,0-3-2.49,11.87,11.87,0,0,0-5-.92H89.72v22.42h4.77v-8.16h1.89l5.63,8.16h5.49v-.28l-6-8.54a6.84,6.84,0,0,0,3.46-2.54"/><path class="cls-1" d="M125.64,178.23A13.36,13.36,0,0,0,125,177c-.27-.44-.56-.9-.89-1.4s-.53-.81-.63-1l-7.67-11.48H110.5v22.42h4.78V170.38a21.27,21.27,0,0,0,1.22,2.3c.42.68.93,1.48,1.53,2.41l7,10.45h5.33V163.12h-4.77v15.11Z"/><path class="cls-1" d="M149.39,172.94a27.9,27.9,0,0,0-1.95,4.44c-.21-.61-.49-1.3-.83-2.1s-.72-1.57-1.11-2.33l-5.12-9.83h-5v22.42h4.77V171.59a32.58,32.58,0,0,0,1.53,3.35l4,7.82h3.79l3.89-7.82a27.46,27.46,0,0,0,1.53-3.35v13.95h4.77V163.12h-5Z"/><polygon class="cls-1" points="169.27 176.09 177.53 176.09 178.09 172.14 169.27 172.14 169.27 167.09 179.47 167.09 179.47 163.12 164.49 163.12 164.49 185.53 179.64 185.53 179.64 181.52 169.27 181.52 169.27 176.09"/><path class="cls-1" d="M198.75,178.23a13.36,13.36,0,0,0-.68-1.28c-.27-.44-.56-.9-.89-1.4s-.53-.81-.63-1l-7.67-11.48h-5.27v22.42h4.78V170.38a21.27,21.27,0,0,0,1.22,2.3c.42.68.93,1.48,1.53,2.41l7.05,10.45h5.33V163.12h-4.77v15.11Z"/><polygon class="cls-1" points="206.43 167.3 213.59 167.3 213.59 185.54 218.36 185.54 218.36 167.3 225.49 167.3 225.49 163.11 206.43 163.11 206.43 167.3"/><path class="cls-1" d="M251.81,178.46a5.51,5.51,0,0,1-2.15,2.63,6.33,6.33,0,0,1-3.48.92,5.36,5.36,0,0,1-4.56-2.06,9.33,9.33,0,0,1-1.56-5.73,8.59,8.59,0,0,1,1.63-5.55,5.73,5.73,0,0,1,4.74-2A5.33,5.33,0,0,1,251,168.7a9.29,9.29,0,0,1,1.56,5.73,10.52,10.52,0,0,1-.71,4m.72-14.34a11.8,11.8,0,0,0-6.11-1.49,12.91,12.91,0,0,0-5.73,1.26,9.64,9.64,0,0,0-4.13,3.88,12.45,12.45,0,0,0-1.56,6.49,14,14,0,0,0,1.28,6.14,9.46,9.46,0,0,0,3.79,4.13,11.78,11.78,0,0,0,6.1,1.49,12.88,12.88,0,0,0,5.73-1.26,9.65,9.65,0,0,0,4.11-3.88,12.55,12.55,0,0,0,1.54-6.49,14,14,0,0,0-1.27-6.14,9.2,9.2,0,0,0-3.75-4.13"/><polygon class="cls-1" points="261.3 185.53 266.08 185.53 266.08 176.64 274.34 176.64 274.9 172.7 266.08 172.7 266.08 167.09 276.28 167.09 276.28 163.11 261.3 163.11 261.3 185.53"/><path class="cls-1" d="M301.2,178.65a4.66,4.66,0,0,1-2.67,2.1,16,16,0,0,1-4.73.56h-1.59v-14h2.67a10.49,10.49,0,0,1,4,.67,4.76,4.76,0,0,1,2.4,2.2,10.76,10.76,0,0,1-.09,8.45m-6.3-15.54h-7.47v22.42h7.3a15.53,15.53,0,0,0,6.21-1.21,10.16,10.16,0,0,0,4.51-3.73,11,11,0,0,0,1.7-6.26c0-4.09-1.08-7-3.22-8.67s-5.15-2.55-9-2.55"/><path class="cls-1" d="M325.52,176.16a7.11,7.11,0,0,1-1.13,4.17c-.76,1.08-2.07,1.61-3.91,1.61s-3.31-.54-4.09-1.61a7.57,7.57,0,0,1-1.17-4.52v-12.7h-4.78V176.4a11.55,11.55,0,0,0,1,4.93,7.5,7.5,0,0,0,3.16,3.42,11,11,0,0,0,5.57,1.27,13,13,0,0,0,5.24-1,7.75,7.75,0,0,0,3.58-3.15,10.61,10.61,0,0,0,1.32-5.59V163.1h-4.77v13.06Z"/><path class="cls-1" d="M346.1,180.81a4.74,4.74,0,0,1-3.07.78h-3.52v-5.67h3.66a4.54,4.54,0,0,1,2.89.76,2.48,2.48,0,0,1,1,2,2.66,2.66,0,0,1-.92,2.09M339.5,167h3.25a4.19,4.19,0,0,1,2.5.64,2.17,2.17,0,0,1,.86,1.85c0,1.82-1.29,2.74-3.85,2.74h-2.77V167Zm10.64,7.94a6.14,6.14,0,0,0-2.44-1.2,5.38,5.38,0,0,0,2.6-1.92,4.79,4.79,0,0,0,.86-2.75,5.33,5.33,0,0,0-.93-3.13,6.11,6.11,0,0,0-2.78-2.08,12.25,12.25,0,0,0-4.52-.74h-8.2v22.42h8.79a10.19,10.19,0,0,0,6.33-1.71,5.8,5.8,0,0,0,2.22-4.86,5,5,0,0,0-1.93-4"/><path class="cls-1" d="M361.54,176.23l2.81-8.54,2.87,8.54Zm-.17-13.12-8.06,22.14v.28h5.16l1.77-5.36h8.31l1.79,5.36h5.23v-.28l-8.06-22.14Z"/><rect class="cls-1" x="378.6" y="163.12" width="4.77" height="22.41"/><path class="cls-1" d="M418.83,52.46l9.3.33,16.2,15C444.16,74,441.16,79,438,84.22c-1.05,1.74-2.14,3.54-3.14,5.42l-.48.92,0,0-1.53,3.29-.1.21h0a92.51,92.51,0,0,0-4.82,13.45,110.07,110.07,0,0,0-3.81,32.89,123.87,123.87,0,0,0,19.38,62,152.31,152.31,0,0,0,17.66,22.85l.19.2A129.5,129.5,0,0,0,491.52,249C503.39,255.79,526,268,544.2,274l.56.19.56-.19c18.21-6,40.83-18.19,52.68-24.94a129.18,129.18,0,0,0,30.22-23.65l.2-.21a151.22,151.22,0,0,0,17.66-22.84,123.88,123.88,0,0,0,19.39-62,110.39,110.39,0,0,0-3.81-32.89A93.12,93.12,0,0,0,656.83,94l0,0-1.48-3.11-.17-.32h0l-.48-.92c-1-1.88-2.09-3.68-3.14-5.42C648.4,79,645.4,74,645.23,67.8l16.19-15,9.3-.33a1.87,1.87,0,0,0,1.68-1.17l8.29-20.41a1.89,1.89,0,0,0-.36-2h0a1.88,1.88,0,0,0-1.94-.51l-21,6.73a1.87,1.87,0,0,0-1.29,1.58l-1,9.25-28,26-.39-.6c-1.56-2.47-3.18-5.17-4.94-8.28-1.95-3.45-3.83-6.92-5.73-10.47-1.07-2-2.27-4.29-3.56-6.84l2.79.35L604.91,31.47l-7.39-10a62.25,62.25,0,0,0-5.16-5.9l-1-1c-.67-.64-1.24-1.14-1.78-1.59-.24-.2-.49-.41-.74-.6l-.76-.58-1-.71-.53-.34a15.8,15.8,0,0,0-3.16-1.38A15,15,0,0,0,579,8.69a15.27,15.27,0,0,0-2.33.17,9.73,9.73,0,0,0-7.37,6.2,13.9,13.9,0,0,1-5,6.28l-.24.18a12.53,12.53,0,0,1-1.23.81,5.07,5.07,0,0,1-2.27.89l-.4,0a1.37,1.37,0,0,1-.29-.07l-.23-.1c-1.09-.57-1.88-2-2.51-3.39-.9-2-1.68-4-2.44-6.07-.62-1.65-1.18-3.13-1.79-4.6-.09-.23-.2-.49-.32-.73l-.25-.58c-1.91-4-4.51-6.27-8.16-7.2A17.28,17.28,0,0,0,540,0a20.29,20.29,0,0,0-2.24.13,14.74,14.74,0,0,0-1.9.32A7.54,7.54,0,0,0,531.94,3a1.93,1.93,0,0,1-.63.28,10,10,0,0,0-3.55,2,5.75,5.75,0,0,0-1.31,6.54,4.21,4.21,0,0,0,2.27,2.19,5.14,5.14,0,0,1-.67-1.94,6.2,6.2,0,0,1,0-.71l.11,0a6.11,6.11,0,0,0,1.38.41,4.17,4.17,0,0,0,1.06-.13h0a3.39,3.39,0,0,1,.77.26,1,1,0,0,1,.2.14l.35.32L533,13.64a4.36,4.36,0,0,1,.8,1.19,6.81,6.81,0,0,1,.59,4.45,5.24,5.24,0,0,1-2.11,3.27,4.15,4.15,0,0,1-3.43.48l-.27-.1a14.55,14.55,0,0,1-3.31-1.62,14,14,0,0,1-5-6.29,9.72,9.72,0,0,0-7.24-6.15,15,15,0,0,0-6.88.5,15.54,15.54,0,0,0-3.06,1.32c-5.46,3.37-10.83,10.44-11.06,10.74l-3.73,5-3.66,5L474.3,46.05l2.79-.35c-1.34,2.64-2.53,4.94-3.55,6.84-1.73,3.21-3.69,6.86-5.73,10.46-1.83,3.21-3.44,5.92-4.94,8.28l-.38.6-28-26-1-9.25a1.87,1.87,0,0,0-1.29-1.58l-21-6.73a1.86,1.86,0,0,0-2,.51,1.89,1.89,0,0,0-.36,2l8.29,20.41a1.75,1.75,0,0,0,1.63,1.21m62.89-8.84s.61-.09,1.11-.2a18.71,18.71,0,0,0,4.09-1.36l-2.5,2.86,4.58-.7a19,19,0,0,0,3.19-.78,17.71,17.71,0,0,0,3.5-1.64l-.6.78,4.26-.76a18.77,18.77,0,0,0,8.82-4.13l2.82-.44a18.4,18.4,0,0,0,2.56-.58l-1,1.14,3.55.14h.77a17.73,17.73,0,0,0,4.4-.59,14.78,14.78,0,0,1-1.52,1.45l-1.52,1.23,1.44,1.32a6.6,6.6,0,0,0,4.18,1.48,2.36,2.36,0,0,1-.29.65s-1,1.48-1,1.5l.06,0,0,0,1.44.84c.14.07.3.17.48.25a7.66,7.66,0,0,0,.72.27,8.27,8.27,0,0,0,.55,1.75c.42.95,1,1.84,1.42,2.8a11.16,11.16,0,0,1,.82,2.71v0c0,.21.06.41.08.63s.06.51.07.78c0,.42,0,.83,0,1.22,0,0-.22,3-2.74,8.42-2.28,5.34-3.82,8.47-7.23,11.13A19.68,19.68,0,0,1,512.42,79c1.1-2.54,2.19-5.22,3.25-8q.89-2.34,1.74-4.8c1-2.78,1.82-5.5,2.6-8.15,1.18-4,2.15-7.84,3-11.49-.45,1.64-2.67,9.73-5.18,16.58a52.77,52.77,0,0,1-3.23,7.42l-.17.31a17.47,17.47,0,0,1-2.16,3.09,28.68,28.68,0,0,1-8.63,6.64c-1.05.56-1.94,1-2.54,1.23.16-.16.4-.39.68-.68.59-.64,1.86-2,4.05-7.34,1.32-3.19,2.19-6,2.23-6.17.53-1.9.84-3.35,1-4.16,1.33-6,2.79-12.33,3.73-16.38-1.33,5.42-2.68,10-3.86,13.75-2.23,7-4.11,11.65-7.43,15.67-3.61,4.36-6.95,5.61-8.57,6.07A13.13,13.13,0,0,1,491,83c1.27-2.32,2.51-4.75,3.7-7.28.29-.6.56-1.2.83-1.81a142,142,0,0,0,9.28-27.71c.51-2.27.95-4.48,1.34-6.65l-.13.09q-.78,3.38-1.6,6.46A165.62,165.62,0,0,1,498,65.33a45.81,45.81,0,0,1-4.6,9.12A31.42,31.42,0,0,1,490.52,78a34.87,34.87,0,0,1-11.08,8c2-3,4-6.21,5.89-9.71.22-.39.42-.78.63-1.17a135.67,135.67,0,0,0,9.83-23.25,127.78,127.78,0,0,1-6.92,14.64,92.4,92.4,0,0,1-5.31,8.58c-4.06,5.74-7.08,8.09-9,9.22-.34.2-.64.37-.91.5l-.13.07-.82.4c-.32.15-.64.29-1,.41s-.56.22-.83.32c-.73.27-1.41.48-2,.65l-.16,0h0l-.82.21.42-.59,0,0a.61.61,0,0,1,.07-.1l1.07-1.53,1-1.46s0,0,0,0l.47-.7.07-.11c.18-.26.36-.54.55-.83,1.17-1.77,2.63-4,4.19-6.66,1.7-2.87,3.53-6.2,5.25-9.85A89.24,89.24,0,0,0,487,49.14c.09-.44.13-.69.08-.7s-.15.31-.35.94a74.12,74.12,0,0,1-13.17,25.54,59.11,59.11,0,0,1-4.18,4.6l-.71.69h0l-.71.67c-.13.12-.24.24-.37.35l-.93.83c-.48.42-.94.81-1.37,1.16l0,0-.12.1-.66.52-.06,0h0c-.25.2-.5.38-.73.55a0,0,0,0,0,0,0,18,18,0,0,1-4.08,2.41,20.23,20.23,0,0,1-4.47,1.22l.26-.4c.16-.24.28-.43.35-.52,1.2-1.59,2.39-3.22,3.65-5l.72-1s0,0,0,0l.52-.75h0l0,0,.48-.7.09-.12,1-1.54,1-1.48.55-.83.51-.77,0-.06c.4-.61.8-1.22,1.19-1.84,1.75-2.76,3.42-5.58,5-8.42,2.61-4.61,4.67-8.44,5.77-10.52,1.46-2.73,3.3-6.27,5.39-10.46m54.45-20.4A8.29,8.29,0,0,0,537.28,16h0a7.65,7.65,0,0,1-.53,2.63h0a7.92,7.92,0,0,0,.13-1.39,7.52,7.52,0,0,0,0-.82,8.48,8.48,0,0,0-.67-2.33,5.45,5.45,0,0,0-.5-1h0c-.08-.13-.18-.24-.27-.37a7.36,7.36,0,0,0-1-1.14c-.18-.16-.38-.31-.57-.45s-.55-.32-.79-.53a.52.52,0,0,1-.14-.16s0,0,0-.06c-.15-.36.2-.74.2-.74h0v0h0a.94.94,0,0,0-1.13.33,1.83,1.83,0,0,0-1.83-.38h0a.9.9,0,0,1,.17-.24,1,1,0,0,1,.53-.28,5.36,5.36,0,0,1,1.51,0l.38.06h.08l.24,0h0a0,0,0,0,0,0,0h0a3.49,3.49,0,0,0,1.37-.28h.05a7.26,7.26,0,0,1-1.46.09h0a7.53,7.53,0,0,1-1-.28,2.43,2.43,0,0,0-1.14-.12,1.72,1.72,0,0,0-1.38.74,1.27,1.27,0,0,0-.11.28,1.45,1.45,0,0,0-1.59-.14h0a2.83,2.83,0,0,1,.32-.86,4.53,4.53,0,0,1,2.63-2.22,1.74,1.74,0,0,0,.18.33,2.37,2.37,0,0,0,.38.33,2,2,0,0,0,.47.4l.13.06h0l-.19-.24a1.62,1.62,0,0,1-.33-.84.87.87,0,0,1,.32-.74,2,2,0,0,1,.4-.24c.18-.1,1-.51,1-.51h0a2.93,2.93,0,0,0,.15,1h0a3.18,3.18,0,0,1,.52-1.67,4.28,4.28,0,0,1,3-1.48c.37-.06.74-.09,1.12-.13l.46,0c.44,0,.89,0,1.32,0h.4l.45,0,.36,0,.45,0,.25,0,.49.07a12.3,12.3,0,0,1,1.34.29,8.55,8.55,0,0,1,1.65.63,4.8,4.8,0,0,1,.48.3,6.41,6.41,0,0,1,.93.64h0a4.61,4.61,0,0,1,.4.37h0l.16.16h0c.14.15.29.31.43.49s.21.28.32.44l.3.45c.1.16.2.32.3.5l.41.74.1.17q.26.49.54,1.08c.06.11.1.21.16.33l0,.06a15.2,15.2,0,0,0-2.52-2.14h0a15.74,15.74,0,0,1,1.28,1.43l.07.09c.23.29.43.59.65.89l.41.57h0l.26.39,0,.05.43.7c.12.19.2.34.37.66s.29.55.53,1l.13.26.17.36,0,0-.17-.19-.18-.21c-.12-.14-.25-.26-.37-.39s-.49-.46-.65-.6a6.73,6.73,0,0,0-1-.78l.14.21.07.11h0l.27.38.18.29c.11.17.23.34.33.51a26.84,26.84,0,0,1,1.26,2.44L552.51,18c1.12,2.39,1,2.34,1.3,2.88s.45.84.7,1.25.38.61.59.9a10.83,10.83,0,0,0,2.2,2.33,5,5,0,0,0,3.36,1.08,7.73,7.73,0,0,0,3.68-1.3,15.79,15.79,0,0,0,1.74-1.16,17.17,17.17,0,0,0,6.18-7.79A6.54,6.54,0,0,1,577.11,12a11.94,11.94,0,0,1,1.71-.13,12.08,12.08,0,0,1,3.63.55,12.26,12.26,0,0,1,2.42,1.05c4.25,2.63,8.66,8.07,9.8,9.51l.28.37.77,1,2.95,4L600,30.1l.57.77,1.79,2.45L608.46,42h0a17.29,17.29,0,0,1-5.54-1.68A17,17,0,0,1,598.34,37a31.4,31.4,0,0,1-3.64-4.28l-.05-.07c-.35-.48-.73-1-1.12-1.57s-.83-1.24-1.27-1.93a115.56,115.56,0,0,0,7.16,11.58l.41.57a1,1,0,0,1,.09.13l.23.3.09.12.3.38c.17.22.27.33.27.33h0a16.65,16.65,0,0,1-10.57-6.14c-.36-.43-.77-.94-1.21-1.52l-.58-.76c-.4-.53-.83-1.11-1.27-1.72-.22-.31-.45-.62-.67-.95l-.12-.17c-.17-.25-.34-.49-.51-.75-.42-.63-.85-1.28-1.28-2a.21.21,0,0,0,0-.06c-.42-.66-.83-1.35-1.24-2.06s-.83-1.48-1.24-2.25l0-.08c-.07-.13-.13-.27-.2-.41-.32-.62-.63-1.23-.92-1.87h0a151.5,151.5,0,0,0,7,14.2,40.64,40.64,0,0,0,2.57,4.09,17.08,17.08,0,0,1-8.08-3.81h0l-.23-.22c-.27-.24-.53-.49-.78-.74l-.87-.9c-.74-.78-.28-.28-2.34-2.49-1.09-1.18-3.18-3.44-5.88-6.38.47.95,1,1.93,1.59,2.95.32.54.65,1.09,1,1.65s.84,1.27,1.28,1.91c.14.2.26.4.4.6h0c.74,1,1.49,2,2.23,2.87h0a16.64,16.64,0,0,1-9.68-5.08l.09.14c.29.44.57.85.83,1.23l.19.26c.5.72,1,1.36,1.34,1.88q.81,1.08,1.26,1.62h0c.3.37.48.57.52.62h-.7a16.62,16.62,0,0,1-9.44-3.11s.09.17.25.44l.25.42c.23.38.53.86.89,1.39q.33.49.72,1a20.53,20.53,0,0,0,3.39,3.69h0a5.3,5.3,0,0,1-4.55.89,3.82,3.82,0,0,0-.22,1.62,3.49,3.49,0,0,0,.09.6,3.1,3.1,0,0,0,.25.69c0,.07.07.12.1.18a3,3,0,0,0,.19.32l-.33.17a4.12,4.12,0,0,1-.54.2l-.07,0a3.35,3.35,0,0,1-.92.1,7,7,0,0,1-.58,2.57,7.29,7.29,0,0,1-.87,1.46h0a2.85,2.85,0,0,0-.16-1.26l-.11-.22-.05-.11a1.66,1.66,0,0,0-.23-.31,2,2,0,0,0-.57-.44,27.13,27.13,0,0,1-.91,4.4,15.29,15.29,0,0,1-.51,1.47,8,8,0,0,0-.37,1.22.06.06,0,0,0,0,0l0,.15a9.32,9.32,0,0,0-.14,1.14c0,.24,0,.48,0,.71a12.07,12.07,0,0,0,.23,2.28c.06.33.13.61.19.85,0,.07.15.61.34,1.18s.37,1,.55,1.39a26.09,26.09,0,0,1,1.17,3l.09.27a43.24,43.24,0,0,1,1.69,9.06,11,11,0,0,0,.68,3.22l0,0h0a5.09,5.09,0,0,1-1.51-.9,4.84,4.84,0,0,1-.82-.93,4.38,4.38,0,0,1-.42-.76h0a7.39,7.39,0,0,0,.89,2.66c.07.12.14.21.2.32s.23.31.35.46a7.22,7.22,0,0,0,1,1.07h0c.08,1.64.15,3.3.22,5,.06,1.5.1,3,.13,4.43L562,87.09l-.37-.41-.28-.31L561,86l-.26-.29L560,88.48h0l-1.25-2.22h0l0,.06-.24.57-.21.48-.3.71-.34.82h0l-.28-1-.75-2.65a24,24,0,0,0-1.42-3.82c-.2-.49-.44-1.14-.67-1.91a20.8,20.8,0,0,1-.67-3.25,23.94,23.94,0,0,1-.16-2.64h0a11,11,0,0,0-.45,4.68s0,0-.08-.06l0,0h0a6.54,6.54,0,0,1-.93-.91,7,7,0,0,1-.49-.66,4.92,4.92,0,0,1-.41-.89c-.12-.29-.32-.62-.39-.85h0a2.58,2.58,0,0,0,0,2.32s-2.88-1-5.61,2.52c-.18.21-.36.42-.53.64l0,0,0,0-.53-.64c-2.73-3.47-5.61-2.52-5.61-2.52h0a2.48,2.48,0,0,0,.26-1.57v-.06c0-.1,0-.18-.06-.26a0,0,0,0,0,0,0c0-.08,0-.15-.07-.21h0a.72.72,0,0,0-.07-.15s0,0,0,0a0,0,0,0,0,0,0h0a6.88,6.88,0,0,1-1.29,2.4,6.06,6.06,0,0,1-.93.91h0l0,0s-.07,0-.08.06h0c0-.42,0-.71,0-1.07s0-.78,0-1.07-.07-.67-.11-1,0-.35,0-.48h0a5.5,5.5,0,0,0-.29-1.09h0a23.94,23.94,0,0,1-.16,2.64,18.88,18.88,0,0,1-.67,3.25c-.23.77-.46,1.41-.66,1.91a23.09,23.09,0,0,0-1.42,3.82l-1,3.66h0l-.34-.82-.3-.71L531,86.9l-.24-.57v0h0l-1.25,2.22h0l-.69-2.81-.26.29-.37.41-.28.31-.37.41-1.15,1.27h0c0-1.46.08-2.94.13-4.43.06-1.69.14-3.35.22-5a7.16,7.16,0,0,0,2.41-4.51h0a4.9,4.9,0,0,1-2.76,2.59h0a9.26,9.26,0,0,0,.7-3.26,43.38,43.38,0,0,1,1.7-9.06l.08-.27a25.42,25.42,0,0,1,1.17-3A14.39,14.39,0,0,0,530.6,60c.19-.56.33-1.11.35-1.18.06-.24.12-.52.19-.85a12.07,12.07,0,0,0,.23-2.28c0-.23,0-.46,0-.71a7.87,7.87,0,0,0-.14-1.14q0-.09,0-.15a.06.06,0,0,0,0,0h0v0h0a7.08,7.08,0,0,0-.37-1.2c-.14-.36-.3-.79-.51-1.47a27.11,27.11,0,0,1-.9-4.4h0a2,2,0,0,0-.57.44,2.16,2.16,0,0,0-.39.64,2.92,2.92,0,0,0-.17,1.26l0,0h0c-.14-.18-.29-.4-.44-.64a7.78,7.78,0,0,1-.43-.82h0c-.09-.2-.11-.38-.18-.57s-.12-.45-.18-.68-.09-.34-.12-.48a4.85,4.85,0,0,1-.1-.84h0a3.25,3.25,0,0,1-.91-.1l-.08,0a3.65,3.65,0,0,1-.54-.2l-.33-.17h0a3.81,3.81,0,0,0,.53-1.19,4.6,4.6,0,0,0,.09-.6,3.79,3.79,0,0,0-.22-1.62,5.34,5.34,0,0,1-4.55-.89h0a24.07,24.07,0,0,0,4.88-5.91l-.3.49.3-.49.05-.08,0,0,0,0,.2-.33a.08.08,0,0,0,0,0,.74.74,0,0,1,.08-.13l0,.09.06-.11a.56.56,0,0,1,0-.08.43.43,0,0,1,0-.07s0,0,0,0a.75.75,0,0,0,.07-.12l0-.06,0,0,.07-.13h0a16.62,16.62,0,0,1-9.43,3.11h-.7c.1-.11.87-1,2.16-2.78l.21-.29-.2.28.51-.7a2.43,2.43,0,0,0-.14.2l.15-.21c.39-.55.83-1.18,1.3-1.89L520,31l.18-.27s0,0,0,0l.16-.23h0l-.15.22.15-.22A17.16,17.16,0,0,1,513.25,35a17.7,17.7,0,0,1-2.54.59h0c.74-.88,1.49-1.84,2.23-2.87a48.77,48.77,0,0,0,4.27-7.11h0c-2.7,2.94-4.78,5.19-5.88,6.37-2,2.14-1.59,1.71-2.33,2.49l-.87.9c-.32.34-.66.66-1,1A17.07,17.07,0,0,1,499,40.12h0A41.48,41.48,0,0,0,501.6,36a150.72,150.72,0,0,0,7-14.21l0,0h0c-.17.38-.35.75-.53,1.11,0,0,0,0,0,0a73.73,73.73,0,0,1-8.74,13.36,17.2,17.2,0,0,1-7.67,5.43,16.38,16.38,0,0,1-2.9.71h0s3.13-3.59,8.56-13.41c0,0,0,0,0,0A41.24,41.24,0,0,1,491.21,37a17.27,17.27,0,0,1-4.57,3.33,18.18,18.18,0,0,1-2.75,1.09,16.43,16.43,0,0,1-2.8.59h0l6.15-8.66L489,30.85l1.84-2.5,3.72-5s5.16-6.83,10.08-9.88a12.26,12.26,0,0,1,2.42-1,12.12,12.12,0,0,1,3.63-.55,11.94,11.94,0,0,1,1.71.13,6.49,6.49,0,0,1,4.08,2.67,6.92,6.92,0,0,1,.77,1.48,17.53,17.53,0,0,0,.87,1.87c.15.28.33.58.52.88s.26.42.41.63a17,17,0,0,0,4.38,4.4,18.49,18.49,0,0,0,4,2l.39.14a7.17,7.17,0,0,0,6.94-1.37,6.28,6.28,0,0,0,1.36-1.45m38-9.74a6.42,6.42,0,0,1,3-1.45,6.47,6.47,0,0,0-3,1.45m39.09,40.61c1.11,2.08,3.16,5.91,5.77,10.52,1.61,2.84,3.27,5.66,5,8.42.39.62.79,1.23,1.19,1.84l0,.06.52.78.55.83,1,1.48,1.05,1.54.09.13.48.69,0,.06.52.75h0l.72,1c1.25,1.77,2.45,3.4,3.65,5,.07.09.19.28.35.52l.26.4A19.49,19.49,0,0,1,630,86.93a18,18,0,0,1-4.08-2.41h0l-.73-.56h0l-.06,0-.65-.52-.12-.1-.05,0c-.43-.35-.88-.74-1.36-1.16l-.93-.83-.37-.35-.72-.68h0l-.71-.69a59.11,59.11,0,0,1-4.18-4.6A74.12,74.12,0,0,1,602.86,49.4c-.19-.62-.3-1-.35-.94s0,.26.08.7a89.24,89.24,0,0,0,5.93,15.93c1.72,3.65,3.55,7,5.25,9.85,1.56,2.64,3,4.9,4.2,6.67l.56.83.07.11.47.7,0,0c.35.53.68,1,1,1.46s.75,1.09,1.07,1.53l.07.09,0,0,.41.58-.81-.21h0l-.16,0c-.61-.17-1.29-.38-2-.65l-.84-.33c-.31-.13-.62-.26-.94-.41l-.82-.4-.13-.07c-.27-.14-.57-.3-.91-.5-1.9-1.13-4.92-3.48-9-9.22a92.4,92.4,0,0,1-5.31-8.58,127.78,127.78,0,0,1-6.92-14.64,135.67,135.67,0,0,0,9.83,23.25l.63,1.17c1.93,3.5,3.91,6.73,5.89,9.71a34.87,34.87,0,0,1-11.08-8,30.58,30.58,0,0,1-2.86-3.59,46.62,46.62,0,0,1-4.6-9.12,168.21,168.21,0,0,1-6.42-19.28c-.55-2-1.09-4.2-1.6-6.46l-.13-.09q.57,3.25,1.33,6.65a141.6,141.6,0,0,0,9.28,27.71c.27.6.54,1.2.83,1.81,1.19,2.53,2.43,5,3.7,7.28a14.59,14.59,0,0,1-1.94-.4c-1.61-.45-5-1.71-8.56-6.07-3.33-4-5.21-8.66-7.44-15.67-1.18-3.71-2.53-8.33-3.86-13.75.94,4.05,2.4,10.37,3.73,16.38.18.8.5,2.25,1,4.16,0,.15.91,3,2.23,6.17,2.19,5.3,3.46,6.7,4.05,7.34.28.3.52.52.68.68-.59-.26-1.49-.67-2.54-1.23a28.68,28.68,0,0,1-8.63-6.64,17.47,17.47,0,0,1-2.16-3.09,3.07,3.07,0,0,1-.17-.31,55.22,55.22,0,0,1-3.23-7.42c-2.51-6.85-4.74-14.94-5.18-16.58.81,3.64,1.79,7.49,3,11.49.78,2.65,1.64,5.37,2.6,8.15q.86,2.46,1.74,4.8c1.06,2.8,2.15,5.48,3.25,8a19.68,19.68,0,0,1-5.85-3.11c-3.41-2.66-4.95-5.79-7.23-11.13-2.53-5.43-2.75-8.42-2.75-8.42,0-.39,0-.8,0-1.22s0-.53.06-.78,0-.42.08-.63v0a11.32,11.32,0,0,1,.83-2.71c.42-1,1-1.86,1.42-2.8a8.27,8.27,0,0,0,.55-1.75,7.66,7.66,0,0,0,.72-.27,4.22,4.22,0,0,0,.48-.25l1.44-.84.05,0,.06,0s-1-1.5-1-1.5a2.09,2.09,0,0,1-.29-.65,6.53,6.53,0,0,0,4.18-1.48l1.44-1.32-1.52-1.23a14.78,14.78,0,0,1-1.52-1.45,17.21,17.21,0,0,0,4.4.59h.77l3.55-.14-1-1.14a20,20,0,0,0,2.56.58l2.82.44a18.82,18.82,0,0,0,8.82,4.13l4.26.76-.6-.78a17.16,17.16,0,0,0,3.5,1.64,19,19,0,0,0,3.19.78l4.58.7-2.5-2.86a19.07,19.07,0,0,0,4.09,1.36c.5.11,1.11.2,1.11.2,2.07,4.17,3.91,7.71,5.37,10.45m45.27,54.27a106.76,106.76,0,0,1,3.69,31.9,120.52,120.52,0,0,1-18.88,60.32A147.3,147.3,0,0,1,626,222.91l-.2.21a126,126,0,0,1-29.45,23c-11.62,6.61-33.73,18.57-51.6,24.51-17.87-5.95-40-17.9-51.61-24.51a125.83,125.83,0,0,1-29.45-23l-.2-.2a149.19,149.19,0,0,1-17.27-22.34,120.51,120.51,0,0,1-18.88-60.31,106.76,106.76,0,0,1,3.69-31.9,91.45,91.45,0,0,1,4.24-12.08l48.09,50.18c-.35,1.78-.65,3.62-.92,5.49-3.1-7-4.95-9-5.31-9.32a1.92,1.92,0,0,0-1.76-.46A1.89,1.89,0,0,0,474,143.4c-.07.19-1.6,4.62.87,10.47,2.12,5,4.95,7.5,6.57,8.33-.1,2-.15,3.85-.15,5.56,0,.62,0,1.23,0,1.85-4.83-7-7.23-8.59-7.49-8.76a1.91,1.91,0,0,0-2.9,1.35c0,.2-.67,4.84,2.9,10.1,3,4.45,6.35,6.35,8.05,6.87.24,2.33.55,4.67.94,7-4.86-6-7.19-7.46-7.63-7.7a1.9,1.9,0,0,0-2.8,1.54,15.28,15.28,0,0,0,3.58,9.88c3.65,4.66,7.34,6.2,9.05,6.4.61,2.27,1.29,4.51,2,6.69-5.1-4.09-7.34-4.92-7.78-5.05a1.9,1.9,0,0,0-2.44,2.05c0,.2.59,4.82,5.45,9,4.41,3.78,8.09,4.4,9.14,4.5a74.23,74.23,0,0,0,3.87,6.74c-6.78-2.86-9.48-3.05-10-3.06a1.9,1.9,0,0,0-1.6.86,1.93,1.93,0,0,0-.15,1.82,15.4,15.4,0,0,0,7.79,7,20.72,20.72,0,0,0,7,1.84,11.93,11.93,0,0,0,3-.14l.44.55c1,1.22,2.07,2.46,3.19,3.7-5.65-1.67-7.93-1.64-8.38-1.61a1.9,1.9,0,0,0-1.52,1,1.92,1.92,0,0,0,0,1.82,15.36,15.36,0,0,0,8.38,6.33,22.11,22.11,0,0,0,4.49,1.07,18.55,18.55,0,0,0,2.32.15,12.6,12.6,0,0,0,3.23-.38c1.82,1.59,3.66,3.1,5.54,4.54l1.15.87c-7.41-.94-10-.34-10.3-.26a1.94,1.94,0,0,0-1.31,1.26,1.87,1.87,0,0,0,.34,1.78,15.35,15.35,0,0,0,9.39,4.7,23.5,23.5,0,0,0,4.61.24,12.88,12.88,0,0,0,6-1.6c1.64,1.06,3.11,2,4.49,2.81a22.28,22.28,0,0,0,11.16,3.31h.24a22.14,22.14,0,0,0,11-3.28c1.36-.82,2.84-1.74,4.51-2.83a13,13,0,0,0,6,1.58,22.72,22.72,0,0,0,4.61-.24,15.31,15.31,0,0,0,9.39-4.7,1.91,1.91,0,0,0-1-3.05c-.11,0-2.63-.72-10.26.25l1.22-.92c1.81-1.38,3.65-2.89,5.46-4.48a12.54,12.54,0,0,0,3.21.38,18.55,18.55,0,0,0,2.32-.15,23.52,23.52,0,0,0,4.49-1.07,15.31,15.31,0,0,0,8.38-6.33,1.91,1.91,0,0,0-1.52-2.82c-.43,0-2.71-.06-8.32,1.6,1.13-1.25,2.19-2.49,3.18-3.69.14-.17.27-.33.39-.5l0-.05a11.83,11.83,0,0,0,3,.13,20.66,20.66,0,0,0,7-1.84c5.82-2.59,7.72-6.87,7.79-7a1.91,1.91,0,0,0-1.77-2.68c-.31,0-3,.13-9.92,3a74.85,74.85,0,0,0,3.85-6.73c1.11-.11,4.75-.76,9.11-4.5a15.29,15.29,0,0,0,5.45-9,1.91,1.91,0,0,0-.66-1.69,1.89,1.89,0,0,0-1.78-.37c-.26.08-2.51.83-7.74,5,.75-2.17,1.43-4.4,2-6.65,1.52-.14,5.29-1.65,9-6.41a15.37,15.37,0,0,0,3.58-9.88,1.92,1.92,0,0,0-2.81-1.54c-.44.24-2.75,1.66-7.59,7.65q.57-3.45.93-6.95c1.7-.53,5-2.45,8-6.86,3.58-5.27,2.94-9.91,2.91-10.1a1.9,1.9,0,0,0-2.89-1.35c-.26.16-2.63,1.73-7.46,8.71,0-.6,0-1.2,0-1.8,0-1.8,0-3.67-.14-5.59,1.61-.86,4.43-3.36,6.53-8.31a15.35,15.35,0,0,0,.87-10.47,1.91,1.91,0,0,0-3.1-.75c-.36.33-2.2,2.28-5.27,9.23-.26-1.84-.57-3.66-.92-5.44l48.05-50.13a86.35,86.35,0,0,1,4.29,12.1m-211-38,10.1,9.38-.29.41-.29.42c-1.76,2.51-3.75,5.37-6.36,9.11L449,92l2.83-.43,3.73-.56a22.55,22.55,0,0,0,5.12-1.39,16.63,16.63,0,0,0,2.83-1.47l-.54.76L461,91.58l3.19-.75,4.17-1,.05,0,26.24,24.38a8,8,0,0,0-.14,2c-.86,1.47-1.69,3-2.5,4.62-1.65-8.26-3.2-10.64-3.37-10.89a1.91,1.91,0,0,0-1.62-.82,1.88,1.88,0,0,0-1.35.62l-.23.3a15.29,15.29,0,0,0-1.34,10.41,17.87,17.87,0,0,0,4.12,9c-.91,2.38-1.73,4.79-2.45,7.19-3.5-8.31-5.63-10.47-5.87-10.69a1.91,1.91,0,0,0-3.11.76,15,15,0,0,0,.22,8.75L436.67,93.31c.34-.7.71-1.4,1.09-2.12,1-1.8,2-3.56,3.06-5.27,2.87-4.74,5.83-9.64,6.63-15.59m25,18.23c.87-.31,1.7-.62,2.38-.9l-.94,1.41-.34.51Zm15.42-2.24a17.62,17.62,0,0,0,5.89-1c.36-.13.72-.26,1.06-.41l-.51.56,3-.15a18.07,18.07,0,0,0,2.37-.28,18.71,18.71,0,0,0,5-1.76h.08l.35-.23a32.87,32.87,0,0,0,2.9-1.75l-1.63,2.58,3.18-1,2.88-.88.88-.27A22.37,22.37,0,0,0,520,78.21a21.18,21.18,0,0,0,4.2-4.52c-.15,1.63-.26,3.25-.37,4.85l0,.61c-.1,1.75-.16,3.28-.21,4.78s-.09,3-.13,4.48l-.1,4.49,0,1.94a1.45,1.45,0,0,1-.46.41,3.3,3.3,0,0,1-.78.19,4.34,4.34,0,0,0-1.72.55c-1.71,1.07-2,3.56-1.53,5.42a4.38,4.38,0,0,0,.2.58c-.32.25-.54.44-.54.44l-.28.27a59.82,59.82,0,0,0-10.94,11.18l-2.55-2.36c5-6.3,5.85-8.94,6-9.42a2,2,0,0,0-.47-1.89,2,2,0,0,0-1.81-.63c-.21,0-5.14.8-9.4,6l-.29.36L480.3,88.86l.32-.15a39.88,39.88,0,0,0,5.58-3.14l-.41.76Zm42.94,7.35a2.81,2.81,0,0,0,2.35.92,2.58,2.58,0,0,1,1.57.37h0l-.22.05a15.26,15.26,0,0,0-3.66,1.54c-.07,0-.18,0-.24.09a9.31,9.31,0,0,0-2,1.41h0l-.34.33a1.14,1.14,0,0,0-.11.11l-.09.1a.89.89,0,0,0-.25.4.83.83,0,0,0,0,.22h0a.52.52,0,0,0,0,.21h0a1.15,1.15,0,0,0,.29.46l.29.23a1.41,1.41,0,0,1,.18.14.8.8,0,0,1,.26.64.61.61,0,0,1-.14.24,1.54,1.54,0,0,0-.23.43,1.64,1.64,0,0,0-.42-.06.82.82,0,0,0-.59.21.94.94,0,0,0-.14.19,3,3,0,0,1-.64-.47,1.5,1.5,0,0,1-.3-.36,1.43,1.43,0,0,1-.13-.29,1.77,1.77,0,0,1-.09-.51h0a.44.44,0,0,1,0-.16,2,2,0,0,1,.75-.87,4,4,0,0,0,.78-.76h0a8.79,8.79,0,0,0,.73-1.31s0,0,0,0a10.18,10.18,0,0,0,.52-1.44.36.36,0,0,0,0-.29.39.39,0,0,0-.23-.19h-.11a.38.38,0,0,0-.37.29,8.9,8.9,0,0,1-.93,2.18l0,0-.22.35a3.21,3.21,0,0,1-.62.59,3.26,3.26,0,0,0-.88.93,1.51,1.51,0,0,0-.15.37,1.89,1.89,0,0,0,0,.75h0l.06.28a1.46,1.46,0,0,1,.06.7.68.68,0,0,1-.6.45h-.09a1.16,1.16,0,0,0-.39.06,1.54,1.54,0,0,0-.49-.64h0a.67.67,0,0,0-.29-.12h-.08a.52.52,0,0,0-.24,0,3.24,3.24,0,0,1-.08-.56v0a2.91,2.91,0,0,1,0-1s0,0,0-.07,0,0,0,0a1.27,1.27,0,0,1,.29-.67,1.89,1.89,0,0,1,.75-.41,4.42,4.42,0,0,0,1.65-1,4.7,4.7,0,0,0,1.32-3.57.39.39,0,0,0-.39-.38.36.36,0,0,0-.28.12.43.43,0,0,0-.11.28,4,4,0,0,1-1.08,3,4.51,4.51,0,0,1-.94.67,2.77,2.77,0,0,1-.43.18,2.43,2.43,0,0,0-1.11.67,2.17,2.17,0,0,0-.38,1.18c0,.16,0,.32-.07.45a.06.06,0,0,1,0,0,.65.65,0,0,1,0,.13,1.63,1.63,0,0,1-.48.63.9.9,0,0,1-.34.22h0c0-.15,0-.3,0-.43v0c0-1-.11-1.58-.49-1.78A.64.64,0,0,0,521,99v-.11a2,2,0,0,1,.23-.89,1,1,0,0,1,.65-.44,6.15,6.15,0,0,0,2.75-1.07,6.85,6.85,0,0,0,1.39-2l.24-.45a20.85,20.85,0,0,0,2-5.1l.83,3.41L530.37,90l0,.51a4.75,4.75,0,0,0,.49,3.15M555.89,88l1.57,4c.25-.42.5-.84.74-1.26l0,0a2.78,2.78,0,0,1-.36,2.2c-.92,1.07-2.68.33-3.95,1.7l-.05.06-.32-.08c-.32-.07-.65-.1-1-.17-1.15-.27-2.33-.56-3.4-.72l-1.13-4.64.38.82.08.15c.08.18.16.33.23.46a5.46,5.46,0,0,0,.65,1.11A4,4,0,0,0,551.16,93a3.48,3.48,0,0,0,1.71.15l-.75-2.43-.24-.76-.24-.77A7.48,7.48,0,0,0,553,91.31a3.28,3.28,0,0,0,2.39,1.11,3.58,3.58,0,0,0,1-.14c-.16-.47-.32-1-.49-1.42-.1-.31-.21-.61-.32-.92l-3.67-10.71a8.53,8.53,0,0,1,1.66,2.53,20.84,20.84,0,0,1,.85,2c.51,1.41.93,2.86,1.47,4.26m-.29-5.62c.2.49.4,1,.61,1.63-.21-.6-.41-1.14-.61-1.63m3.59,8.09-.05-.51,1.33,2.37.83-3.41a21.1,21.1,0,0,0,2,5.1l.24.45a6.85,6.85,0,0,0,1.39,2,6.26,6.26,0,0,0,2.76,1.07.94.94,0,0,1,.65.44,2.14,2.14,0,0,1,.23.89V99a.53.53,0,0,0-.28.07c-.39.2-.54.77-.49,1.83q0,.19,0,.42h0a1,1,0,0,1-.34-.22,1.8,1.8,0,0,1-.33-.36.83.83,0,0,1-.14-.26.64.64,0,0,1,0-.07.06.06,0,0,0,0,0,3.59,3.59,0,0,1-.09-.51,2.09,2.09,0,0,0-.38-1.18,2.36,2.36,0,0,0-1.11-.66,2.77,2.77,0,0,1-.43-.18,4.17,4.17,0,0,1-.94-.67,4,4,0,0,1-1.08-3,.43.43,0,0,0-.11-.28.4.4,0,0,0-.28-.12.38.38,0,0,0-.39.38,4.65,4.65,0,0,0,1.32,3.56,4.7,4.7,0,0,0,1.12.8,4.38,4.38,0,0,0,.54.23,2,2,0,0,1,.75.41,1.51,1.51,0,0,1,.31.73s0,0,0,0h0a2.85,2.85,0,0,1,0,1s0,.05,0,.07c0,.21-.06.38-.08.51a.69.69,0,0,0-.24-.05h-.08a.7.7,0,0,0-.33.15h0a1.67,1.67,0,0,0-.46.62,1.23,1.23,0,0,0-.39-.06h-.09a.68.68,0,0,1-.6-.45,1.45,1.45,0,0,1,.06-.7c0-.07,0-.16,0-.24h0a1.71,1.71,0,0,0,0-.78,1.42,1.42,0,0,0-.11-.31,3.09,3.09,0,0,0-.91-1,3.21,3.21,0,0,1-.62-.59l-.18-.28s0,0,0,0a8.7,8.7,0,0,1-1-2.24.38.38,0,0,0-.37-.29h-.11a.36.36,0,0,0-.23.19.38.38,0,0,0,0,.29,9.86,9.86,0,0,0,.55,1.5s0,0,0,0a9.65,9.65,0,0,0,.7,1.26l0,.06a4,4,0,0,0,.73.7c.35.28.68.54.75.87a1.49,1.49,0,0,1,0,.21h0a1.85,1.85,0,0,1-.09.47,1.78,1.78,0,0,1-.13.29,1.5,1.5,0,0,1-.3.36,3.66,3.66,0,0,1-.64.47.67.67,0,0,0-.14-.19.8.8,0,0,0-.59-.21,1.64,1.64,0,0,0-.42.06,1.56,1.56,0,0,0-.23-.43.69.69,0,0,1-.14-.24.8.8,0,0,1,.26-.64l.18-.14.29-.23a1.08,1.08,0,0,0,.27-.42h0s0-.07,0-.11a.83.83,0,0,0,0-.35v0a.84.84,0,0,0-.15-.3,1.23,1.23,0,0,0-.19-.2l-.18-.17-.18-.17-.2-.17a4.94,4.94,0,0,0-.92-.77l-.05,0a.91.91,0,0,0-.17-.09,17,17,0,0,0-4.67-2l-.22-.05,0,0h0a2.51,2.51,0,0,1,1.61-.4,2.84,2.84,0,0,0,2.35-.92,4.63,4.63,0,0,0,.48-3.19m22.38-9.12c1.1.73,2.11,1.34,3,1.82a19.18,19.18,0,0,0,5.27,1.91,17.19,17.19,0,0,0,2.38.29l3,.15-.51-.56,1.06.41a17.59,17.59,0,0,0,5.82,1h2.08l-.41-.81a39.82,39.82,0,0,0,5.64,3.19l.32.15L590.79,106c-.09-.12-.19-.24-.29-.35-4.26-5.22-9.2-6-9.4-6a2.06,2.06,0,0,0-1.82.63,2,2,0,0,0-.47,1.88c0,.11.76,2.8,6,9.43l-2.55,2.36a59.51,59.51,0,0,0-10.36-10.71v0l-.36-.31-1.07-.86a4.29,4.29,0,0,0,.21-.61c.45-1.86.17-4.36-1.53-5.42a4.39,4.39,0,0,0-1.72-.55,3.06,3.06,0,0,1-.78-.19,1.56,1.56,0,0,1-.46-.41l0-1.9L566,88.4c0-1.49-.08-3-.13-4.48s-.12-3-.2-4.55l-.05-.82c-.11-1.61-.22-3.24-.37-4.87a21.16,21.16,0,0,0,4.2,4.52,22.53,22.53,0,0,0,6.73,3.58l3.8,1.16,3.18,1Zm33.81,9.1-21.73,20.25-.06-.12c-.38-.78-.72-1.47-1-1.94l20-18.52c.5.09,1.06.18,1.75.24ZM615,87.87l.07-.07a21.93,21.93,0,0,0,2.15.92l-.94.94-.95-1.45c-.11-.1-.22-.22-.33-.34M588.78,204c-.68,1.63-1.46,3.26-2.35,4.95a14.41,14.41,0,0,0-.78,1.44,78.33,78.33,0,0,1-7.59,10.93,89.47,89.47,0,0,1-15,14.5l-.13.1c-1.89,1.44-3.54,2.61-4.34,3.18-1.48,1-3,2.06-4.45,3-1.66,1.08-3,1.95-4.32,2.72,0-.1,0-.2,0-.3-.1-1-.17-2-.22-2.93l0-.56c0-.27,0-.51,0-.83l0-.52c0-.2,0-.38,0-.49s0-.32,0-.47l0-.32c-.84-9.76-1.13-19.76-1.41-29.49l0-.74c.22-1.23.38-2.17.53-3.27.05-.39.1-.76.14-1.1,4.75,6.91,3.49,21.78,3.47,21.94a1.08,1.08,0,0,0,1.92.77c5.29-6.64,5.31-12.61,3.6-17.27a30.71,30.71,0,0,1,4.6,11.8,1.08,1.08,0,0,0,.94.92,1.06,1.06,0,0,0,1.13-.67c0-.13,4.41-11.47-4.76-19.65,3.74,1.56,7.85,4.16,9,8.32a1.15,1.15,0,0,0,1.07.79,1.08,1.08,0,0,0,1-.86,12.71,12.71,0,0,0-2.21-9.24c-2.22-3.13-5.84-5.34-10.77-6.58a12.36,12.36,0,0,1,11.6,2.91,1.08,1.08,0,0,0,1.78-1,8.93,8.93,0,0,0-4.09-5.6c-3.11-2-7.46-2.54-13-1.65,3.08-1.89,7.44-3.58,11.83-1.94a1.08,1.08,0,0,0,1.26-1.62c-.55-.8-5.58-7.42-17.27-1.34a9.81,9.81,0,0,1,6.08-6.14,1.07,1.07,0,0,0,.69-1.11,1.09,1.09,0,0,0-.91-1,10.45,10.45,0,0,0-10.81,5.61c-3.42-6.68-10.5-5.65-10.84-5.61a1.08,1.08,0,0,0-.19,2.07,9.79,9.79,0,0,1,6.08,6.14c-11.67-6.08-16.72.54-17.28,1.34a1.08,1.08,0,0,0,0,1.27,1.06,1.06,0,0,0,1.22.35c4.4-1.61,8.76.06,11.83,1.94-5.49-.89-9.83-.34-13,1.65a8.88,8.88,0,0,0-4.09,5.6,1.08,1.08,0,0,0,1.79,1,12.34,12.34,0,0,1,11.6-2.91c-4.94,1.24-8.55,3.45-10.77,6.58a12.7,12.7,0,0,0-2.21,9.24,1.1,1.1,0,0,0,1.12.86,1.14,1.14,0,0,0,1-.79c1.11-4.14,5.21-6.75,8.95-8.31-9.23,8.21-4.79,19.51-4.74,19.63a1.11,1.11,0,0,0,1.14.67,1.07,1.07,0,0,0,.93-.93,30.81,30.81,0,0,1,4.6-11.79c-1.71,4.66-1.68,10.62,3.6,17.26a1.07,1.07,0,0,0,1.24.33,1.06,1.06,0,0,0,.67-1.1c0-.16-1.27-15,3.48-21.94,0,.33.09.71.14,1.1.16,1.17.32,2.12.52,3.15l0,.91c-.28,9.68-.56,19.68-1.41,29.46l0,.35c0,.14,0,.28,0,.36s0,.36,0,.46l0,.65c0,.25,0,.51,0,.81l0,.67c-.06.86-.12,1.79-.22,2.81a2.29,2.29,0,0,1,0,.25c-1.25-.75-2.59-1.59-4.28-2.7-1.47-1-3-2-4.46-3s-3-2.13-4.41-3.23a89.51,89.51,0,0,1-15.09-14.55,79,79,0,0,1-7.54-10.84,16.28,16.28,0,0,0-.82-1.52c-.91-1.7-1.68-3.32-2.36-5a90.67,90.67,0,0,1-6.15-23.31,14,14,0,0,0-.31-2.72c-.17-1.71-.31-3.43-.39-5.14H595.64c-.09,1.72-.22,3.46-.39,5.14a14.21,14.21,0,0,0-.29,2.53A91,91,0,0,1,588.78,204m.72,16.2a12.05,12.05,0,0,1-.18,1.78c-.5.71-1,1.41-1.46,2-.21.17-.4.34-.56.48a17.84,17.84,0,0,1-1.12-7.13,15.4,15.4,0,0,1,.27-2.51,13.93,13.93,0,0,1,1.23-3.74c.17-.34.34-.65.5-.91a10,10,0,0,1,.67-1c.25,1,.83,4.12.65,11m-8.08,15.91.2-.07c6.34-2.17,9.48-2.57,10.66-2.64a13.79,13.79,0,0,1-7,5,21.39,21.39,0,0,1-4.07,1,14.09,14.09,0,0,1-3.25.08c1.13-1,2.28-2.15,3.42-3.3m-4-.34c-.62.6-1.26,1.19-1.9,1.78l-.06.06a16.94,16.94,0,0,1,.38-8,17.3,17.3,0,0,1,.65-2,13.28,13.28,0,0,1,3.79-5.34c0,1.06-.12,4.22-1.86,10.83a14.22,14.22,0,0,1-1,2.64m3.45-3.49c1.91-7.72,1.57-10.45,1.53-10.75a1.74,1.74,0,0,0-.2-.58c.62-.81,1.23-1.62,1.81-2.43a17.76,17.76,0,0,0,1.85,8l-.06.08-.49.62c-1.4,1.7-2.88,3.4-4.44,5.06M565,249.67h0a14.17,14.17,0,0,1,2.6-.66,62.58,62.58,0,0,1,8.72-.77,17.9,17.9,0,0,1,2.24.12,13.72,13.72,0,0,1-7.75,3.62,20.13,20.13,0,0,1-4.18.22,13.1,13.1,0,0,1-4.12-.82l2.49-1.71m-4.28-.76a15.26,15.26,0,0,1,1.69-7.82,15.43,15.43,0,0,1,1.08-1.93,12.77,12.77,0,0,1,4.53-4.32c-.17,1-.85,4-3.64,10a15,15,0,0,1-1.78,2.81c-.62.44-1.25.87-1.88,1.29m6.14-4.33c3.18-7,3.36-9.68,3.37-10.16a2,2,0,0,0-.09-.59c1.1-1,2.18-2,3.21-3a16.46,16.46,0,0,0,.33,8.26c-1.7,1.48-3.41,2.88-5.1,4.16-.56.45-1.14.88-1.72,1.3m-8.11,5.64c-1.61,1-3,1.95-4.4,2.76a17.49,17.49,0,0,1-19.2,0c-1.31-.78-2.74-1.68-4.38-2.74.26-1.11.64-4-1-8.26,1.32.92,2.66,1.83,4,2.69,1.84,1.2,3.27,2.1,4.62,2.91a12.88,12.88,0,0,0,6.4,2,13,13,0,0,0,6.33-2c1.43-.86,2.9-1.78,4.63-2.91,1.32-.86,2.65-1.76,4-2.69-1.62,4.28-1.24,7.15-1,8.27m-23.61-28.17c-4.29-7.74-.95-14.25,2.81-18.46a1.08,1.08,0,0,0,0-1.39,1.13,1.13,0,0,0-.26-.23l.32-.47-.46.39a1.08,1.08,0,0,0-1,.05c-6,3.4-8.93,9.78-10.29,14.09-.38-4.73,1-12.08,11.21-16.56a1.08,1.08,0,0,0-.6-2.05c-.47.07-10.42,1.71-15.45,7.42A10.4,10.4,0,0,1,523,201.9c2.39-3.38,6.78-5.53,13-6.41a1.08,1.08,0,0,0,.39-2c-.3-.17-6.45-3.61-13.07-.9l.52-.36c3.4-2.17,9-2.28,16.07-.31a1.07,1.07,0,0,0,1-1.79c-.28-.28-6.1-6.08-13.32-6.12,2.61-1,6.82-1,13.16,2.88a1.08,1.08,0,0,0,1.64-1,12.24,12.24,0,0,0-3.69-7.6c2,.81,4,2.58,5,6.22a1.08,1.08,0,0,0,2.08,0c1-3.64,3-5.41,5-6.22a12.24,12.24,0,0,0-3.69,7.6,1.07,1.07,0,0,0,.53,1,1.08,1.08,0,0,0,1.11,0C555.08,183,559.29,183,561.9,184c-7.19.05-13,5.84-13.31,6.12a1.06,1.06,0,0,0-.17,1.3,1.11,1.11,0,0,0,1.22.5c7.09-2,12.63-1.86,16,.3l.53.36c-6.64-2.72-12.77.74-13.07.92a1.08,1.08,0,0,0,.41,2c6.25.87,10.64,3,13,6.39a10.64,10.64,0,0,1,1.46,3c-5-5.7-15-7.34-15.44-7.41a1.08,1.08,0,0,0-.61,2.06C562.21,204,563.56,211.3,563.19,216c-1.36-4.3-4.3-10.69-10.29-14.08a1.07,1.07,0,0,0-1,0l-.46-.39.32.47a1,1,0,0,0-.26.23,1.06,1.06,0,0,0,0,1.39c3.76,4.22,7.1,10.73,2.8,18.47.1-6.22-.57-17-5.9-21.62a1.06,1.06,0,0,0-.7-.26,1.1,1.1,0,0,0-.4.08,1.07,1.07,0,0,0-.67.9c0,.36-.07.73-.11,1.1l0,.26.61.07-.64.16c0,.48-.13,1.12-.23,1.85s-.18,1.23-.28,1.85l-.29,1.66-.48,2.56c-.12.61-.23,1.19-.46,2.35l0,.08-.95-5c-.11-.6-.2-1.13-.29-1.65s-.19-1.19-.28-1.86-.17-1.38-.23-1.85l0-.49c0-.38-.08-.75-.11-1.11a1.07,1.07,0,0,0-.66-.9,1.09,1.09,0,0,0-1.12.18c-5.35,4.61-6,15.37-5.92,21.6m12.27,24.24a6.8,6.8,0,0,1-1.95.32h-1.43a6.81,6.81,0,0,1-2-.32c.06-.54.11-1.07.14-1.55.11-1.08.17-2.09.23-3l0-.5c0-.3,0-.58.06-.87l0-.69a2.87,2.87,0,0,1,0-.36l0-.71c.54-6.23.85-12.47,1.1-19.48a1.13,1.13,0,0,0,2,0c.25,7,.56,13.24,1.1,19.46l0,.34c0,.13,0,.26,0,.46a3.32,3.32,0,0,1,0,.38l0,.59c0,.28,0,.57.06.85l0,.53c.06.92.13,1.93.23,3,0,.48.09,1,.15,1.58m.53.08h.1l-.09,0Zm-31.78-15.5c1,1,2.11,2,3.21,3a2,2,0,0,0-.1.59c0,.48.19,3.14,3.35,10.13-.58-.43-1.16-.86-1.75-1.32-1.67-1.28-3.37-2.66-5-4.11a16.49,16.49,0,0,0,.33-8.26m4.93,3.8Zm.82,14.34a14.23,14.23,0,0,1,2.57.65l2.5,1.72a13.34,13.34,0,0,1-4.11.81,20.13,20.13,0,0,1-4.18-.22,13.79,13.79,0,0,1-7.74-3.62c1.07-.13,4.23-.33,11,.66m5-1.36a15.49,15.49,0,0,1-1.8-2.84c-2.85-6.1-3.5-9.05-3.65-10a12.92,12.92,0,0,1,4.54,4.32,17.37,17.37,0,0,1,2.78,9.76l-1.87-1.27M508.66,232.2c-1.54-1.64-3-3.32-4.39-5-.19-.24-.38-.47-.56-.71a17.27,17.27,0,0,0,1.83-8q.87,1.22,1.8,2.43a1.74,1.74,0,0,0-.2.58c-.05.29-.39,3,1.52,10.7m-.56,3.86c1.15,1.16,2.3,2.28,3.43,3.32a14,14,0,0,1-3.23-.09,21.39,21.39,0,0,1-4.07-1,13.73,13.73,0,0,1-7-5c1.05.06,4.19.43,10.67,2.65Zm.79-14.06Zm2.21,11.08c-1.75-6.68-1.88-9.84-1.86-10.83a13.21,13.21,0,0,1,3.8,5.34,16.66,16.66,0,0,1,.65,2,16.84,16.84,0,0,1,.38,8l-.18-.16c-.59-.55-1.18-1.09-1.76-1.65l0,0a14.43,14.43,0,0,1-1-2.63m-8.84-8.63-.53-.44c-.51-.68-1-1.36-1.49-2a14.27,14.27,0,0,1-.19-1.82c-.18-6.83.39-9.93.66-11,.16.21.38.51.63.91a11,11,0,0,1,.55,1,14.25,14.25,0,0,1,1.22,3.72,16.33,16.33,0,0,1,.27,2.5,17.85,17.85,0,0,1-1.12,7.12M521.52,105a1.09,1.09,0,0,0,1-.46,5.52,5.52,0,0,0,3.72,2l.2,0c1.68-.12,1.5-1.35,1.5-1.35a1.27,1.27,0,0,0,0-.49l.15,0a5.17,5.17,0,0,0,1,.09,6.89,6.89,0,0,0,1.22-.12,2.91,2.91,0,0,0,1.51-.57,1.51,1.51,0,0,0,.59-1.72s-.5-1.36-2.76-1.36c0,0,0,0,0,0a1.47,1.47,0,0,0-.48-1.22l-.14-.11.6-.29a37.37,37.37,0,0,1,15.62-3.29,38,38,0,0,1,15.33,3.53l0,0-.1.08a1.47,1.47,0,0,0-.47,1.18c-2.67.37-2.78,1.46-2.78,1.46a1.46,1.46,0,0,0,.58,1.64,4.18,4.18,0,0,0,1.65.61,5.7,5.7,0,0,0,1.11.11,5.09,5.09,0,0,0,1-.09l.16,0a1.34,1.34,0,0,0,0,.5l0,.36.27.4a1.58,1.58,0,0,0,1.19.58h.18l.18,0a5.29,5.29,0,0,0,3.56-1.92,1.49,1.49,0,0,0,1,.38h.43l.37-.24a56.73,56.73,0,0,1,11.51,11.77l1.14,1.61c.33.47.64,1,1,1.43s.68,1.06,1.07,1.69c.12.24.26.51.41.78l.09.16c.14.24.3.49.47.75l.16.23a78.69,78.69,0,0,1,4.91,10.35,14.69,14.69,0,0,0,.81,2.18,94.67,94.67,0,0,1,5.35,28.61c0,.36,0,.76,0,1.16,0,.8,0,1.61,0,2.42,0,.66,0,1.33,0,2H573.44c1.62-2.58,1.9-6.39,2-7.94l0-.35a8.72,8.72,0,0,1,1-2.62l.08-.22a1.89,1.89,0,0,0,0-.57l1.74-4.78a1,1,0,0,0-.15-.94,1,1,0,0,0-.87-.38l-18.71,1.59-1.34.12a1,1,0,0,0-.81.59l-1.62,3.71a18.12,18.12,0,0,1-1.88-5.39c-.08-.38-.14-.76-.2-1.14s-.13-.77-.17-1.16c-.18-1.38-.3-2.85-.37-4.57,0-.26,0-.52,0-.79V144c0-.29,0-.58,0-.86a36,36,0,0,1,4.13-16.56c3.53-6.44,7.56-11.11,12-13.87a1.15,1.15,0,0,0,.5-.7,1.08,1.08,0,0,0-.14-.84,1.11,1.11,0,0,0-.7-.5,1.07,1.07,0,0,0-.84.14c-11.37,7.11-20.93,13.21-30.41,19.75L534.86,124l-.34-.55h-.11a.56.56,0,0,0-.27-.08.86.86,0,0,0-.67.17.87.87,0,0,0-.34.63l-.79,9.39c-.63.45-1.26.91-1.88,1.38l-1.73,1.27-.5.37-2.38,1.84-2.09,1.64a302.15,302.15,0,0,0-22.67,20.51,1.17,1.17,0,0,0-.34.79,1.11,1.11,0,0,0,.33.8,1.16,1.16,0,0,0,.8.33l13-.14a49.24,49.24,0,0,0,6.59,7.33H493.82c0-.66,0-1.33,0-2s0-1.57,0-2.32c0-.5.05-1,.05-1.31a94.75,94.75,0,0,1,5.3-28.46,13.12,13.12,0,0,0,.84-2.25,77.59,77.59,0,0,1,4.87-10.3l.21-.3c.17-.26.33-.51.47-.75l.08-.15c.16-.29.31-.57.47-.88.33-.54.67-1.07,1-1.6s.63-1,1-1.54l1.07-1.5a56.38,56.38,0,0,1,11.46-11.74,1.53,1.53,0,0,0,.82.35m-.77-4.68c0-.17,0-.35,0-.52h0a.38.38,0,0,0,.1,0h0s.06,0,.06,0,.21.19.21,1.27a10.75,10.75,0,0,1-.07,1.15l-.28-.43c0-.46-.08-.92-.07-1.37m2.78,2a.49.49,0,0,1,.17-.18,2.49,2.49,0,0,1,.68,1.18c0,.07,0,.14,0,.26a3,3,0,0,0,.41.94,3.9,3.9,0,0,1-1.11-1.5,4,4,0,0,1-.2-.7m2.91,3h0m1.52-2.78a.28.28,0,0,1,.06-.26c.08-.08.61-.09,1.34.43h0a3.29,3.29,0,0,0,1.12.53,5.11,5.11,0,0,1-2.53-.7m13.82-8.81a2.42,2.42,0,0,0,.4-.18,3.72,3.72,0,0,0,.78-.59,6.42,6.42,0,0,0,1.43-2.16,6.49,6.49,0,0,0,.38-1.39,6.82,6.82,0,0,0,.38,1.39,6.62,6.62,0,0,0,1.43,2.16,3.34,3.34,0,0,0,.78.59,2.36,2.36,0,0,0,.35.16,30.12,30.12,0,0,0-5.93,0m19.67,8.42a.4.4,0,0,1,.07.3,5.76,5.76,0,0,1-2.85.79,4,4,0,0,0,1.27-.6h0c.81-.6,1.41-.59,1.5-.49m3.3,2.25a2.8,2.8,0,0,0,.4-.91,1.81,1.81,0,0,0,.05-.25,2.43,2.43,0,0,1,.65-1.14.44.44,0,0,1,.16.18,3.53,3.53,0,0,1-.2.67,3.71,3.71,0,0,1-1.06,1.45m3.69-2.15c-.05-.51-.08-1-.08-1.27,0-1.11.21-1.29.21-1.3l.06,0h0a.25.25,0,0,0,.11,0,0,0,0,0,0,0,0c0,.17,0,.35,0,.53a12.22,12.22,0,0,1-.12,2.1c0,.11,0,.22,0,.33h0a.66.66,0,0,0-.14-.18l0,0h0c0-.1,0-.18,0-.28m20.15,13.64-1.78,1.6a16.06,16.06,0,0,0-1.51-.7l-1-.42,2.53-2.35c.59.66,1.26,1.39,1.73,1.87m-7.37-13.9a14.71,14.71,0,0,1,7.51,5.11c.25.3.49.61.71.91s.39.53.56.79.37.55.53.82c.32.52.59,1,.83,1.51a14.38,14.38,0,0,1,.74,1.77l.08.22c.09.27.17.53.23.78l0,.15c0,.2.09.38.13.55l.06.36a7,7,0,0,1,.08.74l-.35-.22-.06,0h0l-.63-.42-.13-.09h0c-.25-.17-.52-.37-.8-.58-.46-.34-.94-.74-1.42-1.16a16.15,16.15,0,0,1-1.18-1.16,6.4,6.4,0,0,1-.42-.49l-.81-1c-3.91-4.91-5.26-7.55-5.69-8.54M512.7,154.07l-.25-.13-.15-.05a1.14,1.14,0,0,0-.5-.28l-.14,0c4.09-3.79,8.68-7.86,13.61-11.81l2-1.58c.8-.63,1.6-1.25,2.42-1.87l2-1.48.35-.26-1.82,21.64c-3,.15-6.29.34-9.86.58-.32-.49-.62-1-.91-1.47a1.11,1.11,0,0,0-.88-.55l-.23,0a8.71,8.71,0,0,1-2.28-.8,29.75,29.75,0,0,1-2.65-1.43l-.74-.46m.09,5.3c-3.22.25-5.95.49-7.89.66,1.69-1.65,3.54-3.43,5.52-5.28,0,.06,0,.1,0,.11l.14.45a10.84,10.84,0,0,0,.59,1.24q.72,1.38,1.62,2.82m37.22-14,0,1.31c.09,1.64.23,3.13.46,4.64q.08.55.18,1.11c.07.39.16.77.24,1.15a21,21,0,0,0,1.47,4.44c-2.14-.15-4.74-.23-7.75-.23l-7.27-25c6.3-4.36,12.85-8.68,21.34-14.07a53,53,0,0,0-4.34,6.75,39,39,0,0,0-4.4,18.55v.23c0,.37,0,.74,0,1.12m3.79,15-.42,1-1.09.07-2.55.14-2.8.13-1.08,0-.56-1.7c3.39,0,6.23.13,8.5.35m-13.44-.31,3.11,0,.51,1.77-2.85.08h-.66l.1-.09a1.12,1.12,0,0,0,.32-.79,1.15,1.15,0,0,0-.53-.94m2.46-2.27-3.82.06-2.58-22.08Zm-5,3.74.13,1-3,0h-1.35l-1.5,0c-.38,0-.09,0-.46,0l.08-.9Zm-6-.94.07-.83c2.12-.1,3.58-.18,5.65-.24l.13,1Zm4.89-2.68-4.71.18L534,135.21l.12-.08,1.63,14.17ZM521,160.74l-.24-.33c3.19-.21,6-.42,9.37-.58l-.07.81Zm9,.91-.07.89-.91,0c-1.13-.05-2.16-.11-3.07-.19l-4-.28-.21-.28ZM515.15,158c.32.15.67.3,1.15.49l.43.16.17,0,.34.11.32.07.28.06.45.71.31.49-2.59,0-.49-.7c-.42-.62-.82-1.25-1.19-1.88.28.15.55.28.82.41m5,4.36c.81,1.11,1.66,2.18,2.53,3.18a46.94,46.94,0,0,0,4.32,4.39h-.9a2.55,2.55,0,0,1-.9-.16,2.78,2.78,0,0,1-.82-.47,46.53,46.53,0,0,1-6.67-6.92Zm4.22,1.72-.25-.29,1.74.12c.92.08,2,.15,3.12.2,1,0,2.06.07,3.18.09l1.52,0H535c1.17,0,2.43,0,3.69,0l2.48,0,1.83,0c1.33,0,2.68-.08,4-.14l2.8-.13,2.57-.14,2.11-.14.91-.06c1.4-.1,2.76-.21,4.1-.33s2.73-.26,4-.4l1.44-.17.75-.1c.62-.08,1.2-.17,1.77-.26l2.28-.41c.44-.09.85-.19,1.21-.28l.11,0-3.48,8.41H531.2a2.52,2.52,0,0,1-.74-.16,2.78,2.78,0,0,1-.82-.47,46.74,46.74,0,0,1-5.3-5.23m34-6,.52-1.22,5.86-.53-.54,1.21Zm4.81,1.81-.33.76-1.63.17.3-.77Zm-4.16.38-.3.77-1.67.14.32-.76Zm7.54-.09.27-.62,1.63-.15-.21.49-1.05.17-.64.11m4.38-.88,0-.13.47,0-.4.13-.12,0m2.17,3.47.1-.24c-.45,4.61-1.59,6.4-2.49,7.08a2.74,2.74,0,0,1-.39.24l-.15.07Zm-5.28-5.56.51-1.19,5.76-.53-.45,1.13Zm-63.3-40.52a13,13,0,0,0-1.29.6l-2-1.77c.46-.45,1.09-1.07,1.53-1.52l2.54,2.36-.75.33m-1.82-6.19-.7.88-.11.14q-.19.24-.42.48a14.34,14.34,0,0,1-1.18,1.16c-.48.43-1,.82-1.42,1.17l-.92.66-.57.38-.13.08-.35.22a6.53,6.53,0,0,1,.08-.74l.07-.4c0-.16.07-.34.12-.52l0-.15c.06-.25.14-.5.23-.77l.08-.22a15.89,15.89,0,0,1,.75-1.77c.24-.48.51-1,.83-1.51.17-.27.34-.54.53-.82l.56-.79c.22-.3.46-.6.71-.91a14.63,14.63,0,0,1,7.51-5.1,45.46,45.46,0,0,1-5.71,8.53m-5.6,7.6a2,2,0,0,0,.57-.22c.08,0,.31-.18.63-.39l1.77,1.64c-1.56.84-3.32,1.89-5.24,3.15.73-1.42,1.49-2.82,2.27-4.18m-1.84,6.44a64.55,64.55,0,0,1,6.84-4.08c.29-.15.55-.27.79-.38L503,120c.38-.17.7-.3,1-.4l.53-.19c0,.13-.1.27-.17.44l-.15.33c-.08.17-.17.35-.35.68s-.26.45-.42.69l-.28.41a13.25,13.25,0,0,1-2.39,2.54,16,16,0,0,1-1.31,1,16.58,16.58,0,0,1-7.49,3l.21-.5.48-1.16a16,16,0,0,1,2.6-2.26m3.64,3.78c-.25.57-.51,1.14-.75,1.73a1.94,1.94,0,0,0-.33.07c-.67.23-3.17,1.32-8.56,5.9.58-1.83,1.21-3.64,1.88-5.41h.2a16,16,0,0,0,7.56-2.29m-9.7-1.13a17.17,17.17,0,0,1-2.9-7.12,13.88,13.88,0,0,1,.86-8.51c.48.94,1.7,3.81,3,10.57a14.48,14.48,0,0,1,.23,2.34c-.41.9-.8,1.81-1.18,2.72m.07,11.66c5.06-4.46,7.78-6,8.83-6.52,0,.19-.1.45-.19.75a11.66,11.66,0,0,1-.52,1.41,14.43,14.43,0,0,1-2,3.27,16.15,16.15,0,0,1-1.77,1.83,17.57,17.57,0,0,1-6.35,3.77l0-.18c.27-1.15.56-2.29.86-3.42l.47-.37a6.55,6.55,0,0,0,.67-.54m4.82,3.13c-.29,1.1-.57,2.22-.82,3.35l-.21.08c-.43.2-2.67,1.46-7.46,6.87.29-2,.63-4,1-6h0l.12-.56v-.06a17.46,17.46,0,0,0,7.34-3.72m-8.1,13.11c4.12-4.82,6.51-6.75,7.58-7.48a12.76,12.76,0,0,1-1.64,5.05,16.85,16.85,0,0,1-1.77,2.55,17.2,17.2,0,0,1-5.4,4.4c.08-1.09.18-2.17.3-3.25a13.48,13.48,0,0,1,.93-1.27m-1.77-12.18a12.86,12.86,0,0,1-1.89-2,20,20,0,0,1-2.62-4.57,13.72,13.72,0,0,1-.92-8.51c.66.83,2.47,3.42,5.12,9.72a15.57,15.57,0,0,1,.88,3c-.2.77-.39,1.55-.57,2.32m.3,51.07a15.85,15.85,0,0,1-6.76-5.4,13.52,13.52,0,0,1-3.13-8c.85.61,3.22,2.58,7.5,8a16.49,16.49,0,0,1,1.89,3.21c.16.72.33,1.43.5,2.13m0-24.43c0-.59,0-1.17,0-1.76,0-1.85.05-3.79.16-5.77a17.67,17.67,0,0,0,6.68-4.89c-.12,1.19-.22,2.42-.31,3.68a1.44,1.44,0,0,0-.31.19c-.39.28-2.45,2-6.2,8.55m.15,4.84a14.1,14.1,0,0,1,1.17-2.89c3.18-5.68,5.15-7.87,5.86-8.56,0,.2.07.48.09.83a10.09,10.09,0,0,1-.06,1.89,13,13,0,0,1-.87,3.38,15,15,0,0,1-.8,1.67,15.36,15.36,0,0,1-5.24,5.81c-.06-.72-.11-1.43-.15-2.07Zm6.27-1.08c0,.79.09,1.59.15,2.39a2.17,2.17,0,0,0-.29.24c-.21.21-2,2.22-4.87,9.5-.37-2.22-.66-4.45-.89-6.66a15.18,15.18,0,0,0,5.9-5.47M486.7,190c.1-.5.21-1,.34-1.44s.18-.6.29-.89c2.36-6.34,4-9,4.71-9.92,0,.17.1.38.16.64a12.87,12.87,0,0,1,.26,2.24,14.36,14.36,0,0,1-.36,3.53,17.39,17.39,0,0,1-.62,2.12,16.88,16.88,0,0,1-4.13,6.6c-.24-1-.45-2-.65-2.85Zm1.35,16.53c.2.17.39.35.58.54.22.56.45,1.12.68,1.68.11.27.23.54.35.8l.36.82c.1.22.19.45.29.67a17.43,17.43,0,0,1-6.57-3.72,14,14,0,0,1-4.64-7.19c1,.44,3.7,1.92,8.95,6.4m2.26-3.77c-.87-2.46-1.65-5-2.34-7.59a16.93,16.93,0,0,0,4.89-6.63c.27,1.31.57,2.62.9,3.9a2.11,2.11,0,0,0-.35.38c-.26.41-1.61,2.67-3.1,9.94m1.76,2.24c1.24-6.68,2.45-9.61,2.93-10.58a13,13,0,0,1,1.18,5.94,16.83,16.83,0,0,1-.26,2.56,17.74,17.74,0,0,1-2.56,6.72c-.23-.37-.52-.81-.86-1.29l-.62-1.38a11.35,11.35,0,0,1,.19-2m5.68-.37.21.51c.34.82.71,1.64,1.09,2.44a1.87,1.87,0,0,0-.22.39c-.18.45-1,2.95-1,10.42a72.81,72.81,0,0,1-3.63-6.36,17.14,17.14,0,0,0,3.52-7.4m0,19.12q.53.73,1.08,1.47l1,1.36a11.62,11.62,0,0,1-1.31,0,18.84,18.84,0,0,1-6.25-1.66,14,14,0,0,1-6.5-5.55c1.07.15,4.18.81,10.38,3.56a11.68,11.68,0,0,1,1.58.84m96.61-29.67h0m-2.69,24.37c.07-7.52-.79-10-1-10.48a1.57,1.57,0,0,0-.22-.38c.38-.81.75-1.62,1.09-2.44.07-.17.14-.35.22-.52a17.21,17.21,0,0,0,3.53,7.44,72.29,72.29,0,0,1-3.65,6.38m1.69,4.45c6.24-2.76,9.34-3.41,10.39-3.56a13.68,13.68,0,0,1-6.5,5.55,18.84,18.84,0,0,1-6.25,1.66,11.91,11.91,0,0,1-1.33,0l1.25-1.68c.3-.41.61-.82.81-1.12a13.9,13.9,0,0,1,1.63-.87m.27-20h0a15.66,15.66,0,0,1-.26-2.57,12.88,12.88,0,0,1,1.18-5.93c.47,1,1.69,3.9,2.93,10.58a14.74,14.74,0,0,1,.2,1.92l-.54,1.31c-.38.53-.7,1-.94,1.41a17.7,17.7,0,0,1-2.57-6.72m2.49-10.09a1.8,1.8,0,0,0-.35-.38c.33-1.29.63-2.6.9-3.91a16.78,16.78,0,0,0,4.92,6.65c-.69,2.6-1.48,5.15-2.35,7.62-1.49-7.31-2.85-9.58-3.12-10m3.41,17.48.34-.78c.12-.26.23-.51.34-.77.24-.59.48-1.18.65-1.63.21-.2.41-.4.64-.59,5.33-4.55,8.07-6,8.94-6.4a13.66,13.66,0,0,1-4.64,7.2,17.46,17.46,0,0,1-6.59,3.73c.1-.27.21-.52.32-.76m-1.46-24a16.24,16.24,0,0,1-.63-2.12,14.66,14.66,0,0,1-.36-3.5,12.25,12.25,0,0,1,.26-2.28c.06-.25.11-.47.16-.63.63.85,2.31,3.48,4.71,9.92.11.29.2.59.29.89.13.46.24.92.33,1.41-.2,1-.42,2-.65,2.91a16.8,16.8,0,0,1-4.11-6.6m.71-10.37a1.68,1.68,0,0,0-.29-.24c.06-.79.11-1.59.16-2.39a15,15,0,0,0,5.92,5.49c-.22,2.22-.52,4.46-.89,6.7-2.87-7.36-4.69-9.34-4.9-9.56m.76-5.21a14.37,14.37,0,0,1-.8-1.68,12.8,12.8,0,0,1-.87-3.4,11.34,11.34,0,0,1-.06-1.83c0-.36.06-.65.09-.86.7.68,2.69,2.9,5.86,8.56a13.91,13.91,0,0,1,1.16,2.87q-.06,1.07-.15,2.13a15.34,15.34,0,0,1-5.23-5.79m-.67-9.73a2,2,0,0,0-.31-.19c-.08-1.25-.19-2.48-.31-3.68A17.66,17.66,0,0,0,605,162c.11,2.06.16,3.95.16,5.76,0,.6,0,1.2,0,1.8-3.89-6.79-6-8.43-6.22-8.6m6.67,30.89.05-.09a16.47,16.47,0,0,1,1.86-3.15c4.23-5.4,6.64-7.4,7.5-8a13.82,13.82,0,0,1-3.13,8,16.1,16.1,0,0,1-6.78,5.44c.17-.72.34-1.43.5-2.14m-.19-49q-.27-1.17-.57-2.34h0a15.29,15.29,0,0,1,.88-3c2.65-6.3,4.45-8.89,5.11-9.71a13.76,13.76,0,0,1-.92,8.5,19.86,19.86,0,0,1-2.61,4.55,12.86,12.86,0,0,1-1.91,2m-.54,16.68a17.26,17.26,0,0,1-5.38-4.4,15.86,15.86,0,0,1-1.78-2.56,13,13,0,0,1-1.64-5.05c.94.64,3.35,2.53,7.58,7.49a13.11,13.11,0,0,1,.91,1.23c.12,1.09.23,2.19.31,3.29m-8.28-14.2-.21-.08c-.26-1.14-.53-2.26-.82-3.36a17.65,17.65,0,0,0,7.35,3.74c.45,2.17.84,4.38,1.16,6.59-4.8-5.42-7-6.68-7.48-6.89m-.53-5.82a16.22,16.22,0,0,1-1.77-1.84,14.07,14.07,0,0,1-2.06-3.31h0a10.33,10.33,0,0,1-.48-1.3,7.68,7.68,0,0,1-.2-.8c1,.47,3.69,2,8.83,6.53.2.18.43.35.68.55l.43.34c.31,1.16.61,2.32.88,3.5l0,.12a18.15,18.15,0,0,1-6.34-3.79m4.37-12.38c-.37-.91-.76-1.8-1.16-2.69h0a14.76,14.76,0,0,1,.23-2.37c1.3-6.8,2.53-9.66,3-10.57a13.69,13.69,0,0,1,.86,8.52,17.12,17.12,0,0,1-2.92,7.12m0,8.8c-5.4-4.59-7.9-5.67-8.59-5.91a1.5,1.5,0,0,0-.29-.06c-.25-.58-.5-1.16-.75-1.72a16.14,16.14,0,0,0,7.56,2.3h.2c.66,1.72,1.28,3.53,1.87,5.39m-10.19-10.51a14.18,14.18,0,0,1-1.32-1,14,14,0,0,1-2.4-2.56l0-.07-.22-.32c-.16-.24-.29-.47-.49-.82q-.15-.28-.27-.54a3.23,3.23,0,0,1-.15-.34c-.07-.17-.13-.32-.17-.44l.53.19,1,.41.14.06.79.38a63.56,63.56,0,0,1,6.84,4.08,15.2,15.2,0,0,1,2.56,2.23l.33.81c.13.3.25.59.37.89a16.46,16.46,0,0,1-7.46-3m-.62-6.36,1.77-1.64.64.39a2.28,2.28,0,0,0,.63.24c.76,1.33,1.52,2.74,2.25,4.2-1.94-1.28-3.72-2.35-5.29-3.19M552,82.36c1.22,3.06,2.34,6.15,3.43,9.25a1.34,1.34,0,0,1-.86-.06,4.16,4.16,0,0,1-1.92-1.92,10.49,10.49,0,0,1-.71-1.47c-.14-.34-.27-.68-.41-1-.37-.88-.73-1.77-1.09-2.65-.71-1.75-1.41-3.51-2.12-5.27-.07-.16-.13-.33-.2-.49a2.39,2.39,0,0,1,2.28.21,4.7,4.7,0,0,1,.88,1.65c.25.59.49,1.17.72,1.76m-2.21,3.24q1,3.34,2.08,6.7s-2.45.59-4.25-6.66l-1.37-5.87c.24-.17.51-.35.82-.53a6.55,6.55,0,0,1,.64-.33q1,3.34,2.08,6.69m-2.92-.08.42,2.21c0,.09,0,.17.05.26.31,1.64.62,3.28.92,4.92a4.45,4.45,0,0,1-2.66-3.43c0-.15-.07-.3-.1-.44s-.06-.3-.09-.61-.29-3.26-.61-7.19c-.32,3.94-.56,6.8-.61,7.19s-.09.61-.09.61a3.93,3.93,0,0,1-.1.44,4.45,4.45,0,0,1-2.66,3.43c.31-1.64.62-3.28.92-4.92,0-.09,0-.17,0-.26l.42-2.21c.31-1.82.62-3.68.93-5.51l.06,0a9,9,0,0,1,1.09,1.18,8.37,8.37,0,0,1,1.09-1.18l0,0c.29,1.83.61,3.69.92,5.51m-4.91.12c-1.8,7.26-4.25,6.66-4.25,6.66q1-3.35,2.08-6.7t2.08-6.7a6.55,6.55,0,0,1,.64.33c.31.18.58.36.82.53Zm-.7-6.41c-.71,1.75-1.41,3.51-2.12,5.27-.36.89-.72,1.77-1.09,2.65-.14.33-.27.67-.41,1a11.06,11.06,0,0,1-.71,1.47A4.16,4.16,0,0,1,535,91.55a1.27,1.27,0,0,1-.86.06c1.09-3.1,2.21-6.2,3.42-9.25.23-.59.47-1.17.72-1.75a4.64,4.64,0,0,1,.89-1.65,2.36,2.36,0,0,1,2.28-.21l-.2.48M534,89.94c-.11.31-.22.61-.32.92-.16.47-.32,1-.49,1.42a3.58,3.58,0,0,0,1,.14c2,0,3.16-1.87,3.76-3.26l-.24.77-.24.76-.75,2.43A3.74,3.74,0,0,0,538.4,93a3.83,3.83,0,0,0,1.75-1.31,5.16,5.16,0,0,0,.65-1.11c.07-.13.14-.29.23-.46l.08-.15.38-.82-1.14,4.68c-.75.11-1.56.29-2.34.45h0l-.27.06h0c-.58.11-1.15.21-1.72.35l-.33.08,0,0c-1.27-1.37-3-.63-4-1.7a2.82,2.82,0,0,1-.35-2.25l0,0c.24.42.49.83.74,1.26.52-1.34,1-2.68,1.56-4s1-2.85,1.48-4.26a20.84,20.84,0,0,1,.85-2,8.41,8.41,0,0,1,1.66-2.53q-1.86,5.34-3.68,10.7m-37.06,18.68c-.25.47-.58,1.14-.85,1.72a.08.08,0,0,0,0,0L475.1,91l.29-.11,1.69-.68ZM481.71,159l0,.31,0,.38a16.48,16.48,0,0,1-4.73-6.69,13.74,13.74,0,0,1-.95-8.51c.65.8,2.45,3.35,5.15,9.71a14.92,14.92,0,0,1,.78,2.51l-.08,1c-.05.44-.09.88-.12,1.33m0,17.74a16.18,16.18,0,0,1-6.05-5.68,13.58,13.58,0,0,1-2.59-8.16c.8.66,3,2.78,7,8.52a16.14,16.14,0,0,1,1.54,3q0,1.17.15,2.34m126.14-17-.06-.76-.18-2.16,0-.08a15.12,15.12,0,0,1,.77-2.5c2.7-6.36,4.49-8.9,5.15-9.71a13.83,13.83,0,0,1-.94,8.5,16.36,16.36,0,0,1-4.76,6.71m.11,14.71a15.65,15.65,0,0,1,1.54-3c3.85-5.65,6.14-7.83,6.94-8.51a13.73,13.73,0,0,1-2.59,8.15,16.24,16.24,0,0,1-6.07,5.68c.07-.79.13-1.57.18-2.33m4.52-39a14.68,14.68,0,0,0,.22-8.73,2,2,0,0,0-1.36-1.23,1.91,1.91,0,0,0-1.75.46c-.23.21-2.34,2.32-5.85,10.64-.73-2.47-1.55-4.88-2.43-7.18a17.85,17.85,0,0,0,4.08-8.95A15.47,15.47,0,0,0,604.07,110a1.91,1.91,0,0,0-3.2-.09c-.29.41-1.76,2.84-3.36,10.85-.79-1.56-1.63-3.1-2.51-4.6a7.79,7.79,0,0,0-.13-2l26.27-24.37h0l4.14,1,3.19.75-1.91-2.67-.55-.77a16.63,16.63,0,0,0,2.83,1.47A22.52,22.52,0,0,0,634,91l3.73.56,2.83.42-1.63-2.35c-2.6-3.73-4.6-6.6-6.36-9.11L632.2,80l-.21-.31,10.1-9.38c.8,6,3.76,10.85,6.63,15.61.92,1.52,2.07,3.41,3,5.26.38.71.74,1.42,1.08,2.12ZM630,76.79,628.83,75,658,48a1.6,1.6,0,0,0,.5-1l1-8.91L677,32.48l.24.26Zm-170.4-.11L416.06,36.41l-4.22-4.07.08-.14,18.2,5.92,1,8.91a1.6,1.6,0,0,0,.5,1l29.12,27Z"/><path class="cls-1" d="M521.49,24.36a9.11,9.11,0,0,1-3-2.31c-2.44-2.76-3-6.67-7-7.81a6.6,6.6,0,0,0-4,.12,20.29,20.29,0,0,0-4.5,2.51c2.48-1.64,5.6-2.56,8.36-1a14.6,14.6,0,0,1,3.94,3.54c1.62,1.89,3.64,4.19,6.15,5"/><path class="cls-1" d="M528.7,29.38a7.21,7.21,0,0,0-.69-.74h0a5.86,5.86,0,0,0-.54-.47c-.13-.1-.27-.18-.4-.27a10,10,0,0,0-2.22-1.16,9.13,9.13,0,0,0-1.68-.47,6.26,6.26,0,0,0-1.1-.12l-.45,0a4.68,4.68,0,0,1-.5-.08,8.7,8.7,0,0,1-1.87-.62,7.75,7.75,0,0,1-2.32-1.77,5.91,5.91,0,0,0,2.15,2.59,4.53,4.53,0,0,0,.47.24,8.09,8.09,0,0,0,1.27.4l.89.22a11.93,11.93,0,0,1,2.57.81,7.06,7.06,0,0,1,2.39,1.79,5.2,5.2,0,0,1,.87,1.34,3.84,3.84,0,0,1,.18.61,5.31,5.31,0,0,1,.1.68,4.48,4.48,0,0,1,0,.73,6.58,6.58,0,0,1-.45,1.56s0,0,0,.05a12.08,12.08,0,0,0-1.25,4.73,9.91,9.91,0,0,0,.42,2.81c.06.19.13.38.19.57a8.64,8.64,0,0,0,.49,1.18l.08.16a4,4,0,0,1,.68,2.5l-.07.44.31-.34c.63-.68.16-1.76-.16-2.48L528,44.1a11,11,0,0,1-.74-2.55,12.42,12.42,0,0,1,.56-5.88s0,0,0-.05A17.85,17.85,0,0,1,529,32.81a3,3,0,0,0-.14-3.13,1.17,1.17,0,0,0-.19-.3"/><path class="cls-1" d="M574.19,19.37a14.9,14.9,0,0,1,3.94-3.54c2.77-1.52,5.88-.6,8.36,1a20.29,20.29,0,0,0-4.5-2.51,6.53,6.53,0,0,0-4-.12c-4,1.13-4.52,5-7,7.81a9.11,9.11,0,0,1-3,2.31c2.52-.8,4.54-3.11,6.15-5"/><path class="cls-1" d="M561.73,35.61s0,0,0,0a12.42,12.42,0,0,1,.56,5.88,10.48,10.48,0,0,1-.74,2.55l-.06.14c-.31.72-.79,1.81-.16,2.48l.32.34-.07-.44a4,4,0,0,1,.68-2.5l.08-.16a8.14,8.14,0,0,0,.49-1.18c.07-.19.14-.38.19-.57a10.28,10.28,0,0,0,.42-2.81,12.08,12.08,0,0,0-1.25-4.73s0,0,0,0a5.76,5.76,0,0,1-.45-1.56,3.57,3.57,0,0,1,0-.73,3.19,3.19,0,0,1,.1-.68A3.84,3.84,0,0,1,562,31a5.38,5.38,0,0,1,.87-1.34,7.19,7.19,0,0,1,2.39-1.79,11.94,11.94,0,0,1,2.56-.81l.89-.22a8.09,8.09,0,0,0,1.27-.4,3.64,3.64,0,0,0,.47-.24,5.91,5.91,0,0,0,2.15-2.59,7.75,7.75,0,0,1-2.32,1.77,8.47,8.47,0,0,1-1.87.62c-.28,0-.5.07-.5.07l-.45,0a6.17,6.17,0,0,0-1.1.12,10,10,0,0,0-1.68.47,11.18,11.18,0,0,0-2.22,1.16c-.13.09-.27.17-.4.27s-.36.3-.54.47h0a8.34,8.34,0,0,0-.69.74,1.87,1.87,0,0,0-.2.29,3.06,3.06,0,0,0-.14,3.13,16.75,16.75,0,0,1,1.24,2.83"/><path class="cls-1" d="M552.27,54s-1.18.35-.7,3.43a3.74,3.74,0,0,0,.7-3.43"/><path class="cls-1" d="M551.78,45.7a2,2,0,0,1-.91.22,2.28,2.28,0,0,1-1.68-1,4.08,4.08,0,0,0,.6,1,4.75,4.75,0,0,0,1,.91c.46.38.62,1.59-.91,5.33a11.11,11.11,0,0,0,1.61-1.89A12.59,12.59,0,0,0,553.39,42c0,.21-.12,3-1.61,3.72"/><path class="cls-1" d="M549.18,73.74c-.1,0-.53,0-1.06-.62a5.22,5.22,0,0,1-.14,2.54,0,0,0,0,1,0,0c0,.09-.06.16-.09.24l0,.08c-.07.16-.13.32-.2.46a5,5,0,0,1-.61.93.08.08,0,0,1,0,0l-.09.11.11,0,.36-.18.42-.24a6.87,6.87,0,0,0,.76-.54c.11-.09.23-.19.34-.3l0,0,.21-.21.11-.12a5.67,5.67,0,0,0,1.43-5.11c0,1.76-.76,2.92-1.5,3"/><path class="cls-1" d="M546.37,55.32a12.59,12.59,0,0,0,1.86-8.26,6.81,6.81,0,0,1-1.12,3.44,1.12,1.12,0,0,1-.66.45c-.71.13-1.35-.74-1.42-.84a7,7,0,0,1,.64,1.77,7.85,7.85,0,0,1-.91,5.33,11.11,11.11,0,0,0,1.61-1.89"/><path class="cls-1" d="M547.06,62.78a15.27,15.27,0,0,0,.14-2.66,5.85,5.85,0,0,1,.71-2.08h0a8.73,8.73,0,0,1,.49-.76l-.75.76h0l-1.06,1a4.3,4.3,0,0,0-.59.69,2.79,2.79,0,0,0-.23,2,7.1,7.1,0,0,1-1,4.9c.43-.61.92-1.17,1.34-1.79a6.84,6.84,0,0,0,.93-2.09"/><path class="cls-1" d="M546.13,73.47s1.25-.92-.21-5.09a6.57,6.57,0,0,0,.21,5.09"/><path class="cls-1" d="M546.45,41.72a12.16,12.16,0,0,1,0,1.48c.14-.05.21-.22.26-.36a12.2,12.2,0,0,0,.43-2.23c.1-.77.29-1.52.36-2.3a4.21,4.21,0,0,0-.26-2,2.33,2.33,0,0,0-.54-.77c-.05-.06-.56-.5-.53-.58a6.9,6.9,0,0,0-.5,2.34,10.44,10.44,0,0,0,.39,2.89,7.63,7.63,0,0,1,.37,1.55"/><path class="cls-1" d="M549.36,17.65a2.46,2.46,0,0,0,.73.54,3.14,3.14,0,0,1,1.24,1.71s0-.21,0-.51h0l0-.23h0a2.21,2.21,0,0,0,0-.25h0a2.44,2.44,0,0,0-2.35-2.16h0a2.13,2.13,0,0,0,.49.92"/><path class="cls-1" d="M549.76,32.39a13.38,13.38,0,0,1,1.48,5,13.62,13.62,0,0,1,0,2.4,4.6,4.6,0,0,0,.79-.72c1.53-1.79,1.25-4.4,1.12-5.68a11.82,11.82,0,0,0-.29-1.63,5.43,5.43,0,0,1,0,1.11c-.06.5-.21,1-.59,1.16s-1.21-.17-2.49-1.67"/><path class="cls-1" d="M547.45,23.36l0,0c-.06.17-.21.86,1,2.41l.19.24a8.89,8.89,0,0,1,1.08,1.56,3.49,3.49,0,0,1,.53,1.52,10,10,0,0,0,0-1.34,7.58,7.58,0,0,0-.2-1.55,3.44,3.44,0,0,0-2.48-2.83.69.69,0,0,0-.17-.05"/><path class="cls-1" d="M547.32,10.14a1.85,1.85,0,0,1,1,.17h0s-.62-1.61-1.72-2h0a2.05,2.05,0,0,1,.39.95c0,.31-.26.53-1.14.33h0a2.63,2.63,0,0,0,1.46.53"/><path class="cls-1" d="M551.18,69.74a5,5,0,0,1,.4,3.77,9.35,9.35,0,0,0,2-4,18.7,18.7,0,0,0,.4,3,8.6,8.6,0,0,1,1.78-4.78,7.23,7.23,0,0,0,1.62-4.47c.37.94,2.23.56,2.23.56C557,60.68,557,58.59,557.11,58h0a.8.8,0,0,1,0-.15s-.1,0-.2.15h0a4.2,4.2,0,0,0-.3,2.38,6.31,6.31,0,0,1-1.26,4.14,8.27,8.27,0,0,0-.89-2.89,11,11,0,0,1-.55,4.44,8.39,8.39,0,0,0-.26,1.25,4.91,4.91,0,0,1-.2.94c-.38,1.1-1.07,2.13-2.3,1.44"/><path class="cls-1" d="M552.53,58.67c0,.27-.61,2.95-1.36,2.94-.49,0-.86-1.14-1-1.75a11.26,11.26,0,0,1,.14,3.62,11.52,11.52,0,0,1-1.22,3.94,11.48,11.48,0,0,0,3.28-5.89,10.1,10.1,0,0,0,.19-2.86"/><path class="cls-1" d="M540.68,70.47s1.34-5-2.07-6.08c0,0-.56.64.85,2.82s1.22,3.26,1.22,3.26"/><path class="cls-1" d="M530.82,35.23c.42-.18.93-.4,1.44-.66,1.25-.65,2.5-1.57,2.43-2.91h0a0,0,0,0,1,0,0c-.07.19-.87,2.24-2.19,2a1.06,1.06,0,0,1-.37-.14l0,0c-.38-.26-.28-.73-.11-1.09a2.7,2.7,0,0,1,.34-.55c-.09.07-.22.17-.37.31a3.74,3.74,0,0,0-.85,1.2,3.62,3.62,0,0,0-.28,1.88h0"/><path class="cls-1" d="M529.54,41.9A10,10,0,0,0,531.12,46c.32.59.62,1.07.83,1.4a6,6,0,0,1,.08-1.56,2.84,2.84,0,0,1,.08-.34c.36-1.42,1.13-1.81,1.63-3.64l0,0a.43.43,0,0,1,0,0c.06-.22.1-.44.15-.66a12.4,12.4,0,0,0,.2-1.49c0-.5.09-.85,0-.87a13.16,13.16,0,0,1-.84,1.7,3.15,3.15,0,0,1-.24.3l0,0a.47.47,0,0,1-.1.1l-.07.06a4.75,4.75,0,0,0-.74.71,4.55,4.55,0,0,0-.68,1.22,5.16,5.16,0,0,1-.68-1.78,4.94,4.94,0,0,1,.07-2l0-.14a4.74,4.74,0,0,1,.17-.53,4.69,4.69,0,0,1,.33-.72c-.15.16-.32.36-.5.58l-.31.42a.61.61,0,0,1-.07.1,6.14,6.14,0,0,0-.56,1,4.62,4.62,0,0,0-.35,1.3,3,3,0,0,0,0,.74"/><path class="cls-1" d="M534.6,52.29a13.83,13.83,0,0,0,1,3.12,2.88,2.88,0,0,1,0-.83c0-.64-.09-1.28-.11-1.92a12.67,12.67,0,0,0-.53-4.19,1.46,1.46,0,0,1-.07-.19,6.36,6.36,0,0,0-.26,4"/><path class="cls-1" d="M536.55,58h0a1,1,0,0,0-.37-.65A3.39,3.39,0,0,0,536,58h0a4.65,4.65,0,0,0,.41,2.78,5.71,5.71,0,0,0,.15-2.78"/><path class="cls-1" d="M532.2,51.16a4.17,4.17,0,0,0,.29.58,6.53,6.53,0,0,0,.32-2.18v-.05a2.11,2.11,0,0,0-.28-1,.89.89,0,0,0-.29-.29,3.47,3.47,0,0,0-.32,1.69,3.88,3.88,0,0,0,.27,1.18s0,0,0,0"/><path class="cls-1" d="M542.53,77.43l-.19-.24a4.75,4.75,0,0,1-.61-1.09l0-.08h0c0-.09-.07-.17-.1-.27s0,0,0,0a5.25,5.25,0,0,1-.15-2.57c-.53.63-1,.62-1.06.62-.73,0-1.49-1.21-1.5-3a5.77,5.77,0,0,0,.1,2.8A5.7,5.7,0,0,0,540.38,76l0,0a4.14,4.14,0,0,0,.38.35c.26.22.51.41.74.57a8.51,8.51,0,0,0,.78.46l.07,0,.16.08.12,0-.07-.09a.07.07,0,0,1-.05,0"/><path class="cls-1" d="M535.07,61.67a8.27,8.27,0,0,0-.89,2.89,6.31,6.31,0,0,1-1.26-4.14,4.3,4.3,0,0,0-.3-2.38h0c-.11-.15-.2-.15-.2-.15l0,.15h0c.08.55.14,2.65-2.51,5.85,0,0,1.86.38,2.23-.56a7.23,7.23,0,0,0,1.62,4.47,8.63,8.63,0,0,1,1.78,4.78,17.48,17.48,0,0,0,.4-3,9.22,9.22,0,0,0,2,4,5,5,0,0,1,.4-3.77c-1.24.69-1.92-.35-2.29-1.45a4.91,4.91,0,0,1-.2-.94,8.53,8.53,0,0,0-.26-1.24,11,11,0,0,1-.56-4.44"/><path class="cls-1" d="M541,55.49c-.17.61-.54,1.74-1,1.75-.75,0-1.3-2.67-1.36-2.94a11.39,11.39,0,0,0,.18,2.87c.06.3.14.59.22.88h0a11.7,11.7,0,0,0,3.06,5,11.3,11.3,0,0,1-1.22-3.94A10.18,10.18,0,0,1,540.8,58h0a12.33,12.33,0,0,1,.23-2.55"/><path class="cls-1" d="M536.66,7.43l.14.1.07,0,0,0h0l0,0h0l.21.09.19.06.24,0h0l.2,0h.6l.06,0,.16,0h0l0,0,.07,0a1.71,1.71,0,0,0,.23-.13l.06,0,0,0a2,2,0,0,0,.27-.23l0,0,.07-.08h0l.08-.1.06-.07h0l0-.06,0-.06h0a1.67,1.67,0,0,0,.12-.23l0-.06,0,0v0h0a2.13,2.13,0,0,0,.08-.27l0-.11h0c0-.06,0-.13,0-.19v0a1.34,1.34,0,0,0,0-.2s0,0,0-.06a3.32,3.32,0,0,0-.06-.44A.65.65,0,0,0,540,5a1.6,1.6,0,0,0-.2-.44H540a4.41,4.41,0,0,1,.6,0h0l.64.12h.06l.27.07.31.08.5.14.06,0h0a0,0,0,0,1,0,0h0l-.06,0,0,0h0L542,4.76l0,0-.17-.1-.13-.08h0l-.07,0-.25-.13h0l-.18-.09a6.19,6.19,0,0,0-.62-.24h0l-.14,0-.19-.06-.31-.09c-.19-.06-.37-.1-.54-.14l-.18-.05-.26,0-.43-.07h-.26a2.81,2.81,0,0,0-.41,0l-.25,0a4,4,0,0,0-.57.1l-.14,0a4,4,0,0,0-.45.16l-.1,0-.38.18-.14.07-.38.24,0,0h0l0,0a2.4,2.4,0,0,0-.23.21l0,.06,0,0a1.87,1.87,0,0,0-.2.29.76.76,0,0,0-.08.11l-.12.2,0,0c-.06.09-.12.19-.19.28h0l0,0h0l-.08.1-.1.1h0l0,0h0l0,0h0a.25.25,0,0,1-.14,0h0l0,0,.2,0h.41a1.43,1.43,0,0,0,.29,0h0l.08,0L535,6a.75.75,0,0,0,.24-.15l.22-.26.1-.13.05-.06,0,0,.07-.09h0a1.79,1.79,0,0,0,.14-.18h0a1.5,1.5,0,0,0-.06.29c0,.1,0,.2,0,.3s0,.06,0,.1,0,0,0,.08v0a2,2,0,0,0,0,.24s0,0,0,.06,0,0,0,0l0,.09s0,0,0,0,0,0,0,0l0,0a.49.49,0,0,0,0,.11h0v0l.06.1,0,.06a.43.43,0,0,1,0,.07.75.75,0,0,0,.07.12h0l0,0,.06.07,0,0,.15.16.09.08.07.06s0,0,0,0m1.24-3c.71,0,.83.83.83.83a1.78,1.78,0,0,0-1.74,0,.87.87,0,0,1,.91-.84"/><path class="cls-1" d="M555.68,33.47a7.48,7.48,0,0,0,2.06,1.32l.22.1.39.17.39.17a3.65,3.65,0,0,0-.28-1.89,3.09,3.09,0,0,0-.24-.44,2.11,2.11,0,0,0-.2-.29,3.72,3.72,0,0,0-.77-.78s1.21,1.51-.17,1.8H557a1.42,1.42,0,0,1-1.24-.5,4,4,0,0,1-.62-.85,5.84,5.84,0,0,1-.3-.64,1.87,1.87,0,0,0,0,.48,2.42,2.42,0,0,0,.77,1.34"/><path class="cls-1" d="M539.79,32.39c-1,1.18-1.69,1.65-2.16,1.71a.65.65,0,0,1-.67-.33,4.12,4.12,0,0,1-.26-2,11.82,11.82,0,0,0-.29,1.63c0,.28-.07.63-.09,1a8.08,8.08,0,0,0,.37,3.19,4.79,4.79,0,0,0,.83,1.47,4.25,4.25,0,0,0,.79.72,12.72,12.72,0,0,1,0-2.4,13.37,13.37,0,0,1,1.49-5"/><path class="cls-1" d="M539.63,11h0c0,.05,0,.12,0,.18h0a.92.92,0,0,0,0-.16"/><path class="cls-1" d="M539.41,12.48a4.57,4.57,0,0,0,.19-.85,4.44,4.44,0,0,0,0-.5,1.79,1.79,0,0,1-.15.62,1.47,1.47,0,0,1-.79.86,1.24,1.24,0,0,1-.69,0,2.42,2.42,0,0,1-1.45-1.31h0a5.72,5.72,0,0,0,.52,1.6,6,6,0,0,0,1,1.49,4.4,4.4,0,0,0,1.31-1.93"/><path class="cls-1" d="M538.5,23.59a3.17,3.17,0,0,1-1.24,1.71,2.88,2.88,0,0,0-.72.54,2.28,2.28,0,0,0-.5.92c2.53,0,2.46-3.17,2.46-3.17"/><path class="cls-1" d="M555.65,49.79a4.55,4.55,0,0,0-.38-.6,7.3,7.3,0,0,0-.25,1.35,7.05,7.05,0,0,0,0,1.37c0,.6.07,1.19.13,1.79.08.81.16,1.61.26,2.41a9.67,9.67,0,0,0,.78-2.57,6.58,6.58,0,0,0-.19-2.86,5.71,5.71,0,0,0-.35-.89"/><path class="cls-1" d="M542.11,44.84A2.13,2.13,0,0,1,541,46.31a1.22,1.22,0,0,1-1,0,1.59,1.59,0,0,1-.36-2,3.26,3.26,0,0,0-.78,1.32,3.32,3.32,0,0,0-.12,1.24,10.1,10.1,0,0,0,1.46,3.91,12.12,12.12,0,0,0,2.73-10.28,22.15,22.15,0,0,1-.81,4.28"/><path class="cls-1" d="M544.1,73.52a3.68,3.68,0,0,0,.6,2.79c.2-2.47-.6-2.79-.6-2.79"/><path class="cls-1" d="M542.91,29.71a3.93,3.93,0,0,1,.38,2,4.4,4.4,0,0,1-.23,1.14,7.17,7.17,0,0,0,1-1.76c.07-.2.14-.4.2-.63a6.71,6.71,0,0,0-.07-3.51,7.52,7.52,0,0,0-.55-1.42l-.1-.19c0,.06,0,.13.08.19a3.5,3.5,0,0,1,.29,1.42,1.69,1.69,0,0,1-.7,1.47,1.56,1.56,0,0,1-1.3,0,4.1,4.1,0,0,1,1,1.3"/><path class="cls-1" d="M558.89,38.5l0,.06c.05.15.09.31.13.48l0,.14a4.83,4.83,0,0,1,0,1.83,5.23,5.23,0,0,1-.68,1.79,2.24,2.24,0,0,0-.12-.29,4.4,4.4,0,0,0-.56-.93,4,4,0,0,0-.63-.62L557,40.9l-.08-.07-.13-.13c-.06-.07-.12-.13-.17-.2a11.56,11.56,0,0,1-.94-1.82c-.07,0,0,.35,0,.82a.13.13,0,0,0,0,.06,12.06,12.06,0,0,0,.24,1.69l.12.52s0,.09,0,.13l0,.1c.51,1.74,1.28,2.13,1.61,3.61,0,.07,0,.14.05.22a7.74,7.74,0,0,1,.1,1.07c0,.19,0,.36,0,.49.22-.34.52-.81.84-1.41a10.23,10.23,0,0,0,1.59-4.13,5.25,5.25,0,0,0-.87-3,.61.61,0,0,0-.07-.1l-.3-.43a7.93,7.93,0,0,0-.59-.7,7.64,7.64,0,0,1,.38.87"/><path class="cls-1" d="M488.93,36.21c-.6-.06-1-.45-.23-1.84a4.23,4.23,0,0,0-1.42,1.87,4.79,4.79,0,0,1-.24.68,1.91,1.91,0,0,1-.46.69,7,7,0,0,0,.8-.11,6.25,6.25,0,0,0,1.14-.32,3.66,3.66,0,0,0,1.7-1.16,3.56,3.56,0,0,1-1.29.19"/><path class="cls-1" d="M507.16,33a7.5,7.5,0,0,1-.49.77,2.78,2.78,0,0,1-1.09,1,5.89,5.89,0,0,0,2.22-1.11,2.2,2.2,0,0,0,.8-2.12S508,31.4,507.16,33"/><path class="cls-1" d="M514.9,32.39s0,0,0-.08a1.61,1.61,0,0,1,.28-.76,2.68,2.68,0,0,0-.9,1.19,1.73,1.73,0,0,1-.44.86l.2,0a5,5,0,0,0,.9-.2,2.42,2.42,0,0,0,1.2-.78s-1.15.38-1.23-.21"/><path class="cls-1" d="M523,32.92c-.36.63-2,1.35-2,1.35a5.53,5.53,0,0,0,1.36-.14,2.89,2.89,0,0,0,2.12-1.55,2.72,2.72,0,0,0,.23-1A5.56,5.56,0,0,0,523,32.92"/><path class="cls-1" d="M601,37.18a8.41,8.41,0,0,0,1.14.32,6.94,6.94,0,0,0,.81.11,1.91,1.91,0,0,1-.46-.69,4,4,0,0,1-.24-.68,4.23,4.23,0,0,0-1.42-1.87c.8,1.39.37,1.79-.23,1.84a4,4,0,0,1-1.3-.19,3.66,3.66,0,0,0,1.7,1.16"/><path class="cls-1" d="M581.74,33.65A5.82,5.82,0,0,0,584,34.76a2.78,2.78,0,0,1-1.09-1,6.11,6.11,0,0,1-.49-.77c-.87-1.56-1.44-1.43-1.44-1.43a2.19,2.19,0,0,0,.8,2.11"/><path class="cls-1" d="M574.61,33.37a4.42,4.42,0,0,0,.9.2l.2,0a1.64,1.64,0,0,1-.44-.86,2.75,2.75,0,0,0-.9-1.19,1.73,1.73,0,0,1,.28.76.22.22,0,0,1,0,.08c-.08.6-1.24.21-1.24.21a2.54,2.54,0,0,0,1.21.78"/><path class="cls-1" d="M566.5,32.92a5.58,5.58,0,0,0-1.72-1.35,2.65,2.65,0,0,0,2.35,2.55,5.56,5.56,0,0,0,1.36.14s-1.63-.71-2-1.34"/><path class="cls-1" d="M479.15,60.64a3.43,3.43,0,0,0-.17-.58,6.33,6.33,0,0,0-1.15,2.16,6.47,6.47,0,0,1-1.42,2.28,5.74,5.74,0,0,0,1-.51,3.29,3.29,0,0,0,1.78-3.35"/><path class="cls-1" d="M476.41,80.26a1.72,1.72,0,0,1-.34-.06c-.5-.17-.73-.68,0-2a5.54,5.54,0,0,0-.53.47,3.87,3.87,0,0,0-1.05,1.63,3.12,3.12,0,0,1-.75,1.49l0,0a7.76,7.76,0,0,0,3.2-1,3.12,3.12,0,0,0,.87-.79l-.38.11a4.43,4.43,0,0,1-1,.1"/><path class="cls-1" d="M498.9,76.51a3.1,3.1,0,0,0-1.26,1.15,4.51,4.51,0,0,1-1.5,1.42.77.77,0,0,1-.22.08,5.13,5.13,0,0,0,2.61-1.07,2,2,0,0,0,.65-1.61h-.07a.49.49,0,0,0-.21,0"/><path class="cls-1" d="M509,74.87c-.51.08-.95-.11-.73-1.19a2.59,2.59,0,0,1,.1-.4,4.51,4.51,0,0,0-.4.59,3,3,0,0,0-.46,1.39,2.67,2.67,0,0,1-.3,1.32l0,0A5.39,5.39,0,0,0,510,74.56s.05-.09.07-.14-.14.09-.34.19a3.23,3.23,0,0,1-.76.26"/><path class="cls-1" d="M612.16,64a6.22,6.22,0,0,0,1,.51,6.57,6.57,0,0,1-1.42-2.28,6.16,6.16,0,0,0-1.15-2.16,3.43,3.43,0,0,0-.17.58A3.32,3.32,0,0,0,612.16,64"/><path class="cls-1" d="M612.6,80.83a7.76,7.76,0,0,0,3.2,1l0,0a3.25,3.25,0,0,1-.74-1.49,3.94,3.94,0,0,0-1-1.63,5.54,5.54,0,0,0-.53-.47c.76,1.32.53,1.84,0,2a1.86,1.86,0,0,1-.34.06,3.62,3.62,0,0,1-1-.12,3.25,3.25,0,0,1-.38-.11,3.2,3.2,0,0,0,.87.81"/><path class="cls-1" d="M593.62,79.16l-.22-.08a4.51,4.51,0,0,1-1.5-1.42,3.11,3.11,0,0,0-1.25-1.15.53.53,0,0,0-.22,0h-.07a2,2,0,0,0,.65,1.61,5.13,5.13,0,0,0,2.61,1.07"/><path class="cls-1" d="M582.37,76.62l0,0a2.61,2.61,0,0,1-.3-1.33,3.1,3.1,0,0,0-.46-1.39,4.51,4.51,0,0,0-.4-.59c0,.15.07.28.1.4.22,1.08-.22,1.27-.73,1.19a3,3,0,0,1-.76-.26c-.2-.1-.34-.19-.34-.19l.07.14a5.37,5.37,0,0,0,2.85,2.07"/><path class="cls-1" d="M546.52,4.57a6.17,6.17,0,0,0-.93-.64,8.1,8.1,0,0,1,.93.64Z"/><path class="cls-1" d="M525.67,34.23h0l0,0,0,0"/><path class="cls-1" d="M526.12,33.46h0l0,0,0,0"/><path class="cls-1" d="M526.1,33.5Z"/><path class="cls-1" d="M526.14,33.43l0,0,0,0"/><path class="cls-1" d="M526.1,33.51l0,0a.43.43,0,0,1,0,.07l.06-.1"/><path class="cls-1" d="M526.16,33.4s0,0,0,0a0,0,0,0,1,0,0"/><path class="cls-1" d="M526.15,33.42h0"/><path class="cls-1" d="M526.21,33.3h0l-.05.09a.41.41,0,0,0,.05-.09"/><path class="cls-1" d="M518.83,32.77h0c.36-.51.77-1.1,1.21-1.75-.44.65-.85,1.24-1.21,1.75"/><path class="cls-1" d="M526,33.63v0l0,0s0,0,0,0"/><path class="cls-1" d="M518.32,33.49h0c-.13.17-.27.38-.38.53.11-.16.25-.37.38-.53"/><path class="cls-1" d="M547.07,5.09l-.15-.15.15.15"/></g></g></svg>