<svg width="20" height="21" viewBox="0 0 20 21" fill="none" xmlns="http://www.w3.org/2000/svg">
<path d="M18 7.44336H15.5C14.673 7.44336 14 6.77036 14 5.94336V2.44336H6V18.4434H18V7.44336Z" fill="white"/>
<path d="M18 6.44336V6.15036L15 3.15036V5.94336C15 6.21836 15.225 6.44336 15.5 6.44336H18Z" fill="white"/>
<path opacity="0.64" fill-rule="evenodd" clip-rule="evenodd" d="M18.707 5.44336L15 1.73636C14.8125 1.54881 14.5582 1.44342 14.293 1.44336H6C5.44772 1.44336 5 1.89107 5 2.44336V18.4434C5 18.9956 5.44772 19.4434 6 19.4434H18C18.5523 19.4434 19 18.9956 19 18.4434V6.15036C18.9999 5.88516 18.8945 5.63085 18.707 5.44336ZM18 6.15036V6.44336H15.5C15.2241 6.44281 15.0006 6.21927 15 5.94336V3.15036L18 6.15036ZM6 2.64336V18.2434C6 18.3538 6.08954 18.4434 6.2 18.4434H17.8C17.9105 18.4434 18 18.3538 18 18.2434V7.44336H15.5C14.6716 7.44336 14 6.77179 14 5.94336V2.44336H6.2C6.09 2.44336 6 2.53336 6 2.64336Z" fill="#3F4948"/>
<path d="M2 16.4434H10C10.5523 16.4434 11 15.9956 11 15.4434V7.44336C11 6.89107 10.5523 6.44336 10 6.44336H2C1.44772 6.44336 1 6.89107 1 7.44336V15.4434C1 15.9956 1.44772 16.4434 2 16.4434Z" fill="#0D6D2D"/>
<path d="M4.60602 14.4434L8.31302 8.44336H7.15002L3.39502 14.4434H4.60602Z" fill="white"/>
<path d="M7.37299 14.4434L3.66699 8.44336H4.82899L8.58299 14.4434H7.37299Z" fill="white"/>
<path fill-rule="evenodd" clip-rule="evenodd" d="M16.084 14.3254H17V10.5834C17 9.15636 16.327 8.44336 14.982 8.44336C14.6146 8.45162 14.2501 8.51085 13.899 8.61936C13.493 8.73636 13.206 8.85836 13.039 8.98536V9.92336C13.594 9.45836 14.216 9.22536 14.904 9.22536C15.691 9.22536 16.084 9.70936 16.084 10.6784L14.369 10.9184C13.109 11.0974 12.479 11.7184 12.479 12.7834C12.479 13.2914 12.646 13.6934 12.977 13.9934C13.308 14.2934 13.751 14.4434 14.301 14.4434C15.075 14.4434 15.663 14.0994 16.061 13.4104H16.084V14.3254ZM14.698 11.6054L16.084 11.4104V11.9794C16.084 12.4604 15.935 12.8614 15.639 13.1814C15.344 13.5014 14.968 13.6614 14.514 13.6614C14.193 13.6614 13.93 13.5754 13.725 13.4024C13.52 13.2284 13.418 12.9984 13.418 12.7124C13.418 12.3574 13.513 12.1024 13.703 11.9434C13.893 11.7854 14.225 11.6724 14.698 11.6054Z" fill="#0D6D2D"/>
</svg>
