<svg width="20" height="21" viewBox="0 0 20 21" fill="none" xmlns="http://www.w3.org/2000/svg">
<path d="M3.5 17.4434H16.5C16.775 17.4434 17 17.2184 17 16.9434V3.94336C17 3.66836 16.775 3.44336 16.5 3.44336H3.5C3.225 3.44336 3 3.66836 3 3.94336V16.9434C3 17.2184 3.225 17.4434 3.5 17.4434Z" fill="white"/>
<path opacity="0.64" fill-rule="evenodd" clip-rule="evenodd" d="M3.5 18.4434H16.5C17.327 18.4434 18 17.7704 18 16.9434V3.94336C18 3.11636 17.327 2.44336 16.5 2.44336H3.5C2.673 2.44336 2 3.11636 2 3.94336V16.9434C2 17.7704 2.673 18.4434 3.5 18.4434ZM3 3.94336C3 3.66722 3.22386 3.44336 3.5 3.44336H16.5C16.7761 3.44336 17 3.66722 17 3.94336V16.9434C17 17.2195 16.7761 17.4434 16.5 17.4434H3.5C3.22386 17.4434 3 17.2195 3 16.9434V3.94336Z" fill="#3F4948"/>
<path fill-rule="evenodd" clip-rule="evenodd" d="M12.5 10.4434L8.5 7.94336V12.9434L12.5 10.4434Z" stroke="#006687" stroke-linecap="round" stroke-linejoin="round"/>
</svg>
