<svg width="20" height="21" viewBox="0 0 20 21" fill="none" xmlns="http://www.w3.org/2000/svg">
<path d="M18 7.44336H15.5C14.673 7.44336 14 6.77036 14 5.94336V2.44336H6V18.4434H18V7.44336Z" fill="white"/>
<path d="M18 6.44336V6.15036L15 3.15036V5.94336C15 6.21836 15.225 6.44336 15.5 6.44336H18Z" fill="white"/>
<path opacity="0.64" fill-rule="evenodd" clip-rule="evenodd" d="M18.707 5.44336L15 1.73636C14.8125 1.54881 14.5582 1.44342 14.293 1.44336H6C5.44772 1.44336 5 1.89107 5 2.44336V18.4434C5 18.9956 5.44772 19.4434 6 19.4434H18C18.5523 19.4434 19 18.9956 19 18.4434V6.15036C18.9999 5.88516 18.8945 5.63085 18.707 5.44336ZM18 6.15036V6.44336H15.5C15.2241 6.44281 15.0006 6.21927 15 5.94336V3.15036L18 6.15036ZM6 2.64336V18.2434C6 18.3538 6.08954 18.4434 6.2 18.4434H17.8C17.9105 18.4434 18 18.3538 18 18.2434V7.44336H15.5C14.6716 7.44336 14 6.77179 14 5.94336V2.44336H6.2C6.09 2.44336 6 2.53336 6 2.64336Z" fill="#3F4948"/>
<path d="M15.95 11.4434H14L13 10.4434L12 11.4434V13.9324C12.419 14.2484 12.935 14.4434 13.5 14.4434C14.2508 14.4435 14.9619 14.1062 15.4368 13.5247C15.9118 12.9432 16.1002 12.179 15.95 11.4434Z" fill="#DD6B51"/>
<path d="M13.5 9.44336C12.9578 9.44449 12.4309 9.62328 12 9.95236V11.4434H14V9.49336C13.8354 9.46001 13.6679 9.44326 13.5 9.44336V9.44336Z" fill="#FFEBE6"/>
<path d="M15 10.4434H17C16.7939 9.43641 16.0069 8.6495 15 8.44336V10.4434H15Z" fill="#FFEBE6"/>
<path d="M2 16.4434H10C10.5523 16.4434 11 15.9956 11 15.4434V7.44336C11 6.89107 10.5523 6.44336 10 6.44336H2C1.44772 6.44336 1 6.89107 1 7.44336V15.4434C1 15.9956 1.44772 16.4434 2 16.4434Z" fill="#DD6B51"/>
<path fill-rule="evenodd" clip-rule="evenodd" d="M7.50496 8.92436C7.17596 8.60336 6.69996 8.44336 6.07996 8.44336H4.01196V14.4434H4.99996V12.3224H6.01496C6.37901 12.33 6.73878 12.2428 7.05896 12.0694C7.35996 11.9004 7.59096 11.6644 7.75496 11.3594C7.91896 11.0554 7.99996 10.7074 7.99996 10.3174C7.99996 9.71036 7.83496 9.24536 7.50496 8.92436ZM5.89896 11.4434H4.99996V9.43136H5.93096C6.35896 9.43136 6.99996 9.43536 6.99996 10.4434C6.99996 11.3414 6.40596 11.4434 5.89896 11.4434Z" fill="#E0E3E2"/>
</svg>
