<svg width="20" height="21" viewBox="0 0 20 21" fill="none" xmlns="http://www.w3.org/2000/svg">
<path d="M18 7.44336H15.5C14.673 7.44336 14 6.77036 14 5.94336V2.44336H6V18.4434H18V7.44336Z" fill="white"/>
<path d="M18 6.44336V6.15036L15 3.15036V5.94336C15 6.21836 15.225 6.44336 15.5 6.44336H18Z" fill="white"/>
<path opacity="0.64" fill-rule="evenodd" clip-rule="evenodd" d="M18.707 5.44336L15 1.73636C14.8125 1.54881 14.5582 1.44342 14.293 1.44336H6C5.44772 1.44336 5 1.89107 5 2.44336V18.4434C5 18.9956 5.44772 19.4434 6 19.4434H18C18.5523 19.4434 19 18.9956 19 18.4434V6.15036C18.9999 5.88516 18.8945 5.63085 18.707 5.44336ZM18 6.15036V6.44336H15.5C15.2241 6.44281 15.0006 6.21927 15 5.94336V3.15036L18 6.15036ZM6 2.64336V18.2434C6 18.3538 6.08954 18.4434 6.2 18.4434H17.8C17.9105 18.4434 18 18.3538 18 18.2434V7.44336H15.5C14.6716 7.44336 14 6.77179 14 5.94336V2.44336H6.2C6.09 2.44336 6 2.53336 6 2.64336Z" fill="#3F4948"/>
<path d="M16.5 12.4434H12V13.4434H16.5C16.7761 13.4434 17 13.2195 17 12.9434C17 12.6672 16.7761 12.4434 16.5 12.4434Z" fill="#006A67"/>
<path d="M16.5 10.4434H12V11.4434H16.5C16.7761 11.4434 17 11.2195 17 10.9434C17 10.6672 16.7761 10.4434 16.5 10.4434Z" fill="#006A67"/>
<path d="M16.5 8.44336H12V9.44336H16.5C16.7761 9.44336 17 9.2195 17 8.94336C17 8.66722 16.7761 8.44336 16.5 8.44336Z" fill="#006687"/>
<path d="M2 16.4434H10C10.5523 16.4434 11 15.9956 11 15.4434V7.44336C11 6.89107 10.5523 6.44336 10 6.44336H2C1.44772 6.44336 1 6.89107 1 7.44336V15.4434C1 15.9956 1.44772 16.4434 2 16.4434Z" fill="#006A67"/>
<path d="M7.21 14.3794L6 9.93935L4.794 14.3794H3.918L2.755 8.53735H3.641L4.449 12.3634L5.523 8.53735H6.389L7.54201 12.4534L8.34401 8.53735H9.229L8.085 14.3794H7.21Z" fill="white"/>
</svg>
