<svg width="30" height="31" viewBox="0 0 30 31" fill="none" xmlns="http://www.w3.org/2000/svg">
<g clip-path="url(#clip0_3833_8814)">
<path d="M3.10076 23.8493C8.84403 31.7131 20.5743 31.7754 26.3338 23.9096C30.9988 17.5005 29.4067 8.56285 22.8492 4.09354C19.047 1.47062 14.1827 0.860844 9.82821 2.40285C7.16495 3.35619 4.8284 5.08203 3.10178 7.31719L3.03906 7.27299C3.14628 7.11427 3.42748 6.72651 3.53166 6.57381C3.6409 6.43016 3.95345 6.05244 4.06876 5.90577C4.43492 5.48988 4.86076 5.04587 5.26435 4.67016C5.67805 4.29947 6.15345 3.90367 6.60357 3.58121C7.06076 3.26276 7.58472 2.92925 8.07023 2.66002C8.73175 2.30441 9.47722 1.96587 10.1873 1.71975C14.6288 0.141575 19.7237 0.849794 23.542 3.60934C27.3695 6.31865 29.6869 10.9226 29.6312 15.5838C29.5726 25.756 19.2563 32.797 9.69571 29.1082C9.1849 28.9063 8.62049 28.6471 8.13092 28.392C7.64844 28.1328 7.12044 27.8073 6.66426 27.4979C6.21617 27.1835 5.73065 26.7997 5.31492 26.4401C5.10757 26.2623 4.89515 26.0373 4.68982 25.8544C4.56237 25.7289 4.23263 25.3692 4.10113 25.2336C3.89175 24.9805 3.56706 24.6158 3.37994 24.3516L3.03906 23.8945L3.10076 23.8493Z" fill="#00AFE7"/>
<path d="M10.0161 8.67529H13.5675L19.2268 21.9737H15.2759L14.3261 19.5969H9.17859L8.22879 21.9737H4.375L10.0161 8.67529ZM13.2448 16.749L11.764 13.014L10.2639 16.749H13.2448Z" fill="#1A2A55"/>
<path d="M10.0161 8.67529H13.5675L19.2268 21.9737H15.2759L14.3261 19.5969H9.1796L8.2298 21.9737H4.375L10.0161 8.67529ZM13.2448 16.749L11.763 13.014L10.2629 16.749H13.2448Z" fill="#1A2A55"/>
<mask id="mask0_3833_8814" style="mask-type:luminance" maskUnits="userSpaceOnUse" x="4" y="8" width="16" height="14">
<path d="M10.0161 8.67529H13.5675L19.2268 21.9737H15.2759L14.3261 19.5969H9.1796L8.2298 21.9737H4.375L10.0161 8.67529ZM13.2448 16.749L11.763 13.014L10.2629 16.749H13.2448Z" fill="white"/>
</mask>
<g mask="url(#mask0_3833_8814)">
<path d="M4.85025 12.6535H4.73089V9.96631L4.01172 9.25206V1.57617H4.13209V9.20284L4.85025 9.91708V12.6535Z" fill="white"/>
<path d="M6.28756 9.22796H6.16821V5.63463L6.88637 4.92038V2.82888L6.2026 2.14979H5.65234V2.03125H6.25216L7.00673 2.77965V4.96961L6.28756 5.68385V9.22796Z" fill="white"/>
<path d="M6.25126 13.5697H5.50781V13.4511H6.2017L6.88547 12.772V7.08618H7.00584V12.8213L6.25126 13.5697Z" fill="white"/>
<path d="M6.28716 12.0828H6.1678V11.3937L5.44863 10.6795V7.82449L4.73047 7.11125V4.92029L5.46583 4.18896L5.55079 4.27335L4.84983 4.96951V7.06202L5.569 7.77527V10.6302L6.28716 11.3445V12.0828Z" fill="white"/>
<path d="M4.78925 12.999C4.67697 12.999 4.58594 12.9086 4.58594 12.7971C4.58594 12.6856 4.67697 12.5952 4.78925 12.5952C4.90152 12.5952 4.99256 12.6856 4.99256 12.7971C4.99256 12.9076 4.90152 12.999 4.78925 12.999ZM4.78925 12.7138C4.74272 12.7138 4.70529 12.7509 4.70529 12.7971C4.70529 12.8433 4.74272 12.8805 4.78925 12.8805C4.83578 12.8805 4.8732 12.8433 4.8732 12.7971C4.8732 12.7509 4.83578 12.7138 4.78925 12.7138Z" fill="white"/>
<path d="M5.508 12.999C5.39572 12.999 5.30469 12.9086 5.30469 12.7971C5.30469 12.6856 5.39572 12.5952 5.508 12.5952C5.62027 12.5952 5.71131 12.6856 5.71131 12.7971C5.71232 12.9076 5.62027 12.999 5.508 12.999ZM5.508 12.7138C5.46147 12.7138 5.42404 12.7509 5.42404 12.7971C5.42404 12.8433 5.46147 12.8805 5.508 12.8805C5.55453 12.8805 5.59195 12.8433 5.59195 12.7971C5.59195 12.7509 5.55453 12.7138 5.508 12.7138Z" fill="white"/>
<path d="M5.508 12.2847C5.39572 12.2847 5.30469 12.1943 5.30469 12.0828C5.30469 11.9713 5.39572 11.8809 5.508 11.8809C5.62027 11.8809 5.71131 11.9713 5.71131 12.0828C5.71232 12.1943 5.62027 12.2847 5.508 12.2847ZM5.508 11.9994C5.46147 11.9994 5.42404 12.0366 5.42404 12.0828C5.42404 12.129 5.46147 12.1662 5.508 12.1662C5.55453 12.1662 5.59195 12.129 5.59195 12.0828C5.59195 12.0366 5.55453 11.9994 5.508 11.9994Z" fill="white"/>
<path d="M6.21893 12.999C6.10666 12.999 6.01562 12.9086 6.01562 12.7971C6.01562 12.6856 6.10666 12.5952 6.21893 12.5952C6.33121 12.5952 6.42225 12.6856 6.42225 12.7971C6.42225 12.9076 6.33121 12.999 6.21893 12.999ZM6.21893 12.7138C6.17241 12.7138 6.13498 12.7509 6.13498 12.7971C6.13498 12.8433 6.17241 12.8805 6.21893 12.8805C6.26546 12.8805 6.30289 12.8433 6.30289 12.7971C6.30188 12.7509 6.26445 12.7138 6.21893 12.7138Z" fill="white"/>
<path d="M6.94159 13.7163C6.82932 13.7163 6.73828 13.6259 6.73828 13.5144C6.73828 13.4029 6.82932 13.3125 6.94159 13.3125C7.05387 13.3125 7.1449 13.4029 7.1449 13.5144C7.14591 13.6259 7.05387 13.7163 6.94159 13.7163ZM6.94159 13.431C6.89506 13.431 6.85764 13.4682 6.85764 13.5144C6.85764 13.5606 6.89506 13.5978 6.94159 13.5978C6.98812 13.5978 7.02555 13.5606 7.02555 13.5144C7.02555 13.4682 6.98812 13.431 6.94159 13.431Z" fill="white"/>
<path d="M6.22675 9.57254C6.11447 9.57254 6.02344 9.48213 6.02344 9.37062C6.02344 9.25911 6.11447 9.1687 6.22675 9.1687C6.33902 9.1687 6.43006 9.25911 6.43006 9.37062C6.43006 9.48213 6.33902 9.57254 6.22675 9.57254ZM6.22675 9.28724C6.18022 9.28724 6.14279 9.32441 6.14279 9.37062C6.14279 9.41683 6.18022 9.454 6.22675 9.454C6.27328 9.454 6.3107 9.41683 6.3107 9.37062C6.3107 9.32441 6.27328 9.28724 6.22675 9.28724Z" fill="white"/>
<path d="M4.78925 9.57254C4.67697 9.57254 4.58594 9.48213 4.58594 9.37062C4.58594 9.25911 4.67697 9.1687 4.78925 9.1687C4.90152 9.1687 4.99256 9.25911 4.99256 9.37062C4.99256 9.48213 4.90152 9.57254 4.78925 9.57254ZM4.78925 9.28724C4.74272 9.28724 4.70529 9.32441 4.70529 9.37062C4.70529 9.41683 4.74272 9.454 4.78925 9.454C4.83578 9.454 4.8732 9.41683 4.8732 9.37062C4.8732 9.32441 4.83578 9.28724 4.78925 9.28724Z" fill="white"/>
<path d="M5.50804 13.5105C5.50804 13.621 5.41802 13.7104 5.30676 13.7104C5.19549 13.7104 5.10547 13.621 5.10547 13.5105C5.10547 13.4 5.19549 13.3105 5.30676 13.3105C5.41802 13.3105 5.50804 13.4 5.50804 13.5105Z" fill="white"/>
<path d="M4.99046 13.5105C4.99046 13.621 4.90044 13.7104 4.78918 13.7104C4.67791 13.7104 4.58789 13.621 4.58789 13.5105C4.58789 13.4 4.67791 13.3105 4.78918 13.3105C4.90044 13.3105 4.99046 13.4 4.99046 13.5105Z" fill="white"/>
<path d="M6.42797 12.2827C6.42797 12.3932 6.33794 12.4826 6.22668 12.4826C6.11541 12.4826 6.02539 12.3932 6.02539 12.2827C6.02539 12.1722 6.11541 12.0828 6.22668 12.0828C6.33794 12.0828 6.42797 12.1722 6.42797 12.2827Z" fill="white"/>
<path d="M6.81468 10.6623C6.81468 10.7728 6.72466 10.8622 6.6134 10.8622C6.50213 10.8622 6.41211 10.7728 6.41211 10.6623C6.41211 10.5518 6.50213 10.4624 6.6134 10.4624C6.72466 10.4624 6.81468 10.5518 6.81468 10.6623Z" fill="white"/>
<path d="M5.70921 11.3625C5.70921 11.473 5.61919 11.5624 5.50793 11.5624C5.39666 11.5624 5.30664 11.473 5.30664 11.3625C5.30664 11.252 5.39666 11.1626 5.50793 11.1626C5.61919 11.1626 5.70921 11.252 5.70921 11.3625Z" fill="white"/>
<path d="M4.60547 13.4109L4.01172 12.8212V10.8623H4.13209V12.772L4.69043 13.3265L4.60547 13.4109Z" fill="white"/>
<path d="M4.85084 7.85254H4.73047V9.22679H4.85084V7.85254Z" fill="white"/>
<path d="M6.02559 12.7368H5.65234V12.8564H6.02559V12.7368Z" fill="white"/>
<path d="M5.90253 10.148C5.79025 10.148 5.69922 10.0576 5.69922 9.94606C5.69922 9.83455 5.79025 9.74414 5.90253 9.74414C6.01481 9.74414 6.10584 9.83455 6.10584 9.94606C6.10685 10.0566 6.01481 10.148 5.90253 10.148ZM5.90253 9.86268C5.856 9.86268 5.81858 9.89985 5.81858 9.94606C5.81858 9.99227 5.856 10.0294 5.90253 10.0294C5.94906 10.0294 5.98648 9.99227 5.98648 9.94606C5.98648 9.89985 5.94906 9.86268 5.90253 9.86268Z" fill="white"/>
<path d="M6.61347 10.148C6.50119 10.148 6.41016 10.0576 6.41016 9.94606C6.41016 9.83455 6.50119 9.74414 6.61347 9.74414C6.72574 9.74414 6.81678 9.83455 6.81678 9.94606C6.81678 10.0566 6.72574 10.148 6.61347 10.148ZM6.61347 9.86268C6.56694 9.86268 6.52951 9.89985 6.52951 9.94606C6.52951 9.99227 6.56694 10.0294 6.61347 10.0294C6.66 10.0294 6.69742 9.99227 6.69742 9.94606C6.69742 9.89985 6.65898 9.86268 6.61347 9.86268Z" fill="white"/>
<path d="M6.42012 9.88574H6.04688V10.0053H6.42012V9.88574Z" fill="white"/>
<path d="M8.20962 12.6535H8.08925V9.96631L7.37109 9.25206V1.57617H7.49045V9.20284L8.20962 9.91708V12.6535Z" fill="white"/>
<path d="M9.64694 9.22796H9.52657V5.63463L10.2457 4.92038V2.82888L9.56197 2.14979H9.01172V2.03125H9.61153L10.3651 2.77965V4.96961L9.64694 5.68385V9.22796Z" fill="white"/>
<path d="M9.61064 13.5697H8.86719V13.4511H9.56107L10.2448 12.772V7.08618H10.3642V12.8213L9.61064 13.5697Z" fill="white"/>
<path d="M9.64559 12.0828H9.52522V11.3937L8.80706 10.6795V7.82449L8.08789 7.11125V4.92029L8.82426 4.18896L8.90922 4.27335L8.20826 4.96951V7.06202L8.92642 7.77527V10.6302L9.64559 11.3445V12.0828Z" fill="white"/>
<path d="M8.14862 12.999C8.03635 12.999 7.94531 12.9086 7.94531 12.7971C7.94531 12.6856 8.03635 12.5952 8.14862 12.5952C8.2609 12.5952 8.35193 12.6856 8.35193 12.7971C8.35294 12.9076 8.26191 12.999 8.14862 12.999ZM8.14862 12.7138C8.10209 12.7138 8.06467 12.7509 8.06467 12.7971C8.06467 12.8433 8.10209 12.8805 8.14862 12.8805C8.19515 12.8805 8.23258 12.8433 8.23258 12.7971C8.23258 12.7509 8.19515 12.7138 8.14862 12.7138Z" fill="white"/>
<path d="M8.86737 12.999C8.7551 12.999 8.66406 12.9086 8.66406 12.7971C8.66406 12.6856 8.7551 12.5952 8.86737 12.5952C8.97965 12.5952 9.07068 12.6856 9.07068 12.7971C9.07068 12.9076 8.97965 12.999 8.86737 12.999ZM8.86737 12.7138C8.82084 12.7138 8.78342 12.7509 8.78342 12.7971C8.78342 12.8433 8.82084 12.8805 8.86737 12.8805C8.9139 12.8805 8.95133 12.8433 8.95133 12.7971C8.95133 12.7509 8.9139 12.7138 8.86737 12.7138Z" fill="white"/>
<path d="M8.86737 12.2847C8.7551 12.2847 8.66406 12.1943 8.66406 12.0828C8.66406 11.9713 8.7551 11.8809 8.86737 11.8809C8.97965 11.8809 9.07068 11.9713 9.07068 12.0828C9.07068 12.1943 8.97965 12.2847 8.86737 12.2847ZM8.86737 11.9994C8.82084 11.9994 8.78342 12.0366 8.78342 12.0828C8.78342 12.129 8.82084 12.1662 8.86737 12.1662C8.9139 12.1662 8.95133 12.129 8.95133 12.0828C8.95133 12.0366 8.9139 11.9994 8.86737 11.9994Z" fill="white"/>
<path d="M9.57636 12.999C9.46408 12.999 9.37305 12.9086 9.37305 12.7971C9.37305 12.6856 9.46408 12.5952 9.57636 12.5952C9.68863 12.5952 9.77967 12.6856 9.77967 12.7971C9.78068 12.9076 9.68863 12.999 9.57636 12.999ZM9.57636 12.7138C9.52983 12.7138 9.4924 12.7509 9.4924 12.7971C9.4924 12.8433 9.52983 12.8805 9.57636 12.8805C9.62289 12.8805 9.66031 12.8433 9.66031 12.7971C9.66031 12.7509 9.62289 12.7138 9.57636 12.7138Z" fill="white"/>
<path d="M10.301 13.7163C10.1887 13.7163 10.0977 13.6259 10.0977 13.5144C10.0977 13.4029 10.1887 13.3125 10.301 13.3125C10.4132 13.3125 10.5043 13.4029 10.5043 13.5144C10.5043 13.6259 10.4132 13.7163 10.301 13.7163ZM10.301 13.431C10.2544 13.431 10.217 13.4682 10.217 13.5144C10.217 13.5606 10.2544 13.5978 10.301 13.5978C10.3475 13.5978 10.3849 13.5606 10.3849 13.5144C10.3849 13.4682 10.3465 13.431 10.301 13.431Z" fill="white"/>
<path d="M9.58612 9.57254C9.47385 9.57254 9.38281 9.48212 9.38281 9.37062C9.38281 9.25911 9.47385 9.1687 9.58612 9.1687C9.6984 9.1687 9.78943 9.25911 9.78943 9.37062C9.79044 9.48212 9.69941 9.57254 9.58612 9.57254ZM9.58612 9.28724C9.53959 9.28724 9.50217 9.32441 9.50217 9.37062C9.50217 9.41683 9.53959 9.454 9.58612 9.454C9.63265 9.454 9.67008 9.41683 9.67008 9.37062C9.67008 9.32441 9.63265 9.28724 9.58612 9.28724Z" fill="white"/>
<path d="M8.14862 9.57254C8.03635 9.57254 7.94531 9.48212 7.94531 9.37062C7.94531 9.25911 8.03635 9.1687 8.14862 9.1687C8.2609 9.1687 8.35193 9.25911 8.35193 9.37062C8.35294 9.48212 8.26191 9.57254 8.14862 9.57254ZM8.14862 9.28724C8.10209 9.28724 8.06467 9.32441 8.06467 9.37062C8.06467 9.41683 8.10209 9.454 8.14862 9.454C8.19515 9.454 8.23258 9.41683 8.23258 9.37062C8.23258 9.32441 8.19515 9.28724 8.14862 9.28724Z" fill="white"/>
<path d="M8.86742 13.5105C8.86742 13.621 8.7774 13.7104 8.66613 13.7104C8.55487 13.7104 8.46484 13.621 8.46484 13.5105C8.46484 13.4 8.55487 13.3105 8.66613 13.3105C8.7774 13.3105 8.86742 13.4 8.86742 13.5105Z" fill="white"/>
<path d="M8.34984 13.5105C8.34984 13.621 8.25982 13.7104 8.14855 13.7104C8.03729 13.7104 7.94727 13.621 7.94727 13.5105C7.94727 13.4 8.03729 13.3105 8.14855 13.3105C8.25982 13.3105 8.34984 13.4 8.34984 13.5105Z" fill="white"/>
<path d="M9.78734 12.2827C9.78734 12.3932 9.69732 12.4826 9.58605 12.4826C9.47479 12.4826 9.38477 12.3932 9.38477 12.2827C9.38477 12.1722 9.47479 12.0828 9.58605 12.0828C9.69732 12.0828 9.78734 12.1722 9.78734 12.2827Z" fill="white"/>
<path d="M10.1741 10.6623C10.1741 10.7728 10.084 10.8622 9.97277 10.8622C9.86151 10.8622 9.77148 10.7728 9.77148 10.6623C9.77148 10.5518 9.86151 10.4624 9.97277 10.4624C10.084 10.4624 10.1741 10.5518 10.1741 10.6623Z" fill="white"/>
<path d="M9.06859 11.3625C9.06859 11.473 8.97857 11.5624 8.8673 11.5624C8.75604 11.5624 8.66602 11.473 8.66602 11.3625C8.66602 11.252 8.75604 11.1626 8.8673 11.1626C8.97857 11.1626 9.06859 11.252 9.06859 11.3625Z" fill="white"/>
<path d="M7.63109 10.6623C7.63109 10.7728 7.54107 10.8622 7.4298 10.8622C7.31854 10.8622 7.22852 10.7728 7.22852 10.6623C7.22852 10.5518 7.31854 10.4624 7.4298 10.4624C7.54107 10.4624 7.63109 10.5518 7.63109 10.6623Z" fill="white"/>
<path d="M7.96484 13.4109L7.37109 12.8212V10.8623H7.49045V12.772L8.04981 13.3265L7.96484 13.4109Z" fill="white"/>
<path d="M8.20826 7.85254H8.08789V9.22679H8.20826V7.85254Z" fill="white"/>
<path d="M9.38496 12.7368H9.01172V12.8564H9.38496V12.7368Z" fill="white"/>
<path d="M9.2619 10.148C9.14963 10.148 9.05859 10.0576 9.05859 9.94606C9.05859 9.83455 9.14963 9.74414 9.2619 9.74414C9.37418 9.74414 9.46521 9.83455 9.46521 9.94606C9.46521 10.0566 9.37418 10.148 9.2619 10.148ZM9.2619 9.86268C9.21538 9.86268 9.17795 9.89985 9.17795 9.94606C9.17795 9.99227 9.21538 10.0294 9.2619 10.0294C9.30843 10.0294 9.34586 9.99227 9.34586 9.94606C9.34586 9.89985 9.30843 9.86268 9.2619 9.86268Z" fill="white"/>
<path d="M9.97284 10.148C9.86057 10.148 9.76953 10.0576 9.76953 9.94606C9.76953 9.83455 9.86057 9.74414 9.97284 9.74414C10.0851 9.74414 10.1762 9.83455 10.1762 9.94606C10.1772 10.0566 10.0851 10.148 9.97284 10.148ZM9.97284 9.86268C9.92631 9.86268 9.88889 9.89985 9.88889 9.94606C9.88889 9.99227 9.92631 10.0294 9.97284 10.0294C10.0194 10.0294 10.0568 9.99227 10.0568 9.94606C10.0568 9.89985 10.0194 9.86268 9.97284 9.86268Z" fill="white"/>
<path d="M9.77949 9.88574H9.40625V10.0053H9.77949V9.88574Z" fill="white"/>
<path d="M11.567 12.6535H11.4477V9.96631L10.7285 9.25206V1.57617H10.8489V9.20284L11.567 9.91708V12.6535Z" fill="white"/>
<path d="M13.0053 9.22796H12.8859V5.63463L13.6041 4.92038V2.82888L12.9203 2.14979H12.3711V2.03125H12.9709L13.7245 2.77965V4.96961L13.0053 5.68385V9.22796Z" fill="white"/>
<path d="M12.97 13.5697H12.2266V13.4511H12.9194L13.6032 12.772V7.08618H13.7236V12.8213L12.97 13.5697Z" fill="white"/>
<path d="M13.004 12.0828H12.8846V11.3937L12.1654 10.6795V7.82449L11.4473 7.11125V4.92029L12.1836 4.18896L12.2686 4.27335L11.5666 4.96951V7.06202L12.2858 7.77527V10.6302L13.004 11.3445V12.0828Z" fill="white"/>
<path d="M11.508 12.999C11.3957 12.999 11.3047 12.9086 11.3047 12.7971C11.3047 12.6856 11.3957 12.5952 11.508 12.5952C11.6203 12.5952 11.7113 12.6856 11.7113 12.7971C11.7113 12.9076 11.6203 12.999 11.508 12.999ZM11.508 12.7138C11.4615 12.7138 11.424 12.7509 11.424 12.7971C11.424 12.8433 11.4615 12.8805 11.508 12.8805C11.5545 12.8805 11.592 12.8433 11.592 12.7971C11.592 12.7509 11.5545 12.7138 11.508 12.7138Z" fill="white"/>
<path d="M12.2267 12.999C12.1145 12.999 12.0234 12.9086 12.0234 12.7971C12.0234 12.6856 12.1145 12.5952 12.2267 12.5952C12.339 12.5952 12.4301 12.6856 12.4301 12.7971C12.4301 12.9076 12.339 12.999 12.2267 12.999ZM12.2267 12.7138C12.1802 12.7138 12.1428 12.7509 12.1428 12.7971C12.1428 12.8433 12.1802 12.8805 12.2267 12.8805C12.2733 12.8805 12.3107 12.8433 12.3107 12.7971C12.3097 12.7509 12.2723 12.7138 12.2267 12.7138Z" fill="white"/>
<path d="M12.2267 12.2847C12.1145 12.2847 12.0234 12.1943 12.0234 12.0828C12.0234 11.9713 12.1145 11.8809 12.2267 11.8809C12.339 11.8809 12.4301 11.9713 12.4301 12.0828C12.4301 12.1943 12.339 12.2847 12.2267 12.2847ZM12.2267 11.9994C12.1802 11.9994 12.1428 12.0366 12.1428 12.0828C12.1428 12.129 12.1802 12.1662 12.2267 12.1662C12.2733 12.1662 12.3107 12.129 12.3107 12.0828C12.3097 12.0366 12.2723 11.9994 12.2267 11.9994Z" fill="white"/>
<path d="M12.9357 12.999C12.8235 12.999 12.7324 12.9086 12.7324 12.7971C12.7324 12.6856 12.8235 12.5952 12.9357 12.5952C13.048 12.5952 13.139 12.6856 13.139 12.7971C13.139 12.9076 13.048 12.999 12.9357 12.999ZM12.9357 12.7138C12.8892 12.7138 12.8518 12.7509 12.8518 12.7971C12.8518 12.8433 12.8892 12.8805 12.9357 12.8805C12.9823 12.8805 13.0197 12.8433 13.0197 12.7971C13.0197 12.7509 12.9812 12.7138 12.9357 12.7138Z" fill="white"/>
<path d="M13.6584 13.7163C13.5461 13.7163 13.4551 13.6259 13.4551 13.5144C13.4551 13.4029 13.5461 13.3125 13.6584 13.3125C13.7707 13.3125 13.8617 13.4029 13.8617 13.5144C13.8627 13.6259 13.7707 13.7163 13.6584 13.7163ZM13.6584 13.431C13.6119 13.431 13.5744 13.4682 13.5744 13.5144C13.5744 13.5606 13.6119 13.5978 13.6584 13.5978C13.7049 13.5978 13.7423 13.5606 13.7423 13.5144C13.7423 13.4682 13.7049 13.431 13.6584 13.431Z" fill="white"/>
<path d="M12.9455 9.57254C12.8332 9.57254 12.7422 9.48212 12.7422 9.37062C12.7422 9.25911 12.8332 9.1687 12.9455 9.1687C13.0578 9.1687 13.1488 9.25911 13.1488 9.37062C13.1488 9.48212 13.0578 9.57254 12.9455 9.57254ZM12.9455 9.28724C12.899 9.28724 12.8615 9.32441 12.8615 9.37062C12.8615 9.41683 12.899 9.454 12.9455 9.454C12.992 9.454 13.0295 9.41683 13.0295 9.37062C13.0295 9.32441 12.992 9.28724 12.9455 9.28724Z" fill="white"/>
<path d="M11.508 9.57254C11.3957 9.57254 11.3047 9.48212 11.3047 9.37062C11.3047 9.25911 11.3957 9.1687 11.508 9.1687C11.6203 9.1687 11.7113 9.25911 11.7113 9.37062C11.7113 9.48212 11.6203 9.57254 11.508 9.57254ZM11.508 9.28724C11.4615 9.28724 11.424 9.32441 11.424 9.37062C11.424 9.41683 11.4615 9.454 11.508 9.454C11.5545 9.454 11.592 9.41683 11.592 9.37062C11.592 9.32441 11.5545 9.28724 11.508 9.28724Z" fill="white"/>
<path d="M12.2268 13.5105C12.2268 13.621 12.1368 13.7104 12.0255 13.7104C11.9142 13.7104 11.8242 13.621 11.8242 13.5105C11.8242 13.4 11.9142 13.3105 12.0255 13.3105C12.1368 13.3105 12.2268 13.4 12.2268 13.5105Z" fill="white"/>
<path d="M11.7092 13.5105C11.7092 13.621 11.6192 13.7104 11.5079 13.7104C11.3967 13.7104 11.3066 13.621 11.3066 13.5105C11.3066 13.4 11.3967 13.3105 11.5079 13.3105C11.6192 13.3105 11.7092 13.4 11.7092 13.5105Z" fill="white"/>
<path d="M13.1467 12.2827C13.1467 12.3932 13.0567 12.4826 12.9454 12.4826C12.8342 12.4826 12.7441 12.3932 12.7441 12.2827C12.7441 12.1722 12.8342 12.0828 12.9454 12.0828C13.0567 12.0828 13.1467 12.1722 13.1467 12.2827Z" fill="white"/>
<path d="M13.5334 10.6623C13.5334 10.7728 13.4434 10.8622 13.3321 10.8622C13.2209 10.8622 13.1309 10.7728 13.1309 10.6623C13.1309 10.5518 13.2209 10.4624 13.3321 10.4624C13.4434 10.4624 13.5334 10.5518 13.5334 10.6623Z" fill="white"/>
<path d="M12.428 11.3625C12.428 11.473 12.3379 11.5624 12.2267 11.5624C12.1154 11.5624 12.0254 11.473 12.0254 11.3625C12.0254 11.252 12.1154 11.1626 12.2267 11.1626C12.3369 11.1626 12.428 11.252 12.428 11.3625Z" fill="white"/>
<path d="M10.9905 10.6623C10.9905 10.7728 10.9004 10.8622 10.7892 10.8622C10.6779 10.8622 10.5879 10.7728 10.5879 10.6623C10.5879 10.5518 10.6779 10.4624 10.7892 10.4624C10.9004 10.4624 10.9905 10.5518 10.9905 10.6623Z" fill="white"/>
<path d="M11.3233 13.4109L10.7285 12.8212V10.8623H10.8489V12.772L11.4072 13.3265L11.3233 13.4109Z" fill="white"/>
<path d="M11.5676 7.85254H11.4473V9.22679H11.5676V7.85254Z" fill="white"/>
<path d="M12.7443 12.7368H12.3711V12.8564H12.7443V12.7368Z" fill="white"/>
<path d="M12.6213 10.148C12.509 10.148 12.418 10.0576 12.418 9.94606C12.418 9.83455 12.509 9.74414 12.6213 9.74414C12.7336 9.74414 12.8246 9.83455 12.8246 9.94606C12.8246 10.0566 12.7336 10.148 12.6213 10.148ZM12.6213 9.86268C12.5747 9.86268 12.5373 9.89985 12.5373 9.94606C12.5373 9.99227 12.5747 10.0294 12.6213 10.0294C12.6678 10.0294 12.7052 9.99227 12.7052 9.94606C12.7052 9.89985 12.6668 9.86268 12.6213 9.86268Z" fill="white"/>
<path d="M13.3322 10.148C13.2199 10.148 13.1289 10.0576 13.1289 9.94606C13.1289 9.83455 13.2199 9.74414 13.3322 9.74414C13.4445 9.74414 13.5355 9.83455 13.5355 9.94606C13.5355 10.0566 13.4445 10.148 13.3322 10.148ZM13.3322 9.86268C13.2857 9.86268 13.2483 9.89985 13.2483 9.94606C13.2483 9.99227 13.2857 10.0294 13.3322 10.0294C13.3787 10.0294 13.4162 9.99227 13.4162 9.94606C13.4162 9.89985 13.3777 9.86268 13.3322 9.86268Z" fill="white"/>
<path d="M13.1389 9.88574H12.7656V10.0053H13.1389V9.88574Z" fill="white"/>
<path d="M14.9264 12.6535H14.8061V9.96631L14.0879 9.25206V1.57617H14.2072V9.20284L14.9264 9.91708V12.6535Z" fill="white"/>
<path d="M16.3637 9.22796H16.2434V5.63463L16.9625 4.92038V2.82888L16.2788 2.14979H15.7285V2.03125H16.3283L17.0819 2.77965V4.96961L16.3637 5.68385V9.22796Z" fill="white"/>
<path d="M16.3274 13.5697H15.584V13.4511H16.2779L16.9616 12.772V7.08618H17.081V12.8213L16.3274 13.5697Z" fill="white"/>
<path d="M16.3624 12.0828H16.242V11.3937L15.5239 10.6795V7.82449L14.8047 7.11125V4.92029L15.5411 4.18896L15.626 4.27335L14.9251 4.96951V7.06202L15.6432 7.77527V10.6302L16.3624 11.3445V12.0828Z" fill="white"/>
<path d="M14.8654 12.999C14.7531 12.999 14.6621 12.9086 14.6621 12.7971C14.6621 12.6856 14.7531 12.5952 14.8654 12.5952C14.9777 12.5952 15.0687 12.6856 15.0687 12.7971C15.0687 12.9076 14.9777 12.999 14.8654 12.999ZM14.8654 12.7138C14.8189 12.7138 14.7815 12.7509 14.7815 12.7971C14.7815 12.8433 14.8189 12.8805 14.8654 12.8805C14.9119 12.8805 14.9494 12.8433 14.9494 12.7971C14.9484 12.7509 14.9109 12.7138 14.8654 12.7138Z" fill="white"/>
<path d="M15.5842 12.999C15.4719 12.999 15.3809 12.9086 15.3809 12.7971C15.3809 12.6856 15.4719 12.5952 15.5842 12.5952C15.6964 12.5952 15.7875 12.6856 15.7875 12.7971C15.7885 12.9076 15.6964 12.999 15.5842 12.999ZM15.5842 12.7138C15.5376 12.7138 15.5002 12.7509 15.5002 12.7971C15.5002 12.8433 15.5376 12.8805 15.5842 12.8805C15.6307 12.8805 15.6681 12.8433 15.6681 12.7971C15.6681 12.7509 15.6307 12.7138 15.5842 12.7138Z" fill="white"/>
<path d="M15.5842 12.2847C15.4719 12.2847 15.3809 12.1943 15.3809 12.0828C15.3809 11.9713 15.4719 11.8809 15.5842 11.8809C15.6964 11.8809 15.7875 11.9713 15.7875 12.0828C15.7885 12.1943 15.6964 12.2847 15.5842 12.2847ZM15.5842 11.9994C15.5376 11.9994 15.5002 12.0366 15.5002 12.0828C15.5002 12.129 15.5376 12.1662 15.5842 12.1662C15.6307 12.1662 15.6681 12.129 15.6681 12.0828C15.6681 12.0366 15.6307 11.9994 15.5842 11.9994Z" fill="white"/>
<path d="M16.2932 12.999C16.1809 12.999 16.0898 12.9086 16.0898 12.7971C16.0898 12.6856 16.1809 12.5952 16.2932 12.5952C16.4054 12.5952 16.4965 12.6856 16.4965 12.7971C16.4975 12.9076 16.4054 12.999 16.2932 12.999ZM16.2932 12.7138C16.2466 12.7138 16.2092 12.7509 16.2092 12.7971C16.2092 12.8433 16.2466 12.8805 16.2932 12.8805C16.3397 12.8805 16.3771 12.8433 16.3771 12.7971C16.3771 12.7509 16.3397 12.7138 16.2932 12.7138Z" fill="white"/>
<path d="M17.0178 13.7163C16.9055 13.7163 16.8145 13.6259 16.8145 13.5144C16.8145 13.4029 16.9055 13.3125 17.0178 13.3125C17.13 13.3125 17.2211 13.4029 17.2211 13.5144C17.2211 13.6259 17.13 13.7163 17.0178 13.7163ZM17.0178 13.431C16.9712 13.431 16.9338 13.4682 16.9338 13.5144C16.9338 13.5606 16.9712 13.5978 17.0178 13.5978C17.0643 13.5978 17.1017 13.5606 17.1017 13.5144C17.1017 13.4682 17.0643 13.431 17.0178 13.431Z" fill="white"/>
<path d="M16.3029 9.57254C16.1906 9.57254 16.0996 9.48212 16.0996 9.37062C16.0996 9.25911 16.1906 9.1687 16.3029 9.1687C16.4152 9.1687 16.5062 9.25911 16.5062 9.37062C16.5062 9.48212 16.4152 9.57254 16.3029 9.57254ZM16.3029 9.28724C16.2564 9.28724 16.219 9.32441 16.219 9.37062C16.219 9.41683 16.2564 9.454 16.3029 9.454C16.3494 9.454 16.3869 9.41683 16.3869 9.37062C16.3869 9.32441 16.3484 9.28724 16.3029 9.28724Z" fill="white"/>
<path d="M14.8654 9.57254C14.7531 9.57254 14.6621 9.48212 14.6621 9.37062C14.6621 9.25911 14.7531 9.1687 14.8654 9.1687C14.9777 9.1687 15.0687 9.25911 15.0687 9.37062C15.0687 9.48212 14.9777 9.57254 14.8654 9.57254ZM14.8654 9.28724C14.8189 9.28724 14.7815 9.32441 14.7815 9.37062C14.7815 9.41683 14.8189 9.454 14.8654 9.454C14.9119 9.454 14.9494 9.41683 14.9494 9.37062C14.9494 9.32441 14.9109 9.28724 14.8654 9.28724Z" fill="white"/>
<path d="M15.5842 13.5105C15.5842 13.621 15.4942 13.7104 15.3829 13.7104C15.2717 13.7104 15.1816 13.621 15.1816 13.5105C15.1816 13.4 15.2717 13.3105 15.3829 13.3105C15.4942 13.3105 15.5842 13.4 15.5842 13.5105Z" fill="white"/>
<path d="M15.0666 13.5105C15.0666 13.621 14.9766 13.7104 14.8654 13.7104C14.7541 13.7104 14.6641 13.621 14.6641 13.5105C14.6641 13.4 14.7541 13.3105 14.8654 13.3105C14.9766 13.3105 15.0666 13.4 15.0666 13.5105Z" fill="white"/>
<path d="M16.5041 12.2827C16.5041 12.3932 16.4141 12.4826 16.3028 12.4826C16.1916 12.4826 16.1016 12.3932 16.1016 12.2827C16.1016 12.1722 16.1916 12.0828 16.3028 12.0828C16.4141 12.0828 16.5041 12.1722 16.5041 12.2827Z" fill="white"/>
<path d="M16.8909 10.6623C16.8909 10.7728 16.8008 10.8622 16.6896 10.8622C16.5783 10.8622 16.4883 10.7728 16.4883 10.6623C16.4883 10.5518 16.5783 10.4624 16.6896 10.4624C16.8008 10.4624 16.8909 10.5518 16.8909 10.6623Z" fill="white"/>
<path d="M15.7854 11.3625C15.7854 11.473 15.6954 11.5624 15.5841 11.5624C15.4728 11.5624 15.3828 11.473 15.3828 11.3625C15.3828 11.252 15.4728 11.1626 15.5841 11.1626C15.6954 11.1626 15.7854 11.252 15.7854 11.3625Z" fill="white"/>
<path d="M14.3479 10.6623C14.3479 10.7728 14.2579 10.8622 14.1466 10.8622C14.0353 10.8622 13.9453 10.7728 13.9453 10.6623C13.9453 10.5518 14.0353 10.4624 14.1466 10.4624C14.2579 10.4624 14.3479 10.5518 14.3479 10.6623Z" fill="white"/>
<path d="M14.6816 13.4109L14.0879 12.8212V10.8623H14.2072V12.772L14.7666 13.3265L14.6816 13.4109Z" fill="white"/>
<path d="M14.9251 7.85254H14.8047V9.22679H14.9251V7.85254Z" fill="white"/>
<path d="M16.1018 12.7368H15.7285V12.8564H16.1018V12.7368Z" fill="white"/>
<path d="M15.9787 10.148C15.8664 10.148 15.7754 10.0576 15.7754 9.94606C15.7754 9.83455 15.8664 9.74414 15.9787 9.74414C16.091 9.74414 16.182 9.83455 16.182 9.94606C16.183 10.0566 16.091 10.148 15.9787 10.148ZM15.9787 9.86268C15.9322 9.86268 15.8947 9.89985 15.8947 9.94606C15.8947 9.99227 15.9322 10.0294 15.9787 10.0294C16.0252 10.0294 16.0627 9.99227 16.0627 9.94606C16.0627 9.89985 16.0252 9.86268 15.9787 9.86268Z" fill="white"/>
<path d="M16.6896 10.148C16.5774 10.148 16.4863 10.0576 16.4863 9.94606C16.4863 9.83455 16.5774 9.74414 16.6896 9.74414C16.8019 9.74414 16.8929 9.83455 16.8929 9.94606C16.894 10.0566 16.8019 10.148 16.6896 10.148ZM16.6896 9.86268C16.6431 9.86268 16.6057 9.89985 16.6057 9.94606C16.6057 9.99227 16.6431 10.0294 16.6896 10.0294C16.7362 10.0294 16.7736 9.99227 16.7736 9.94606C16.7736 9.89985 16.7362 9.86268 16.6896 9.86268Z" fill="white"/>
<path d="M16.4963 9.88574H16.123V10.0053H16.4963V9.88574Z" fill="white"/>
<path d="M18.2849 12.6535H18.1645V9.96631L17.4453 9.25206V1.57617H17.5657V9.20284L18.2849 9.91708V12.6535Z" fill="white"/>
<path d="M19.7231 9.22796H19.6027V5.63463L20.3209 4.92038V2.82888L19.6381 2.14979H19.0879V2.03125H19.6877L20.4413 2.77965V4.96961L19.7231 5.68385V9.22796Z" fill="white"/>
<path d="M19.6868 13.5697H18.9434V13.4511H19.6372L20.32 12.772V7.08618H20.4404V12.8213L19.6868 13.5697Z" fill="white"/>
<path d="M19.7218 12.0828H19.6014V11.3937L18.8822 10.6795V7.82449L18.1641 7.11125V4.92029L18.9004 4.18896L18.9854 4.27335L18.2844 4.96951V7.06202L19.0026 7.77527V10.6302L19.7218 11.3445V12.0828Z" fill="white"/>
<path d="M18.2248 12.999C18.1125 12.999 18.0215 12.9086 18.0215 12.7971C18.0215 12.6856 18.1125 12.5952 18.2248 12.5952C18.3371 12.5952 18.4281 12.6856 18.4281 12.7971C18.4291 12.9076 18.3371 12.999 18.2248 12.999ZM18.2248 12.7138C18.1783 12.7138 18.1408 12.7509 18.1408 12.7971C18.1408 12.8433 18.1783 12.8805 18.2248 12.8805C18.2713 12.8805 18.3087 12.8433 18.3087 12.7971C18.3087 12.7509 18.2713 12.7138 18.2248 12.7138Z" fill="white"/>
<path d="M18.9435 12.999C18.8313 12.999 18.7402 12.9086 18.7402 12.7971C18.7402 12.6856 18.8313 12.5952 18.9435 12.5952C19.0558 12.5952 19.1469 12.6856 19.1469 12.7971C19.1469 12.9076 19.0558 12.999 18.9435 12.999ZM18.9435 12.7138C18.897 12.7138 18.8596 12.7509 18.8596 12.7971C18.8596 12.8433 18.897 12.8805 18.9435 12.8805C18.9901 12.8805 19.0275 12.8433 19.0275 12.7971C19.0275 12.7509 18.9891 12.7138 18.9435 12.7138Z" fill="white"/>
<path d="M18.9435 12.2847C18.8313 12.2847 18.7402 12.1943 18.7402 12.0828C18.7402 11.9713 18.8313 11.8809 18.9435 11.8809C19.0558 11.8809 19.1469 11.9713 19.1469 12.0828C19.1469 12.1943 19.0558 12.2847 18.9435 12.2847ZM18.9435 11.9994C18.897 11.9994 18.8596 12.0366 18.8596 12.0828C18.8596 12.129 18.897 12.1662 18.9435 12.1662C18.9901 12.1662 19.0275 12.129 19.0275 12.0828C19.0275 12.0366 18.9891 11.9994 18.9435 11.9994Z" fill="white"/>
<path d="M18.2248 9.57254C18.1125 9.57254 18.0215 9.48212 18.0215 9.37062C18.0215 9.25911 18.1125 9.1687 18.2248 9.1687C18.3371 9.1687 18.4281 9.25911 18.4281 9.37062C18.4291 9.48212 18.3371 9.57254 18.2248 9.57254ZM18.2248 9.28724C18.1783 9.28724 18.1408 9.32441 18.1408 9.37062C18.1408 9.41683 18.1783 9.454 18.2248 9.454C18.2713 9.454 18.3087 9.41683 18.3087 9.37062C18.3087 9.32441 18.2713 9.28724 18.2248 9.28724Z" fill="white"/>
<path d="M18.9436 13.5105C18.9436 13.621 18.8536 13.7104 18.7423 13.7104C18.631 13.7104 18.541 13.621 18.541 13.5105C18.541 13.4 18.631 13.3105 18.7423 13.3105C18.8536 13.3105 18.9436 13.4 18.9436 13.5105Z" fill="white"/>
<path d="M18.426 13.5105C18.426 13.621 18.336 13.7104 18.2247 13.7104C18.1135 13.7104 18.0234 13.621 18.0234 13.5105C18.0234 13.4 18.1135 13.3105 18.2247 13.3105C18.336 13.3105 18.426 13.4 18.426 13.5105Z" fill="white"/>
<path d="M19.1448 11.3625C19.1448 11.473 19.0547 11.5624 18.9435 11.5624C18.8322 11.5624 18.7422 11.473 18.7422 11.3625C18.7422 11.252 18.8322 11.1626 18.9435 11.1626C19.0547 11.1626 19.1448 11.252 19.1448 11.3625Z" fill="white"/>
<path d="M17.7073 10.6623C17.7073 10.7728 17.6172 10.8622 17.506 10.8622C17.3947 10.8622 17.3047 10.7728 17.3047 10.6623C17.3047 10.5518 17.3947 10.4624 17.506 10.4624C17.6172 10.4624 17.7073 10.5518 17.7073 10.6623Z" fill="white"/>
<path d="M18.0401 13.4109L17.4453 12.8212V10.8623H17.5657V12.772L18.125 13.3265L18.0401 13.4109Z" fill="white"/>
<path d="M18.2844 7.85254H18.1641V9.22679H18.2844V7.85254Z" fill="white"/>
<path d="M19.4611 12.7368H19.0879V12.8564H19.4611V12.7368Z" fill="white"/>
<path d="M19.3381 10.148C19.2258 10.148 19.1348 10.0576 19.1348 9.94606C19.1348 9.83455 19.2258 9.74414 19.3381 9.74414C19.4504 9.74414 19.5414 9.83455 19.5414 9.94606C19.5414 10.0566 19.4504 10.148 19.3381 10.148ZM19.3381 9.86268C19.2915 9.86268 19.2541 9.89985 19.2541 9.94606C19.2541 9.99227 19.2915 10.0294 19.3381 10.0294C19.3846 10.0294 19.422 9.99227 19.422 9.94606C19.422 9.89985 19.3836 9.86268 19.3381 9.86268Z" fill="white"/>
<path d="M4.85025 25.2297H4.73089V22.5425L4.01172 21.8292V14.1533H4.13209V21.779L4.85025 22.4932V25.2297Z" fill="white"/>
<path d="M6.28756 21.8039H6.16821V18.2106L6.88637 17.4973V15.4048L6.2026 14.7257H5.65234V14.6072H6.25216L7.00673 15.3556V17.5465L6.28756 18.2598V21.8039Z" fill="white"/>
<path d="M6.25126 26.1458H5.50781V26.0273H6.2017L6.88547 25.3482V19.6633H7.00584V25.3974L6.25126 26.1458Z" fill="white"/>
<path d="M6.28716 24.659H6.1678V23.9699L5.44863 23.2566V20.4016L4.73047 19.6874V17.4974L5.46583 16.7661L5.55079 16.8505L4.84983 17.5467V19.6382L5.569 20.3524V23.2064L6.28716 23.9206V24.659Z" fill="white"/>
<path d="M5.508 14.8694C5.39572 14.8694 5.30469 14.779 5.30469 14.6675C5.30469 14.556 5.39572 14.4656 5.508 14.4656C5.62027 14.4656 5.71131 14.556 5.71131 14.6675C5.71131 14.779 5.62027 14.8694 5.508 14.8694ZM5.508 14.5831C5.46147 14.5831 5.42404 14.6203 5.42404 14.6665C5.42404 14.7127 5.46147 14.7499 5.508 14.7499C5.55453 14.7499 5.59195 14.7127 5.59195 14.6665C5.59195 14.6203 5.55453 14.5831 5.508 14.5831Z" fill="white"/>
<path d="M5.508 19.2574C5.39572 19.2574 5.30469 19.1669 5.30469 19.0554C5.30469 18.9439 5.39572 18.8535 5.508 18.8535C5.62027 18.8535 5.71131 18.9439 5.71131 19.0554C5.71232 19.1659 5.62027 19.2574 5.508 19.2574ZM5.508 18.9721C5.46147 18.9721 5.42404 19.0092 5.42404 19.0554C5.42404 19.1016 5.46147 19.1388 5.508 19.1388C5.55453 19.1388 5.59195 19.1016 5.59195 19.0554C5.59195 19.0092 5.55453 18.9721 5.508 18.9721Z" fill="white"/>
<path d="M6.9455 14.8694C6.83322 14.8694 6.74219 14.779 6.74219 14.6675C6.74219 14.556 6.83322 14.4656 6.9455 14.4656C7.05777 14.4656 7.14881 14.556 7.14881 14.6675C7.14881 14.779 7.05777 14.8694 6.9455 14.8694ZM6.9455 14.5831C6.89897 14.5831 6.86154 14.6203 6.86154 14.6665C6.86154 14.7127 6.89897 14.7499 6.9455 14.7499C6.99203 14.7499 7.02945 14.7127 7.02945 14.6665C7.02945 14.6203 6.99203 14.5831 6.9455 14.5831Z" fill="white"/>
<path d="M6.9455 19.7224C6.83322 19.7224 6.74219 19.632 6.74219 19.5205C6.74219 19.409 6.83322 19.3186 6.9455 19.3186C7.05777 19.3186 7.14881 19.409 7.14881 19.5205C7.14982 19.632 7.05777 19.7224 6.9455 19.7224ZM6.9455 19.4371C6.89897 19.4371 6.86154 19.4743 6.86154 19.5205C6.86154 19.5667 6.89897 19.6039 6.9455 19.6039C6.99203 19.6039 7.02945 19.5667 7.02945 19.5205C7.02945 19.4743 6.99203 19.4371 6.9455 19.4371Z" fill="white"/>
<path d="M6.22675 22.1497C6.11447 22.1497 6.02344 22.0593 6.02344 21.9478C6.02344 21.8363 6.11447 21.7458 6.22675 21.7458C6.33902 21.7458 6.43006 21.8363 6.43006 21.9478C6.43006 22.0583 6.33902 22.1497 6.22675 22.1497ZM6.22675 21.8634C6.18022 21.8634 6.14279 21.9006 6.14279 21.9468C6.14279 21.993 6.18022 22.0301 6.22675 22.0301C6.27328 22.0301 6.3107 21.993 6.3107 21.9468C6.3107 21.9006 6.27328 21.8634 6.22675 21.8634Z" fill="white"/>
<path d="M4.78925 22.1497C4.67697 22.1497 4.58594 22.0593 4.58594 21.9478C4.58594 21.8363 4.67697 21.7458 4.78925 21.7458C4.90152 21.7458 4.99256 21.8363 4.99256 21.9478C4.99256 22.0583 4.90152 22.1497 4.78925 22.1497ZM4.78925 21.8634C4.74272 21.8634 4.70529 21.9006 4.70529 21.9468C4.70529 21.993 4.74272 22.0301 4.78925 22.0301C4.83578 22.0301 4.8732 21.993 4.8732 21.9468C4.8732 21.9006 4.83578 21.8634 4.78925 21.8634Z" fill="white"/>
<path d="M4.78925 20.489C4.67697 20.489 4.58594 20.3986 4.58594 20.2871C4.58594 20.1756 4.67697 20.0852 4.78925 20.0852C4.90152 20.0852 4.99256 20.1756 4.99256 20.2871C4.99256 20.3986 4.90152 20.489 4.78925 20.489ZM4.78925 20.2037C4.74272 20.2037 4.70529 20.2409 4.70529 20.2871C4.70529 20.3333 4.74272 20.3705 4.78925 20.3705C4.83578 20.3705 4.8732 20.3333 4.8732 20.2871C4.8732 20.2409 4.83578 20.2037 4.78925 20.2037Z" fill="white"/>
<path d="M4.78925 16.313C4.67697 16.313 4.58594 16.2226 4.58594 16.1111C4.58594 15.9996 4.67697 15.9092 4.78925 15.9092C4.90152 15.9092 4.99256 15.9996 4.99256 16.1111C4.99256 16.2216 4.90152 16.313 4.78925 16.313ZM4.78925 16.0267C4.74272 16.0267 4.70529 16.0639 4.70529 16.1101C4.70529 16.1563 4.74272 16.1935 4.78925 16.1935C4.83578 16.1935 4.8732 16.1563 4.8732 16.1101C4.8732 16.0639 4.83578 16.0267 4.78925 16.0267Z" fill="white"/>
<path d="M5.70921 16.8083C5.70921 16.9188 5.61919 17.0082 5.50793 17.0082C5.39666 17.0082 5.30664 16.9188 5.30664 16.8083C5.30664 16.6978 5.39666 16.6084 5.50793 16.6084C5.61919 16.6084 5.70921 16.6978 5.70921 16.8083Z" fill="white"/>
<path d="M5.50793 15.6007C5.6191 15.6007 5.70921 15.5112 5.70921 15.4008C5.70921 15.2904 5.6191 15.2009 5.50793 15.2009C5.39676 15.2009 5.30664 15.2904 5.30664 15.4008C5.30664 15.5112 5.39676 15.6007 5.50793 15.6007Z" fill="white"/>
<path d="M4.84983 15.9675H4.73047V14.6425L5.48403 13.8931H6.25176L6.84449 14.4817L6.75953 14.5661L6.20219 14.0126H5.5336L4.84983 14.6917V15.9675Z" fill="white"/>
<path d="M4.85084 20.4297H4.73047V21.8039H4.85084V20.4297Z" fill="white"/>
<path d="M5.56763 18.9118H5.44727V18.2106L6.15733 17.5054V16.1352L5.56561 15.5475L5.65058 15.4631L6.2777 16.086V17.5546L5.56763 18.2598V18.9118Z" fill="white"/>
<path d="M8.20962 25.2297H8.08925V22.5425L7.37109 21.8292V14.1533H7.49045V21.779L8.20962 22.4932V25.2297Z" fill="white"/>
<path d="M9.64694 21.8041H9.52657V18.2108L10.2457 17.4976V15.405L9.56197 14.726H9.01172V14.6074H9.61153L10.3651 15.3558V17.5468L9.64694 18.26V21.8041Z" fill="white"/>
<path d="M9.61064 26.1458H8.86719V26.0273H9.56107L10.2448 25.3482V19.6633H10.3642V25.3974L9.61064 26.1458Z" fill="white"/>
<path d="M9.64559 24.659H9.52522V23.9699L8.80706 23.2566V20.4016L8.08789 19.6874V17.4974L8.82426 16.7661L8.90922 16.8505L8.20826 17.5467V19.6382L8.92642 20.3524V23.2064L9.64559 23.9206V24.659Z" fill="white"/>
<path d="M8.86737 14.8694C8.7551 14.8694 8.66406 14.779 8.66406 14.6675C8.66406 14.556 8.7551 14.4656 8.86737 14.4656C8.97965 14.4656 9.07068 14.556 9.07068 14.6675C9.07068 14.779 8.97965 14.8694 8.86737 14.8694ZM8.86737 14.5831C8.82084 14.5831 8.78342 14.6203 8.78342 14.6665C8.78342 14.7127 8.82084 14.7499 8.86737 14.7499C8.9139 14.7499 8.95133 14.7127 8.95133 14.6665C8.95133 14.6203 8.9139 14.5831 8.86737 14.5831Z" fill="white"/>
<path d="M8.86737 19.2574C8.7551 19.2574 8.66406 19.1669 8.66406 19.0554C8.66406 18.9439 8.7551 18.8535 8.86737 18.8535C8.97965 18.8535 9.07068 18.9439 9.07068 19.0554C9.07068 19.1659 8.97965 19.2574 8.86737 19.2574ZM8.86737 18.9721C8.82084 18.9721 8.78342 19.0092 8.78342 19.0554C8.78342 19.1016 8.82084 19.1388 8.86737 19.1388C8.9139 19.1388 8.95133 19.1016 8.95133 19.0554C8.95133 19.0092 8.9139 18.9721 8.86737 18.9721Z" fill="white"/>
<path d="M10.3049 14.8694C10.1926 14.8694 10.1016 14.779 10.1016 14.6675C10.1016 14.556 10.1926 14.4656 10.3049 14.4656C10.4171 14.4656 10.5082 14.556 10.5082 14.6675C10.5082 14.779 10.4171 14.8694 10.3049 14.8694ZM10.3049 14.5831C10.2583 14.5831 10.2209 14.6203 10.2209 14.6665C10.2209 14.7127 10.2583 14.7499 10.3049 14.7499C10.3514 14.7499 10.3888 14.7127 10.3888 14.6665C10.3888 14.6203 10.3514 14.5831 10.3049 14.5831Z" fill="white"/>
<path d="M10.3049 19.7224C10.1926 19.7224 10.1016 19.632 10.1016 19.5205C10.1016 19.409 10.1926 19.3186 10.3049 19.3186C10.4171 19.3186 10.5082 19.409 10.5082 19.5205C10.5082 19.632 10.4171 19.7224 10.3049 19.7224ZM10.3049 19.4371C10.2583 19.4371 10.2209 19.4743 10.2209 19.5205C10.2209 19.5667 10.2583 19.6039 10.3049 19.6039C10.3514 19.6039 10.3888 19.5667 10.3888 19.5205C10.3888 19.4743 10.3514 19.4371 10.3049 19.4371Z" fill="white"/>
<path d="M9.58612 22.1497C9.47385 22.1497 9.38281 22.0593 9.38281 21.9478C9.38281 21.8363 9.47385 21.7458 9.58612 21.7458C9.6984 21.7458 9.78943 21.8363 9.78943 21.9478C9.79044 22.0583 9.69941 22.1497 9.58612 22.1497ZM9.58612 21.8634C9.53959 21.8634 9.50217 21.9006 9.50217 21.9468C9.50217 21.993 9.53959 22.0301 9.58612 22.0301C9.63265 22.0301 9.67008 21.993 9.67008 21.9468C9.67008 21.9006 9.63265 21.8634 9.58612 21.8634Z" fill="white"/>
<path d="M8.14862 22.1497C8.03635 22.1497 7.94531 22.0593 7.94531 21.9478C7.94531 21.8363 8.03635 21.7458 8.14862 21.7458C8.2609 21.7458 8.35193 21.8363 8.35193 21.9478C8.35294 22.0583 8.26191 22.1497 8.14862 22.1497ZM8.14862 21.8634C8.10209 21.8634 8.06467 21.9006 8.06467 21.9468C8.06467 21.993 8.10209 22.0301 8.14862 22.0301C8.19515 22.0301 8.23258 21.993 8.23258 21.9468C8.23258 21.9006 8.19515 21.8634 8.14862 21.8634Z" fill="white"/>
<path d="M8.14862 20.489C8.03635 20.489 7.94531 20.3986 7.94531 20.2871C7.94531 20.1756 8.03635 20.0852 8.14862 20.0852C8.2609 20.0852 8.35193 20.1756 8.35193 20.2871C8.35294 20.3986 8.26191 20.489 8.14862 20.489ZM8.14862 20.2037C8.10209 20.2037 8.06467 20.2409 8.06467 20.2871C8.06467 20.3333 8.10209 20.3705 8.14862 20.3705C8.19515 20.3705 8.23258 20.3333 8.23258 20.2871C8.23258 20.2409 8.19515 20.2037 8.14862 20.2037Z" fill="white"/>
<path d="M8.14862 16.313C8.03635 16.313 7.94531 16.2226 7.94531 16.1111C7.94531 15.9996 8.03635 15.9092 8.14862 15.9092C8.2609 15.9092 8.35193 15.9996 8.35193 16.1111C8.35294 16.2216 8.26191 16.313 8.14862 16.313ZM8.14862 16.0267C8.10209 16.0267 8.06467 16.0639 8.06467 16.1101C8.06467 16.1563 8.10209 16.1935 8.14862 16.1935C8.19515 16.1935 8.23258 16.1563 8.23258 16.1101C8.23258 16.0639 8.19515 16.0267 8.14862 16.0267Z" fill="white"/>
<path d="M7.63109 13.9533C7.63109 14.0638 7.54107 14.1532 7.4298 14.1532C7.31854 14.1532 7.22852 14.0638 7.22852 13.9533C7.22852 13.8428 7.31854 13.7534 7.4298 13.7534C7.54107 13.7534 7.63109 13.8428 7.63109 13.9533Z" fill="white"/>
<path d="M9.06859 16.8083C9.06859 16.9188 8.97857 17.0082 8.8673 17.0082C8.75604 17.0082 8.66602 16.9188 8.66602 16.8083C8.66602 16.6978 8.75604 16.6084 8.8673 16.6084C8.97857 16.6084 9.06859 16.6978 9.06859 16.8083Z" fill="white"/>
<path d="M8.8673 15.6007C8.97847 15.6007 9.06859 15.5112 9.06859 15.4008C9.06859 15.2904 8.97847 15.2009 8.8673 15.2009C8.75613 15.2009 8.66602 15.2904 8.66602 15.4008C8.66602 15.5112 8.75613 15.6007 8.8673 15.6007Z" fill="white"/>
<path d="M8.20826 15.9675H8.08789V14.6425L8.84145 13.8931H9.61019L10.2029 14.4817L10.118 14.5661L9.56063 14.0126H8.89203L8.20826 14.6917V15.9675Z" fill="white"/>
<path d="M8.20826 20.4297H8.08789V21.8039H8.20826V20.4297Z" fill="white"/>
<path d="M8.926 18.9118H8.80664V18.2106L9.51671 17.5054V16.1352L8.92499 15.5475L9.00995 15.4631L9.63607 16.086V17.5546L8.926 18.2598V18.9118Z" fill="white"/>
<path d="M11.567 25.2297H11.4477V22.5425L10.7285 21.8292V14.1533H10.8489V21.779L11.567 22.4932V25.2297Z" fill="white"/>
<path d="M13.0053 21.8041H12.8859V18.2108L13.6041 17.4976V15.405L12.9203 14.726H12.3711V14.6074H12.9709L13.7245 15.3558V17.5468L13.0053 18.26V21.8041Z" fill="white"/>
<path d="M12.97 26.1458H12.2266V26.0273H12.9194L13.6032 25.3482V19.6633H13.7236V25.3974L12.97 26.1458Z" fill="white"/>
<path d="M13.004 24.659H12.8846V23.9699L12.1654 23.2566V20.4016L11.4473 19.6874V17.4974L12.1836 16.7661L12.2686 16.8505L11.5666 17.5467V19.6382L12.2858 20.3524V23.2064L13.004 23.9206V24.659Z" fill="white"/>
<path d="M12.2267 14.8694C12.1145 14.8694 12.0234 14.779 12.0234 14.6675C12.0234 14.556 12.1145 14.4656 12.2267 14.4656C12.339 14.4656 12.4301 14.556 12.4301 14.6675C12.4301 14.779 12.339 14.8694 12.2267 14.8694ZM12.2267 14.5831C12.1802 14.5831 12.1428 14.6203 12.1428 14.6665C12.1428 14.7127 12.1802 14.7499 12.2267 14.7499C12.2733 14.7499 12.3107 14.7127 12.3107 14.6665C12.3107 14.6203 12.2723 14.5831 12.2267 14.5831Z" fill="white"/>
<path d="M12.2267 19.2574C12.1145 19.2574 12.0234 19.1669 12.0234 19.0554C12.0234 18.9439 12.1145 18.8535 12.2267 18.8535C12.339 18.8535 12.4301 18.9439 12.4301 19.0554C12.4301 19.1659 12.339 19.2574 12.2267 19.2574ZM12.2267 18.9721C12.1802 18.9721 12.1428 19.0092 12.1428 19.0554C12.1428 19.1016 12.1802 19.1388 12.2267 19.1388C12.2733 19.1388 12.3107 19.1016 12.3107 19.0554C12.3097 19.0092 12.2723 18.9721 12.2267 18.9721Z" fill="white"/>
<path d="M13.6642 14.8694C13.552 14.8694 13.4609 14.779 13.4609 14.6675C13.4609 14.556 13.552 14.4656 13.6642 14.4656C13.7765 14.4656 13.8676 14.556 13.8676 14.6675C13.8676 14.779 13.7765 14.8694 13.6642 14.8694ZM13.6642 14.5831C13.6177 14.5831 13.5803 14.6203 13.5803 14.6665C13.5803 14.7127 13.6177 14.7499 13.6642 14.7499C13.7108 14.7499 13.7482 14.7127 13.7482 14.6665C13.7482 14.6203 13.7098 14.5831 13.6642 14.5831Z" fill="white"/>
<path d="M13.6642 19.7224C13.552 19.7224 13.4609 19.632 13.4609 19.5205C13.4609 19.409 13.552 19.3186 13.6642 19.3186C13.7765 19.3186 13.8676 19.409 13.8676 19.5205C13.8676 19.632 13.7765 19.7224 13.6642 19.7224ZM13.6642 19.4371C13.6177 19.4371 13.5803 19.4743 13.5803 19.5205C13.5803 19.5667 13.6177 19.6039 13.6642 19.6039C13.7108 19.6039 13.7482 19.5667 13.7482 19.5205C13.7482 19.4743 13.7098 19.4371 13.6642 19.4371Z" fill="white"/>
<path d="M12.9455 22.1497C12.8332 22.1497 12.7422 22.0593 12.7422 21.9478C12.7422 21.8363 12.8332 21.7458 12.9455 21.7458C13.0578 21.7458 13.1488 21.8363 13.1488 21.9478C13.1488 22.0583 13.0578 22.1497 12.9455 22.1497ZM12.9455 21.8634C12.899 21.8634 12.8615 21.9006 12.8615 21.9468C12.8615 21.993 12.899 22.0301 12.9455 22.0301C12.992 22.0301 13.0295 21.993 13.0295 21.9468C13.0295 21.9006 12.992 21.8634 12.9455 21.8634Z" fill="white"/>
<path d="M11.508 22.1497C11.3957 22.1497 11.3047 22.0593 11.3047 21.9478C11.3047 21.8363 11.3957 21.7458 11.508 21.7458C11.6203 21.7458 11.7113 21.8363 11.7113 21.9478C11.7113 22.0583 11.6203 22.1497 11.508 22.1497ZM11.508 21.8634C11.4615 21.8634 11.424 21.9006 11.424 21.9468C11.424 21.993 11.4615 22.0301 11.508 22.0301C11.5545 22.0301 11.592 21.993 11.592 21.9468C11.592 21.9006 11.5545 21.8634 11.508 21.8634Z" fill="white"/>
<path d="M11.508 20.489C11.3957 20.489 11.3047 20.3986 11.3047 20.2871C11.3047 20.1756 11.3957 20.0852 11.508 20.0852C11.6203 20.0852 11.7113 20.1756 11.7113 20.2871C11.7113 20.3986 11.6203 20.489 11.508 20.489ZM11.508 20.2037C11.4615 20.2037 11.424 20.2409 11.424 20.2871C11.424 20.3333 11.4615 20.3705 11.508 20.3705C11.5545 20.3705 11.592 20.3333 11.592 20.2871C11.592 20.2409 11.5545 20.2037 11.508 20.2037Z" fill="white"/>
<path d="M11.508 16.313C11.3957 16.313 11.3047 16.2226 11.3047 16.1111C11.3047 15.9996 11.3957 15.9092 11.508 15.9092C11.6203 15.9092 11.7113 15.9996 11.7113 16.1111C11.7113 16.2216 11.6203 16.313 11.508 16.313ZM11.508 16.0267C11.4615 16.0267 11.424 16.0639 11.424 16.1101C11.424 16.1563 11.4615 16.1935 11.508 16.1935C11.5545 16.1935 11.592 16.1563 11.592 16.1101C11.592 16.0639 11.5545 16.0267 11.508 16.0267Z" fill="white"/>
<path d="M10.9905 13.9533C10.9905 14.0638 10.9004 14.1532 10.7892 14.1532C10.6779 14.1532 10.5879 14.0638 10.5879 13.9533C10.5879 13.8428 10.6779 13.7534 10.7892 13.7534C10.9004 13.7534 10.9905 13.8428 10.9905 13.9533Z" fill="white"/>
<path d="M12.428 16.8083C12.428 16.9188 12.3379 17.0082 12.2267 17.0082C12.1154 17.0082 12.0254 16.9188 12.0254 16.8083C12.0254 16.6978 12.1154 16.6084 12.2267 16.6084C12.3369 16.6084 12.428 16.6978 12.428 16.8083Z" fill="white"/>
<path d="M12.2267 15.6007C12.3378 15.6007 12.428 15.5112 12.428 15.4008C12.428 15.2904 12.3378 15.2009 12.2267 15.2009C12.1155 15.2009 12.0254 15.2904 12.0254 15.4008C12.0254 15.5112 12.1155 15.6007 12.2267 15.6007Z" fill="white"/>
<path d="M11.5666 15.9675H11.4473V14.6425L12.2008 13.8931H12.9696L13.5613 14.4817L13.4773 14.5661L12.919 14.0126H12.2504L11.5666 14.6917V15.9675Z" fill="white"/>
<path d="M11.5676 20.4297H11.4473V21.8039H11.5676V20.4297Z" fill="white"/>
<path d="M12.2864 18.9118H12.166V18.2106L12.8761 17.5054V16.1352L12.2854 15.5475L12.3693 15.4631L12.9965 16.086V17.5546L12.2864 18.2598V18.9118Z" fill="white"/>
<path d="M14.9264 25.2297H14.8061V22.5425L14.0879 21.8292V14.1533H14.2072V21.779L14.9264 22.4932V25.2297Z" fill="white"/>
<path d="M16.3637 21.8041H16.2434V18.2108L16.9625 17.4976V15.405L16.2788 14.726H15.7285V14.6074H16.3283L17.0819 15.3558V17.5468L16.3637 18.26V21.8041Z" fill="white"/>
<path d="M16.3274 26.1458H15.584V26.0273H16.2779L16.9616 25.3482V19.6633H17.081V25.3974L16.3274 26.1458Z" fill="white"/>
<path d="M16.3624 24.659H16.242V23.9699L15.5239 23.2566V20.4016L14.8047 19.6874V17.4974L15.5411 16.7661L15.626 16.8505L14.9251 17.5467V19.6382L15.6432 20.3524V23.2064L16.3624 23.9206V24.659Z" fill="white"/>
<path d="M15.5842 14.8694C15.4719 14.8694 15.3809 14.779 15.3809 14.6675C15.3809 14.556 15.4719 14.4656 15.5842 14.4656C15.6964 14.4656 15.7875 14.556 15.7875 14.6675C15.7875 14.779 15.6964 14.8694 15.5842 14.8694ZM15.5842 14.5831C15.5376 14.5831 15.5002 14.6203 15.5002 14.6665C15.5002 14.7127 15.5376 14.7499 15.5842 14.7499C15.6307 14.7499 15.6681 14.7127 15.6681 14.6665C15.6681 14.6203 15.6307 14.5831 15.5842 14.5831Z" fill="white"/>
<path d="M15.5842 19.2574C15.4719 19.2574 15.3809 19.1669 15.3809 19.0554C15.3809 18.9439 15.4719 18.8535 15.5842 18.8535C15.6964 18.8535 15.7875 18.9439 15.7875 19.0554C15.7885 19.1659 15.6964 19.2574 15.5842 19.2574ZM15.5842 18.9721C15.5376 18.9721 15.5002 19.0092 15.5002 19.0554C15.5002 19.1016 15.5376 19.1388 15.5842 19.1388C15.6307 19.1388 15.6681 19.1016 15.6681 19.0554C15.6681 19.0092 15.6307 18.9721 15.5842 18.9721Z" fill="white"/>
<path d="M17.0217 14.8694C16.9094 14.8694 16.8184 14.779 16.8184 14.6675C16.8184 14.556 16.9094 14.4656 17.0217 14.4656C17.1339 14.4656 17.225 14.556 17.225 14.6675C17.225 14.779 17.1339 14.8694 17.0217 14.8694ZM17.0217 14.5831C16.9751 14.5831 16.9377 14.6203 16.9377 14.6665C16.9377 14.7127 16.9751 14.7499 17.0217 14.7499C17.0682 14.7499 17.1056 14.7127 17.1056 14.6665C17.1056 14.6203 17.0682 14.5831 17.0217 14.5831Z" fill="white"/>
<path d="M17.0217 19.7224C16.9094 19.7224 16.8184 19.632 16.8184 19.5205C16.8184 19.409 16.9094 19.3186 17.0217 19.3186C17.1339 19.3186 17.225 19.409 17.225 19.5205C17.226 19.632 17.1339 19.7224 17.0217 19.7224ZM17.0217 19.4371C16.9751 19.4371 16.9377 19.4743 16.9377 19.5205C16.9377 19.5667 16.9751 19.6039 17.0217 19.6039C17.0682 19.6039 17.1056 19.5667 17.1056 19.5205C17.1056 19.4743 17.0682 19.4371 17.0217 19.4371Z" fill="white"/>
<path d="M16.3029 22.1497C16.1906 22.1497 16.0996 22.0593 16.0996 21.9478C16.0996 21.8363 16.1906 21.7458 16.3029 21.7458C16.4152 21.7458 16.5062 21.8363 16.5062 21.9478C16.5062 22.0583 16.4152 22.1497 16.3029 22.1497ZM16.3029 21.8634C16.2564 21.8634 16.219 21.9006 16.219 21.9468C16.219 21.993 16.2564 22.0301 16.3029 22.0301C16.3494 22.0301 16.3869 21.993 16.3869 21.9468C16.3869 21.9006 16.3484 21.8634 16.3029 21.8634Z" fill="white"/>
<path d="M14.8654 22.1497C14.7531 22.1497 14.6621 22.0593 14.6621 21.9478C14.6621 21.8363 14.7531 21.7458 14.8654 21.7458C14.9777 21.7458 15.0687 21.8363 15.0687 21.9478C15.0687 22.0583 14.9777 22.1497 14.8654 22.1497ZM14.8654 21.8634C14.8189 21.8634 14.7815 21.9006 14.7815 21.9468C14.7815 21.993 14.8189 22.0301 14.8654 22.0301C14.9119 22.0301 14.9494 21.993 14.9494 21.9468C14.9494 21.9006 14.9109 21.8634 14.8654 21.8634Z" fill="white"/>
<path d="M14.8654 20.489C14.7531 20.489 14.6621 20.3986 14.6621 20.2871C14.6621 20.1756 14.7531 20.0852 14.8654 20.0852C14.9777 20.0852 15.0687 20.1756 15.0687 20.2871C15.0687 20.3986 14.9777 20.489 14.8654 20.489ZM14.8654 20.2037C14.8189 20.2037 14.7815 20.2409 14.7815 20.2871C14.7815 20.3333 14.8189 20.3705 14.8654 20.3705C14.9119 20.3705 14.9494 20.3333 14.9494 20.2871C14.9484 20.2409 14.9109 20.2037 14.8654 20.2037Z" fill="white"/>
<path d="M14.8654 16.313C14.7531 16.313 14.6621 16.2226 14.6621 16.1111C14.6621 15.9996 14.7531 15.9092 14.8654 15.9092C14.9777 15.9092 15.0687 15.9996 15.0687 16.1111C15.0687 16.2216 14.9777 16.313 14.8654 16.313ZM14.8654 16.0267C14.8189 16.0267 14.7815 16.0639 14.7815 16.1101C14.7815 16.1563 14.8189 16.1935 14.8654 16.1935C14.9119 16.1935 14.9494 16.1563 14.9494 16.1101C14.9494 16.0639 14.9109 16.0267 14.8654 16.0267Z" fill="white"/>
<path d="M14.3479 13.9533C14.3479 14.0638 14.2579 14.1532 14.1466 14.1532C14.0353 14.1532 13.9453 14.0638 13.9453 13.9533C13.9453 13.8428 14.0353 13.7534 14.1466 13.7534C14.2579 13.7534 14.3479 13.8428 14.3479 13.9533Z" fill="white"/>
<path d="M15.7854 16.8083C15.7854 16.9188 15.6954 17.0082 15.5841 17.0082C15.4728 17.0082 15.3828 16.9188 15.3828 16.8083C15.3828 16.6978 15.4728 16.6084 15.5841 16.6084C15.6954 16.6084 15.7854 16.6978 15.7854 16.8083Z" fill="white"/>
<path d="M15.5841 15.6007C15.6953 15.6007 15.7854 15.5112 15.7854 15.4008C15.7854 15.2904 15.6953 15.2009 15.5841 15.2009C15.4729 15.2009 15.3828 15.2904 15.3828 15.4008C15.3828 15.5112 15.4729 15.6007 15.5841 15.6007Z" fill="white"/>
<path d="M14.9251 15.9675H14.8047V14.6425L15.5593 13.8931H16.327L16.9197 14.4817L16.8348 14.5661L16.2774 14.0126H15.6088L14.9251 14.6917V15.9675Z" fill="white"/>
<path d="M14.9251 20.4297H14.8047V21.8039H14.9251V20.4297Z" fill="white"/>
<path d="M15.6428 18.9118H15.5234V18.2106L16.2335 17.5054V16.1352L15.6418 15.5475L15.7267 15.4631L16.3539 16.086V17.5546L15.6428 18.2598V18.9118Z" fill="white"/>
<path d="M18.2849 25.2297H18.1645V22.5425L17.4453 21.8292V14.1533H17.5657V21.779L18.2849 22.4932V25.2297Z" fill="white"/>
<path d="M19.7231 21.8041H19.6027V18.2108L20.3209 17.4976V15.405L19.6381 14.726H19.0879V14.6074H19.6877L20.4413 15.3558V17.5468L19.7231 18.26V21.8041Z" fill="white"/>
<path d="M19.6868 26.1458H18.9434V26.0273H19.6372L20.32 25.3482V19.6633H20.4404V25.3974L19.6868 26.1458Z" fill="white"/>
<path d="M19.7218 24.659H19.6014V23.9699L18.8822 23.2566V20.4016L18.1641 19.6874V17.4974L18.9004 16.7661L18.9854 16.8505L18.2844 17.5467V19.6382L19.0026 20.3524V23.2064L19.7218 23.9206V24.659Z" fill="white"/>
<path d="M18.9435 14.8694C18.8313 14.8694 18.7402 14.779 18.7402 14.6675C18.7402 14.556 18.8313 14.4656 18.9435 14.4656C19.0558 14.4656 19.1469 14.556 19.1469 14.6675C19.1469 14.779 19.0558 14.8694 18.9435 14.8694ZM18.9435 14.5831C18.897 14.5831 18.8596 14.6203 18.8596 14.6665C18.8596 14.7127 18.897 14.7499 18.9435 14.7499C18.9901 14.7499 19.0275 14.7127 19.0275 14.6665C19.0275 14.6203 18.9891 14.5831 18.9435 14.5831Z" fill="white"/>
<path d="M18.9435 19.2574C18.8313 19.2574 18.7402 19.1669 18.7402 19.0554C18.7402 18.9439 18.8313 18.8535 18.9435 18.8535C19.0558 18.8535 19.1469 18.9439 19.1469 19.0554C19.1469 19.1659 19.0558 19.2574 18.9435 19.2574ZM18.9435 18.9721C18.897 18.9721 18.8596 19.0092 18.8596 19.0554C18.8596 19.1016 18.897 19.1388 18.9435 19.1388C18.9901 19.1388 19.0275 19.1016 19.0275 19.0554C19.0275 19.0092 18.9891 18.9721 18.9435 18.9721Z" fill="white"/>
<path d="M18.2248 22.1497C18.1125 22.1497 18.0215 22.0593 18.0215 21.9478C18.0215 21.8363 18.1125 21.7458 18.2248 21.7458C18.3371 21.7458 18.4281 21.8363 18.4281 21.9478C18.4291 22.0583 18.3371 22.1497 18.2248 22.1497ZM18.2248 21.8634C18.1783 21.8634 18.1408 21.9006 18.1408 21.9468C18.1408 21.993 18.1783 22.0301 18.2248 22.0301C18.2713 22.0301 18.3087 21.993 18.3087 21.9468C18.3087 21.9006 18.2713 21.8634 18.2248 21.8634Z" fill="white"/>
<path d="M18.2248 20.489C18.1125 20.489 18.0215 20.3986 18.0215 20.2871C18.0215 20.1756 18.1125 20.0852 18.2248 20.0852C18.3371 20.0852 18.4281 20.1756 18.4281 20.2871C18.4291 20.3986 18.3371 20.489 18.2248 20.489ZM18.2248 20.2037C18.1783 20.2037 18.1408 20.2409 18.1408 20.2871C18.1408 20.3333 18.1783 20.3705 18.2248 20.3705C18.2713 20.3705 18.3087 20.3333 18.3087 20.2871C18.3087 20.2409 18.2713 20.2037 18.2248 20.2037Z" fill="white"/>
<path d="M18.2248 16.313C18.1125 16.313 18.0215 16.2226 18.0215 16.1111C18.0215 15.9996 18.1125 15.9092 18.2248 15.9092C18.3371 15.9092 18.4281 15.9996 18.4281 16.1111C18.4291 16.2216 18.3371 16.313 18.2248 16.313ZM18.2248 16.0267C18.1783 16.0267 18.1408 16.0639 18.1408 16.1101C18.1408 16.1563 18.1783 16.1935 18.2248 16.1935C18.2713 16.1935 18.3087 16.1563 18.3087 16.1101C18.3087 16.0639 18.2713 16.0267 18.2248 16.0267Z" fill="white"/>
<path d="M17.7073 13.9533C17.7073 14.0638 17.6172 14.1532 17.506 14.1532C17.3947 14.1532 17.3047 14.0638 17.3047 13.9533C17.3047 13.8428 17.3947 13.7534 17.506 13.7534C17.6172 13.7534 17.7073 13.8428 17.7073 13.9533Z" fill="white"/>
<path d="M19.1448 16.8083C19.1448 16.9188 19.0547 17.0082 18.9435 17.0082C18.8322 17.0082 18.7422 16.9188 18.7422 16.8083C18.7422 16.6978 18.8322 16.6084 18.9435 16.6084C19.0547 16.6084 19.1448 16.6978 19.1448 16.8083Z" fill="white"/>
<path d="M18.9435 15.6007C19.0546 15.6007 19.1448 15.5112 19.1448 15.4008C19.1448 15.2904 19.0546 15.2009 18.9435 15.2009C18.8323 15.2009 18.7422 15.2904 18.7422 15.4008C18.7422 15.5112 18.8323 15.6007 18.9435 15.6007Z" fill="white"/>
<path d="M18.2844 15.9675H18.1641V14.6425L18.9176 13.8931H19.6864L20.2791 14.4817L20.1941 14.5661L19.6368 14.0126H18.9672L18.2844 14.6917V15.9675Z" fill="white"/>
<path d="M18.2844 20.4297H18.1641V21.8039H18.2844V20.4297Z" fill="white"/>
<path d="M19.0032 18.9118H18.8828V18.2106L19.5939 17.5054V16.1352L19.0022 15.5475L19.0871 15.4631L19.7132 16.086V17.5546L19.0032 18.2598V18.9118Z" fill="white"/>
</g>
<path d="M19.7559 8.76978H23.4407V21.9738H19.7559V8.76978Z" fill="#1A2A55"/>
<mask id="mask1_3833_8814" style="mask-type:luminance" maskUnits="userSpaceOnUse" x="19" y="8" width="5" height="14">
<path d="M19.7559 8.76978H23.4407V21.9738H19.7559V8.76978Z" fill="white"/>
</mask>
<g mask="url(#mask1_3833_8814)">
<path d="M19.3403 9.22796H19.2199V5.63463L19.9391 4.92038V2.82888L19.2553 2.14979H18.7051V2.03125H19.3049L20.0595 2.77965V4.96961L19.3403 5.68385V9.22796Z" fill="white"/>
<path d="M19.304 13.5697H18.5605V13.4511H19.2544L19.9382 12.772V7.08618H20.0586V12.8213L19.304 13.5697Z" fill="white"/>
<path d="M19.9943 13.7163C19.8821 13.7163 19.791 13.6259 19.791 13.5144C19.791 13.4029 19.8821 13.3125 19.9943 13.3125C20.1066 13.3125 20.1976 13.4029 20.1976 13.5144C20.1976 13.6259 20.1066 13.7163 19.9943 13.7163ZM19.9943 13.431C19.9478 13.431 19.9104 13.4682 19.9104 13.5144C19.9104 13.5606 19.9478 13.5978 19.9943 13.5978C20.0409 13.5978 20.0783 13.5606 20.0783 13.5144C20.0783 13.4682 20.0409 13.431 19.9943 13.431Z" fill="white"/>
<path d="M19.8674 10.6623C19.8674 10.7728 19.7774 10.8622 19.6661 10.8622C19.5549 10.8622 19.4648 10.7728 19.4648 10.6623C19.4648 10.5518 19.5549 10.4624 19.6661 10.4624C19.7774 10.4624 19.8674 10.5518 19.8674 10.6623Z" fill="white"/>
<path d="M19.6662 10.148C19.5539 10.148 19.4629 10.0576 19.4629 9.94606C19.4629 9.83455 19.5539 9.74414 19.6662 9.74414C19.7785 9.74414 19.8695 9.83455 19.8695 9.94606C19.8705 10.0566 19.7785 10.148 19.6662 10.148ZM19.6662 9.86268C19.6197 9.86268 19.5822 9.89985 19.5822 9.94606C19.5822 9.99227 19.6197 10.0294 19.6662 10.0294C19.7127 10.0294 19.7502 9.99227 19.7502 9.94606C19.7502 9.89985 19.7127 9.86268 19.6662 9.86268Z" fill="white"/>
<path d="M21.2604 12.6535H21.14V9.96631L20.4219 9.25206V1.57617H20.5412V9.20284L21.2604 9.91708V12.6535Z" fill="white"/>
<path d="M22.6977 9.22796H22.5774V5.63463L23.2965 4.92038V2.82888L22.6128 2.14979H22.0625V2.03125H22.6623L23.4159 2.77965V4.96961L22.6977 5.68385V9.22796Z" fill="white"/>
<path d="M22.6614 13.5697H21.918V13.4511H22.6119L23.2956 12.772V7.08618H23.415V12.8213L22.6614 13.5697Z" fill="white"/>
<path d="M22.6964 12.0828H22.576V11.3937L21.8578 10.6795V7.82449L21.1387 7.11125V4.92029L21.875 4.18896L21.96 4.27335L21.259 4.96951V7.06202L21.9772 7.77527V10.6302L22.6964 11.3445V12.0828Z" fill="white"/>
<path d="M21.1994 12.999C21.0871 12.999 20.9961 12.9086 20.9961 12.7971C20.9961 12.6856 21.0871 12.5952 21.1994 12.5952C21.3117 12.5952 21.4027 12.6856 21.4027 12.7971C21.4037 12.9076 21.3117 12.999 21.1994 12.999ZM21.1994 12.7138C21.1529 12.7138 21.1154 12.7509 21.1154 12.7971C21.1154 12.8433 21.1529 12.8805 21.1994 12.8805C21.2459 12.8805 21.2834 12.8433 21.2834 12.7971C21.2834 12.7509 21.2459 12.7138 21.1994 12.7138Z" fill="white"/>
<path d="M21.9182 12.999C21.8059 12.999 21.7148 12.9086 21.7148 12.7971C21.7148 12.6856 21.8059 12.5952 21.9182 12.5952C22.0304 12.5952 22.1215 12.6856 22.1215 12.7971C22.1215 12.9076 22.0304 12.999 21.9182 12.999ZM21.9182 12.7138C21.8716 12.7138 21.8342 12.7509 21.8342 12.7971C21.8342 12.8433 21.8716 12.8805 21.9182 12.8805C21.9647 12.8805 22.0021 12.8433 22.0021 12.7971C22.0021 12.7509 21.9647 12.7138 21.9182 12.7138Z" fill="white"/>
<path d="M21.9182 12.2847C21.8059 12.2847 21.7148 12.1943 21.7148 12.0828C21.7148 11.9713 21.8059 11.8809 21.9182 11.8809C22.0304 11.8809 22.1215 11.9713 22.1215 12.0828C22.1215 12.1943 22.0304 12.2847 21.9182 12.2847ZM21.9182 11.9994C21.8716 11.9994 21.8342 12.0366 21.8342 12.0828C21.8342 12.129 21.8716 12.1662 21.9182 12.1662C21.9647 12.1662 22.0021 12.129 22.0021 12.0828C22.0021 12.0366 21.9647 11.9994 21.9182 11.9994Z" fill="white"/>
<path d="M22.6271 12.999C22.5149 12.999 22.4238 12.9086 22.4238 12.7971C22.4238 12.6856 22.5149 12.5952 22.6271 12.5952C22.7394 12.5952 22.8305 12.6856 22.8305 12.7971C22.8305 12.9076 22.7394 12.999 22.6271 12.999ZM22.6271 12.7138C22.5806 12.7138 22.5432 12.7509 22.5432 12.7971C22.5432 12.8433 22.5806 12.8805 22.6271 12.8805C22.6737 12.8805 22.7111 12.8433 22.7111 12.7971C22.7111 12.7509 22.6737 12.7138 22.6271 12.7138Z" fill="white"/>
<path d="M23.3517 13.7163C23.2395 13.7163 23.1484 13.6259 23.1484 13.5144C23.1484 13.4029 23.2395 13.3125 23.3517 13.3125C23.464 13.3125 23.5551 13.4029 23.5551 13.5144C23.5551 13.6259 23.464 13.7163 23.3517 13.7163ZM23.3517 13.431C23.3052 13.431 23.2678 13.4682 23.2678 13.5144C23.2678 13.5606 23.3052 13.5978 23.3517 13.5978C23.3983 13.5978 23.4357 13.5606 23.4357 13.5144C23.4357 13.4682 23.3973 13.431 23.3517 13.431Z" fill="white"/>
<path d="M22.6369 9.57254C22.5246 9.57254 22.4336 9.48212 22.4336 9.37062C22.4336 9.25911 22.5246 9.1687 22.6369 9.1687C22.7492 9.1687 22.8402 9.25911 22.8402 9.37062C22.8412 9.48212 22.7492 9.57254 22.6369 9.57254ZM22.6369 9.28724C22.5904 9.28724 22.553 9.32441 22.553 9.37062C22.553 9.41683 22.5904 9.454 22.6369 9.454C22.6834 9.454 22.7209 9.41683 22.7209 9.37062C22.7209 9.32441 22.6834 9.28724 22.6369 9.28724Z" fill="white"/>
<path d="M21.1994 9.57254C21.0871 9.57254 20.9961 9.48212 20.9961 9.37062C20.9961 9.25911 21.0871 9.1687 21.1994 9.1687C21.3117 9.1687 21.4027 9.25911 21.4027 9.37062C21.4037 9.48212 21.3117 9.57254 21.1994 9.57254ZM21.1994 9.28724C21.1529 9.28724 21.1154 9.32441 21.1154 9.37062C21.1154 9.41683 21.1529 9.454 21.1994 9.454C21.2459 9.454 21.2834 9.41683 21.2834 9.37062C21.2834 9.32441 21.2459 9.28724 21.1994 9.28724Z" fill="white"/>
<path d="M21.9182 13.5105C21.9182 13.621 21.8282 13.7104 21.7169 13.7104C21.6056 13.7104 21.5156 13.621 21.5156 13.5105C21.5156 13.4 21.6056 13.3105 21.7169 13.3105C21.8282 13.3105 21.9182 13.4 21.9182 13.5105Z" fill="white"/>
<path d="M21.4006 13.5105C21.4006 13.621 21.3106 13.7104 21.1993 13.7104C21.0881 13.7104 20.998 13.621 20.998 13.5105C20.998 13.4 21.0881 13.3105 21.1993 13.3105C21.3106 13.3105 21.4006 13.4 21.4006 13.5105Z" fill="white"/>
<path d="M22.8381 12.2827C22.8381 12.3932 22.7481 12.4826 22.6368 12.4826C22.5256 12.4826 22.4355 12.3932 22.4355 12.2827C22.4355 12.1722 22.5256 12.0828 22.6368 12.0828C22.7481 12.0828 22.8381 12.1722 22.8381 12.2827Z" fill="white"/>
<path d="M23.2248 10.6623C23.2248 10.7728 23.1348 10.8622 23.0236 10.8622C22.9123 10.8622 22.8223 10.7728 22.8223 10.6623C22.8223 10.5518 22.9123 10.4624 23.0236 10.4624C23.1348 10.4624 23.2248 10.5518 23.2248 10.6623Z" fill="white"/>
<path d="M22.1194 11.3625C22.1194 11.473 22.0293 11.5624 21.9181 11.5624C21.8068 11.5624 21.7168 11.473 21.7168 11.3625C21.7168 11.252 21.8068 11.1626 21.9181 11.1626C22.0293 11.1626 22.1194 11.252 22.1194 11.3625Z" fill="white"/>
<path d="M20.6819 10.6623C20.6819 10.7728 20.5918 10.8622 20.4806 10.8622C20.3693 10.8622 20.2793 10.7728 20.2793 10.6623C20.2793 10.5518 20.3693 10.4624 20.4806 10.4624C20.5918 10.4624 20.6819 10.5518 20.6819 10.6623Z" fill="white"/>
<path d="M21.0156 13.4109L20.4219 12.8212V10.8623H20.5412V12.772L21.1006 13.3265L21.0156 13.4109Z" fill="white"/>
<path d="M21.259 7.85254H21.1387V9.22679H21.259V7.85254Z" fill="white"/>
<path d="M22.4357 12.7368H22.0625V12.8564H22.4357V12.7368Z" fill="white"/>
<path d="M22.3127 10.148C22.2004 10.148 22.1094 10.0576 22.1094 9.94606C22.1094 9.83455 22.2004 9.74414 22.3127 9.74414C22.425 9.74414 22.516 9.83455 22.516 9.94606C22.516 10.0566 22.425 10.148 22.3127 10.148ZM22.3127 9.86268C22.2662 9.86268 22.2287 9.89985 22.2287 9.94606C22.2287 9.99227 22.2662 10.0294 22.3127 10.0294C22.3592 10.0294 22.3966 9.99227 22.3966 9.94606C22.3966 9.89985 22.3582 9.86268 22.3127 9.86268Z" fill="white"/>
<path d="M23.0236 10.148C22.9113 10.148 22.8203 10.0576 22.8203 9.94606C22.8203 9.83455 22.9113 9.74414 23.0236 9.74414C23.1359 9.74414 23.2269 9.83455 23.2269 9.94606C23.2269 10.0566 23.1359 10.148 23.0236 10.148ZM23.0236 9.86268C22.9771 9.86268 22.9397 9.89985 22.9397 9.94606C22.9397 9.99227 22.9771 10.0294 23.0236 10.0294C23.0702 10.0294 23.1076 9.99227 23.1076 9.94606C23.1076 9.89985 23.0702 9.86268 23.0236 9.86268Z" fill="white"/>
<path d="M22.8303 9.88574H22.457V10.0053H22.8303V9.88574Z" fill="white"/>
<path d="M19.3403 21.8041H19.2199V18.2108L19.9391 17.4976V15.405L19.2553 14.726H18.7051V14.6074H19.3049L20.0595 15.3558V17.5468L19.3403 18.26V21.8041Z" fill="white"/>
<path d="M19.304 26.1458H18.5605V26.0273H19.2544L19.9382 25.3482V19.6633H20.0586V25.3974L19.304 26.1458Z" fill="white"/>
<path d="M19.9982 14.8694C19.886 14.8694 19.7949 14.779 19.7949 14.6675C19.7949 14.556 19.886 14.4656 19.9982 14.4656C20.1105 14.4656 20.2015 14.556 20.2015 14.6675C20.2015 14.779 20.1105 14.8694 19.9982 14.8694ZM19.9982 14.5831C19.9517 14.5831 19.9143 14.6203 19.9143 14.6665C19.9143 14.7127 19.9517 14.7499 19.9982 14.7499C20.0448 14.7499 20.0822 14.7127 20.0822 14.6665C20.0822 14.6203 20.0448 14.5831 19.9982 14.5831Z" fill="white"/>
<path d="M19.9982 19.7224C19.886 19.7224 19.7949 19.632 19.7949 19.5205C19.7949 19.409 19.886 19.3186 19.9982 19.3186C20.1105 19.3186 20.2015 19.409 20.2015 19.5205C20.2026 19.632 20.1105 19.7224 19.9982 19.7224ZM19.9982 19.4371C19.9517 19.4371 19.9143 19.4743 19.9143 19.5205C19.9143 19.5667 19.9517 19.6039 19.9982 19.6039C20.0448 19.6039 20.0822 19.5667 20.0822 19.5205C20.0822 19.4743 20.0448 19.4371 19.9982 19.4371Z" fill="white"/>
<path d="M17.9016 15.9675H17.7812V14.6425L18.5358 13.8931H19.3035L19.8963 14.4817L19.8113 14.5661L19.254 14.0126H18.5854L17.9016 14.6917V15.9675Z" fill="white"/>
<path d="M21.2604 25.2297H21.14V22.5425L20.4219 21.8292V14.1533H20.5412V21.779L21.2604 22.4932V25.2297Z" fill="white"/>
<path d="M22.6977 21.8041H22.5774V18.2108L23.2965 17.4976V15.405L22.6128 14.726H22.0625V14.6074H22.6623L23.4159 15.3558V17.5468L22.6977 18.26V21.8041Z" fill="white"/>
<path d="M22.6614 26.1458H21.918V26.0273H22.6119L23.2956 25.3482V19.6633H23.415V25.3974L22.6614 26.1458Z" fill="white"/>
<path d="M22.6964 24.659H22.576V23.9699L21.8578 23.2566V20.4016L21.1387 19.6874V17.4974L21.875 16.7661L21.96 16.8505L21.259 17.5467V19.6382L21.9772 20.3524V23.2064L22.6964 23.9206V24.659Z" fill="white"/>
<path d="M21.9182 14.8694C21.8059 14.8694 21.7148 14.779 21.7148 14.6675C21.7148 14.556 21.8059 14.4656 21.9182 14.4656C22.0304 14.4656 22.1215 14.556 22.1215 14.6675C22.1215 14.779 22.0304 14.8694 21.9182 14.8694ZM21.9182 14.5831C21.8716 14.5831 21.8342 14.6203 21.8342 14.6665C21.8342 14.7127 21.8716 14.7499 21.9182 14.7499C21.9647 14.7499 22.0021 14.7127 22.0021 14.6665C22.0021 14.6203 21.9647 14.5831 21.9182 14.5831Z" fill="white"/>
<path d="M21.9182 19.2574C21.8059 19.2574 21.7148 19.1669 21.7148 19.0554C21.7148 18.9439 21.8059 18.8535 21.9182 18.8535C22.0304 18.8535 22.1215 18.9439 22.1215 19.0554C22.1215 19.1659 22.0304 19.2574 21.9182 19.2574ZM21.9182 18.9721C21.8716 18.9721 21.8342 19.0092 21.8342 19.0554C21.8342 19.1016 21.8716 19.1388 21.9182 19.1388C21.9647 19.1388 22.0021 19.1016 22.0021 19.0554C22.0021 19.0092 21.9647 18.9721 21.9182 18.9721Z" fill="white"/>
<path d="M23.3557 14.8694C23.2434 14.8694 23.1523 14.779 23.1523 14.6675C23.1523 14.556 23.2434 14.4656 23.3557 14.4656C23.4679 14.4656 23.559 14.556 23.559 14.6675C23.559 14.779 23.4679 14.8694 23.3557 14.8694ZM23.3557 14.5831C23.3091 14.5831 23.2717 14.6203 23.2717 14.6665C23.2717 14.7127 23.3091 14.7499 23.3557 14.7499C23.4022 14.7499 23.4396 14.7127 23.4396 14.6665C23.4396 14.6203 23.4012 14.5831 23.3557 14.5831Z" fill="white"/>
<path d="M23.3557 19.7224C23.2434 19.7224 23.1523 19.632 23.1523 19.5205C23.1523 19.409 23.2434 19.3186 23.3557 19.3186C23.4679 19.3186 23.559 19.409 23.559 19.5205C23.559 19.632 23.4679 19.7224 23.3557 19.7224ZM23.3557 19.4371C23.3091 19.4371 23.2717 19.4743 23.2717 19.5205C23.2717 19.5667 23.3091 19.6039 23.3557 19.6039C23.4022 19.6039 23.4396 19.5667 23.4396 19.5205C23.4396 19.4743 23.4012 19.4371 23.3557 19.4371Z" fill="white"/>
<path d="M22.6369 22.1497C22.5246 22.1497 22.4336 22.0593 22.4336 21.9478C22.4336 21.8363 22.5246 21.7458 22.6369 21.7458C22.7492 21.7458 22.8402 21.8363 22.8402 21.9478C22.8412 22.0583 22.7492 22.1497 22.6369 22.1497ZM22.6369 21.8634C22.5904 21.8634 22.553 21.9006 22.553 21.9468C22.553 21.993 22.5904 22.0301 22.6369 22.0301C22.6834 22.0301 22.7209 21.993 22.7209 21.9468C22.7209 21.9006 22.6834 21.8634 22.6369 21.8634Z" fill="white"/>
<path d="M21.1994 22.1497C21.0871 22.1497 20.9961 22.0593 20.9961 21.9478C20.9961 21.8363 21.0871 21.7458 21.1994 21.7458C21.3117 21.7458 21.4027 21.8363 21.4027 21.9478C21.4037 22.0583 21.3117 22.1497 21.1994 22.1497ZM21.1994 21.8634C21.1529 21.8634 21.1154 21.9006 21.1154 21.9468C21.1154 21.993 21.1529 22.0301 21.1994 22.0301C21.2459 22.0301 21.2834 21.993 21.2834 21.9468C21.2834 21.9006 21.2459 21.8634 21.1994 21.8634Z" fill="white"/>
<path d="M21.1994 20.489C21.0871 20.489 20.9961 20.3986 20.9961 20.2871C20.9961 20.1756 21.0871 20.0852 21.1994 20.0852C21.3117 20.0852 21.4027 20.1756 21.4027 20.2871C21.4037 20.3986 21.3117 20.489 21.1994 20.489ZM21.1994 20.2037C21.1529 20.2037 21.1154 20.2409 21.1154 20.2871C21.1154 20.3333 21.1529 20.3705 21.1994 20.3705C21.2459 20.3705 21.2834 20.3333 21.2834 20.2871C21.2834 20.2409 21.2459 20.2037 21.1994 20.2037Z" fill="white"/>
<path d="M21.1994 16.313C21.0871 16.313 20.9961 16.2226 20.9961 16.1111C20.9961 15.9996 21.0871 15.9092 21.1994 15.9092C21.3117 15.9092 21.4027 15.9996 21.4027 16.1111C21.4037 16.2216 21.3117 16.313 21.1994 16.313ZM21.1994 16.0267C21.1529 16.0267 21.1154 16.0639 21.1154 16.1101C21.1154 16.1563 21.1529 16.1935 21.1994 16.1935C21.2459 16.1935 21.2834 16.1563 21.2834 16.1101C21.2834 16.0639 21.2459 16.0267 21.1994 16.0267Z" fill="white"/>
<path d="M20.6819 13.9533C20.6819 14.0638 20.5918 14.1532 20.4806 14.1532C20.3693 14.1532 20.2793 14.0638 20.2793 13.9533C20.2793 13.8428 20.3693 13.7534 20.4806 13.7534C20.5918 13.7534 20.6819 13.8428 20.6819 13.9533Z" fill="white"/>
<path d="M22.1194 16.8083C22.1194 16.9188 22.0293 17.0082 21.9181 17.0082C21.8068 17.0082 21.7168 16.9188 21.7168 16.8083C21.7168 16.6978 21.8068 16.6084 21.9181 16.6084C22.0293 16.6084 22.1194 16.6978 22.1194 16.8083Z" fill="white"/>
<path d="M21.9181 15.6007C22.0293 15.6007 22.1194 15.5112 22.1194 15.4008C22.1194 15.2904 22.0293 15.2009 21.9181 15.2009C21.8069 15.2009 21.7168 15.2904 21.7168 15.4008C21.7168 15.5112 21.8069 15.6007 21.9181 15.6007Z" fill="white"/>
<path d="M21.259 15.9675H21.1387V14.6425L21.8922 13.8931H22.661L23.2537 14.4817L23.1687 14.5661L22.6114 14.0126H21.9418L21.259 14.6917V15.9675Z" fill="white"/>
<path d="M21.259 20.4297H21.1387V21.8039H21.259V20.4297Z" fill="white"/>
<path d="M21.9768 18.9118H21.8574V18.2106L22.5675 17.5054V16.1352L21.9758 15.5475L22.0607 15.4631L22.6868 16.086V17.5546L21.9768 18.2598V18.9118Z" fill="white"/>
</g>
</g>
<defs>
<clipPath id="clip0_3833_8814">
<rect width="29.3333" height="29.3333" fill="white" transform="translate(0.333984 0.825684)"/>
</clipPath>
</defs>
</svg>
