<svg width="20" height="21" viewBox="0 0 20 21" fill="none" xmlns="http://www.w3.org/2000/svg">
<path d="M16 7.44336H13.5C12.673 7.44336 12 6.77036 12 5.94336V2.44336H4V18.4434H16V7.44336Z" fill="white"/>
<path d="M16 6.44336V6.15036L13 3.15036V5.94336C13 6.21836 13.225 6.44336 13.5 6.44336H16Z" fill="white"/>
<path opacity="0.64" fill-rule="evenodd" clip-rule="evenodd" d="M16.707 5.44336L13 1.73636C12.8125 1.54881 12.5582 1.44342 12.293 1.44336H4C3.44772 1.44336 3 1.89107 3 2.44336V18.4434C3 18.9956 3.44772 19.4434 4 19.4434H16C16.5523 19.4434 17 18.9956 17 18.4434V6.15036C16.9999 5.88516 16.8945 5.63085 16.707 5.44336ZM16 6.15036V6.44336H13.5C13.2241 6.44281 13.0006 6.21927 13 5.94336V3.15036L16 6.15036ZM4 2.64336V18.2434C4 18.3538 4.08954 18.4434 4.2 18.4434H15.8C15.9105 18.4434 16 18.3538 16 18.2434V7.44336H13.5C12.6716 7.44336 12 6.77179 12 5.94336V2.44336H4.2C4.09 2.44336 4 2.53336 4 2.64336Z" fill="#3F4948"/>
<path d="M14.5 10.4434H5.5C5.22386 10.4434 5 10.2195 5 9.94336C5 9.66722 5.22386 9.44336 5.5 9.44336H14.5C14.7761 9.44336 15 9.66722 15 9.94336C15 10.2195 14.7761 10.4434 14.5 10.4434Z" fill="#E0E3E2"/>
<path fill-rule="evenodd" clip-rule="evenodd" d="M6 16.4434V12.4434C6 11.8911 6.44772 11.4434 7 11.4434H13C13.5523 11.4434 14 11.8911 14 12.4434V16.4434C14 16.9956 13.5523 17.4434 13 17.4434H7C6.44772 17.4434 6 16.9956 6 16.4434ZM7.2 16.4434H12.794C12.8468 16.445 12.898 16.425 12.9358 16.388C12.9735 16.351 12.9946 16.3002 12.994 16.2474C12.988 15.5694 12.996 13.3154 13 12.6374C13 12.5274 12.91 12.4434 12.8 12.4434H7.2C7.09 12.4434 7 12.5334 7 12.6434V16.2434C7 16.3538 7.08954 16.4434 7.2 16.4434ZM4.75 16.4434H3C2.44772 16.4434 2 15.9956 2 15.4434V13.4434C2 12.8911 2.44772 12.4434 3 12.4434H4.75C4.88807 12.4434 5 12.5553 5 12.6934V16.1934C5 16.3314 4.88807 16.4434 4.75 16.4434ZM15.25 16.4434H17C17.5523 16.4434 18 15.9956 18 15.4434V13.4434C18 12.8911 17.5523 12.4434 17 12.4434H15.25C15.1119 12.4434 15 12.5553 15 12.6934V16.1934C15 16.3314 15.1119 16.4434 15.25 16.4434Z" fill="#DD6B51"/>
</svg>
