<svg width="32" height="32" viewBox="0 0 32 32" fill="none" xmlns="http://www.w3.org/2000/svg">
<path fill-rule="evenodd" clip-rule="evenodd" d="M8.09666 5.29737C9.79443 4.02162 12.3626 2.99245 14.3935 2.75659C20.0026 2.11336 25.3215 4.96503 27.8897 9.99298C28.5452 11.2795 28.8138 12.0299 29.1039 13.4557C29.5015 15.4283 29.3725 18.087 28.7816 19.8988C27.5781 23.5545 25.0314 26.4598 21.5714 28.0893C15.8871 30.7695 9.07449 29.0113 5.24913 23.8547C4.57217 22.9434 3.66955 21.2603 3.33645 20.2633C2.25116 17.09 2.4983 13.1556 3.97042 10.2288C4.88378 8.39562 6.4741 6.49808 8.09666 5.29737ZM23.5485 8.20265C21.7003 6.44447 19.5942 5.47962 17.0583 5.21161C16.4566 5.158 15.8871 5.11512 15.7904 5.11512C12.599 5.37242 10.4821 6.26222 8.44051 8.20265C7.07584 9.49984 6.09801 11.1294 5.50702 13.0912C5.23838 13.981 5.20615 14.2062 5.20615 15.9322C5.20615 17.4116 5.23838 17.9584 5.38882 18.5051C6.56007 22.7612 9.51505 25.645 13.695 26.6099C14.8663 26.8886 17.1228 26.8886 18.294 26.6099C22.474 25.645 25.429 22.7612 26.6002 18.5051C26.7507 17.9584 26.7829 17.4116 26.7829 15.9322C26.7829 14.2062 26.7507 13.981 26.482 13.0912C25.891 11.1294 24.9132 9.49984 23.5485 8.20265ZM9.01517 18.2003C9.04802 18.1772 9.08145 18.1537 9.11524 18.1299L9.78145 17.6582L10.6518 18.548C11.9628 19.8774 13.263 20.5206 15.0897 20.7672C17.4322 21.0781 20.0218 20.1025 21.5369 18.3443C21.8163 18.0227 22.0849 17.7547 22.1387 17.7547C22.2676 17.7547 23.5033 18.6552 23.5033 18.7624C23.5248 18.9554 22.3966 20.1239 21.6551 20.6814C18.2703 23.2651 13.768 23.2651 10.3295 20.6921C9.63102 20.1775 8.29859 18.7517 8.40604 18.6445C8.42555 18.6153 8.69283 18.4272 9.01517 18.2003Z" fill="#006A67"/>
</svg>
