<svg width="20" height="21" viewBox="0 0 20 21" fill="none" xmlns="http://www.w3.org/2000/svg">
<path d="M3.5 17.4434H16.5C16.775 17.4434 17 17.2184 17 16.9434V3.94336C17 3.66836 16.775 3.44336 16.5 3.44336H3.5C3.225 3.44336 3 3.66836 3 3.94336V16.9434C3 17.2184 3.225 17.4434 3.5 17.4434Z" fill="white"/>
<path fill-rule="evenodd" clip-rule="evenodd" d="M11.691 11.1004L10.813 12.3864L9.12599 10.0604C8.93788 9.80101 8.63689 9.64749 8.31649 9.64749C7.9961 9.64749 7.6951 9.80101 7.50699 10.0604L5.11699 13.3564C4.89632 13.6607 4.86498 14.0631 5.03589 14.398C5.20679 14.7328 5.55105 14.9435 5.92699 14.9434H14.073C14.4438 14.9435 14.7843 14.7383 14.9575 14.4104C15.1307 14.0825 15.1082 13.6856 14.899 13.3794L13.343 11.0994C13.1567 10.8264 12.8475 10.663 12.517 10.663C12.1865 10.663 11.8773 10.8264 11.691 11.0994V11.1004Z" stroke="#E0E3E2"/>
<path fill-rule="evenodd" clip-rule="evenodd" d="M13.5 7.94336C14.0523 7.94336 14.5 7.49564 14.5 6.94336C14.5 6.39107 14.0523 5.94336 13.5 5.94336C12.9477 5.94336 12.5 6.39107 12.5 6.94336C12.5 7.49564 12.9477 7.94336 13.5 7.94336Z" stroke="#835400"/>
<path opacity="0.64" fill-rule="evenodd" clip-rule="evenodd" d="M3.5 18.4434H16.5C17.327 18.4434 18 17.7704 18 16.9434V3.94336C18 3.11636 17.327 2.44336 16.5 2.44336H3.5C2.673 2.44336 2 3.11636 2 3.94336V16.9434C2 17.7704 2.673 18.4434 3.5 18.4434ZM3 3.94336C3 3.66722 3.22386 3.44336 3.5 3.44336H16.5C16.7761 3.44336 17 3.66722 17 3.94336V16.9434C17 17.2195 16.7761 17.4434 16.5 17.4434H3.5C3.22386 17.4434 3 17.2195 3 16.9434V3.94336Z" fill="#3F4948"/>
</svg>
